<svg width="43" height="44" viewBox="0 0 43 44" fill="none" xmlns="http://www.w3.org/2000/svg">
<g id="ant-design:facebook-outlined">
<path id="Vector" d="M36.9531 5.20312H6.04688C5.30361 5.20312 4.70312 5.80361 4.70312 6.54688V37.4531C4.70312 38.1964 5.30361 38.7969 6.04688 38.7969H36.9531C37.6964 38.7969 38.2969 38.1964 38.2969 37.4531V6.54688C38.2969 5.80361 37.6964 5.20312 36.9531 5.20312ZM35.6094 36.1094H27.8786V25.7877H32.2458L32.9009 20.7192H27.8786V17.4816C27.8786 16.0119 28.2859 15.0125 30.3897 15.0125H33.073V10.4773C32.6069 10.4144 31.0154 10.2758 29.1594 10.2758C25.2877 10.2758 22.638 12.6399 22.638 16.9777V20.715H18.2624V25.7835H22.6422V36.1094H7.39062V7.89062H35.6094V36.1094Z" fill="white"/>
</g>
</svg>
