<svg width="50" height="50" viewBox="0 0 50 50" fill="none" xmlns="http://www.w3.org/2000/svg">
<g id="material-symbols:mail-outline">
<path id="Vector" d="M8.33329 41.6668C7.18746 41.6668 6.2069 41.2592 5.39163 40.4439C4.57635 39.6286 4.16801 38.6474 4.16663 37.5002V12.5002C4.16663 11.3543 4.57496 10.3738 5.39163 9.5585C6.20829 8.74322 7.18885 8.33488 8.33329 8.3335H41.6666C42.8125 8.3335 43.7937 8.74183 44.6104 9.5585C45.427 10.3752 45.8347 11.3557 45.8333 12.5002V37.5002C45.8333 38.646 45.4257 39.6272 44.6104 40.4439C43.7951 41.2606 42.8139 41.6682 41.6666 41.6668H8.33329ZM25 27.0835L8.33329 16.6668V37.5002H41.6666V16.6668L25 27.0835ZM25 22.9168L41.6666 12.5002H8.33329L25 22.9168ZM8.33329 16.6668V12.5002V37.5002V16.6668Z" fill="white"/>
</g>
</svg>
