<svg width="243" height="41" viewBox="0 0 243 41" fill="none" xmlns="http://www.w3.org/2000/svg">
<path d="M13.8711 2.98926L13.8125 3.2334C13.2852 3.36361 12.849 3.52637 12.5039 3.72168C12.1589 3.91699 11.6934 4.27181 11.1074 4.78613C9.55145 6.14681 8.19728 7.19173 7.04494 7.9209C7.37697 8.33105 7.66017 8.79004 7.89455 9.29785C8.12892 9.80566 8.53582 10.9743 9.11525 12.8037C9.63608 14.4378 10.1667 15.5413 10.707 16.1143C11.2474 16.6872 11.7975 16.9736 12.3574 16.9736C12.8978 16.9736 13.2656 16.6872 13.461 16.1143C13.5781 15.7757 13.6791 15.5674 13.7637 15.4893C13.8809 15.3851 14.0111 15.333 14.1543 15.333C14.3106 15.333 14.444 15.3851 14.5547 15.4893C14.6654 15.5999 14.7207 15.7301 14.7207 15.8799C14.7207 16.2705 14.4896 16.6481 14.0274 17.0127C13.5651 17.3773 12.9792 17.5596 12.2695 17.5596C11.6576 17.5596 11.0749 17.4033 10.5215 17.0908C9.97462 16.7783 9.47332 16.2868 9.01759 15.6162C8.56186 14.9456 8.09637 13.9072 7.62111 12.501C7.1784 11.1729 6.8366 10.2646 6.59572 9.77637C6.35483 9.28158 6.01955 8.76074 5.58986 8.21387L4.5547 12.1689C4.34637 12.9697 4.21616 13.5426 4.16408 13.8877C4.60679 14.0765 5.00392 14.1709 5.35548 14.1709C5.44012 14.1709 5.56056 14.1644 5.71681 14.1514L5.58986 14.6396C5.45965 14.6462 5.37827 14.6494 5.34572 14.6494C5.13087 14.6494 4.82489 14.6266 4.42775 14.5811C4.01108 14.5355 3.66929 14.5127 3.40236 14.5127C2.86199 14.5127 2.00587 14.6169 0.834 14.8252L0.892593 14.3564C1.51759 14.2327 1.95705 14.0635 2.21095 13.8486C2.46486 13.6273 2.66668 13.2822 2.81642 12.8135C3.16147 11.7588 3.61069 10.1735 4.16408 8.05762L5.35548 3.53613C4.06642 3.61426 3.04754 3.90723 2.29884 4.41504C1.71942 4.79915 1.4297 5.22884 1.4297 5.7041C1.4297 5.87337 1.51108 6.08822 1.67384 6.34863C1.82358 6.58301 1.89845 6.77181 1.89845 6.91504C1.89845 7.09082 1.83335 7.24707 1.70314 7.38379C1.57293 7.514 1.41994 7.5791 1.24416 7.5791C1.04233 7.5791 0.860041 7.47819 0.697281 7.27637C0.541031 7.07454 0.462906 6.80762 0.462906 6.47559C0.462906 5.57064 0.912125 4.75684 1.81056 4.03418C2.71551 3.30501 4.28452 2.94043 6.51759 2.94043H7.15236C6.79429 3.87142 6.55991 4.54525 6.44923 4.96191L5.66798 7.9209C6.14975 7.73861 6.70965 7.42936 7.34767 6.99316C7.9922 6.55046 8.61069 6.08171 9.20314 5.58691C10.2904 4.67546 10.9089 4.12207 11.0586 3.92676C11.1042 3.86165 11.127 3.80632 11.127 3.76074C11.127 3.70866 11.0586 3.66309 10.9219 3.62402C10.7917 3.57845 10.4173 3.54915 9.79884 3.53613L9.9258 2.98926C10.7591 3.06738 11.4427 3.10645 11.9766 3.10645C12.5235 3.10645 13.155 3.06738 13.8711 2.98926ZM17.9141 6.29004C18.4935 6.29004 18.9395 6.40397 19.252 6.63184C19.571 6.85319 19.7305 7.11035 19.7305 7.40332C19.7305 7.5791 19.6621 7.7321 19.5254 7.8623C19.3952 7.99251 19.2357 8.05762 19.0469 8.05762C18.9232 8.05762 18.8158 8.03158 18.7246 7.97949C18.6335 7.9209 18.5033 7.78092 18.334 7.55957C18.015 7.13639 17.6992 6.9248 17.3867 6.9248C17.1198 6.9248 16.8822 7.02897 16.6738 7.2373C16.472 7.43913 16.3711 7.69303 16.3711 7.99902C16.3711 8.26595 16.4362 8.52637 16.5664 8.78027C16.6966 9.02767 17.0254 9.43132 17.5527 9.99121C18.2754 10.7594 18.6367 11.4886 18.6367 12.1787C18.6367 12.8688 18.3438 13.4743 17.7578 13.9951C17.1719 14.5094 16.4167 14.7666 15.4922 14.7666C14.7175 14.7666 14.1413 14.6104 13.7637 14.2979C13.3861 13.9788 13.1973 13.5882 13.1973 13.126C13.1973 12.8981 13.2689 12.7093 13.4121 12.5596C13.5554 12.4098 13.7311 12.335 13.9395 12.335C14.1218 12.335 14.278 12.3968 14.4082 12.5205C14.5384 12.6377 14.6035 12.7777 14.6035 12.9404C14.6035 13.0055 14.597 13.0902 14.584 13.1943C14.5775 13.279 14.5742 13.3506 14.5742 13.4092C14.5742 13.624 14.6654 13.8063 14.8477 13.9561C15.0235 14.1058 15.2643 14.1807 15.5703 14.1807C15.9219 14.1807 16.2311 14.1221 16.4981 14.0049C16.765 13.8812 16.9733 13.6989 17.1231 13.458C17.2728 13.2106 17.3477 12.9665 17.3477 12.7256C17.3477 12.4912 17.2761 12.2568 17.1328 12.0225C16.9961 11.7881 16.6836 11.4007 16.1953 10.8604C15.5182 10.1051 15.1797 9.37923 15.1797 8.68262C15.1797 8.0446 15.4369 7.48796 15.9512 7.0127C16.4655 6.53092 17.1198 6.29004 17.9141 6.29004ZM24.1934 2.10059C24.3952 2.10059 24.5612 2.16895 24.6914 2.30566C24.8216 2.43587 24.8867 2.60514 24.8867 2.81348C24.8867 3.09993 24.7858 3.35384 24.584 3.5752C24.3887 3.79004 24.1673 3.89746 23.9199 3.89746C23.7246 3.89746 23.5619 3.8291 23.4317 3.69238C23.3014 3.55566 23.2363 3.37663 23.2363 3.15527C23.2363 2.8623 23.3307 2.61491 23.5195 2.41309C23.7083 2.20475 23.933 2.10059 24.1934 2.10059ZM20.3457 8.56543L19.916 8.2334C20.5671 7.51725 21.1595 7.00944 21.6934 6.70996C22.2337 6.40397 22.6927 6.25098 23.0703 6.25098C23.2787 6.25098 23.4382 6.29655 23.5488 6.3877C23.6595 6.47884 23.7149 6.60254 23.7149 6.75879C23.7149 6.94759 23.5033 7.74837 23.0801 9.16113C22.39 11.4723 22.0449 12.8656 22.0449 13.3408C22.0449 13.432 22.0677 13.5101 22.1133 13.5752C22.1589 13.6338 22.2077 13.6631 22.2598 13.6631C22.4681 13.6631 23.002 13.2594 23.8613 12.4521L24.2422 12.8232C23.3503 13.6631 22.6992 14.2002 22.2891 14.4346C21.8789 14.6689 21.5436 14.7861 21.2832 14.7861C21.0554 14.7861 20.8731 14.7145 20.7363 14.5713C20.6061 14.4281 20.541 14.2295 20.541 13.9756C20.541 13.1618 21.0293 11.1729 22.0059 8.00879C22.0514 7.85905 22.0742 7.72559 22.0742 7.6084C22.0742 7.47819 22.0156 7.41309 21.8985 7.41309C21.7682 7.41309 21.6185 7.46517 21.4492 7.56934C21.2865 7.6735 20.9186 8.00553 20.3457 8.56543ZM31.4981 6.13379L32.1426 5.99707L31.4102 8.46777C31.1172 9.45085 30.8405 10.5837 30.5801 11.8662C30.4369 12.5628 30.3652 13.012 30.3652 13.2139C30.3652 13.4157 30.4466 13.5166 30.6094 13.5166C30.7136 13.5166 30.8796 13.4482 31.1074 13.3115C31.5111 13.0706 31.8985 12.7712 32.2695 12.4131L32.582 12.7939C31.8399 13.471 31.3646 13.8812 31.1563 14.0244C30.7396 14.3109 30.3425 14.5225 29.9649 14.6592C29.7175 14.7503 29.4766 14.7959 29.2422 14.7959C29.0729 14.7959 28.946 14.7568 28.8613 14.6787C28.7767 14.6006 28.7344 14.4867 28.7344 14.3369C28.7344 14.2393 28.7604 14.1058 28.8125 13.9365L29.2031 12.6084C28.6432 13.279 27.9759 13.8551 27.2012 14.3369C26.7259 14.6364 26.2897 14.7861 25.8926 14.7861C25.515 14.7861 25.2253 14.6527 25.0235 14.3857C24.75 14.0277 24.6133 13.5589 24.6133 12.9795C24.6133 12.2894 24.7956 11.5212 25.1602 10.6748C25.5313 9.82845 26.0261 9.06022 26.6445 8.37012C27.263 7.68001 27.9141 7.1722 28.5977 6.84668C29.125 6.59928 29.8021 6.47559 30.6289 6.47559C30.8373 6.47559 31.0488 6.48861 31.2637 6.51465L31.4981 6.13379ZM30.2871 7.62793C29.9356 7.55632 29.6393 7.52051 29.3985 7.52051C28.8125 7.52051 28.3014 7.68327 27.8652 8.00879C27.4291 8.3278 27.0222 8.90723 26.6445 9.74707C26.2735 10.5804 26.0879 11.4137 26.0879 12.2471C26.0879 12.6898 26.1628 13.0088 26.3125 13.2041C26.4623 13.3994 26.6576 13.4971 26.8985 13.4971C27.3477 13.4971 27.8294 13.2562 28.3438 12.7744C28.8581 12.2861 29.2357 11.5863 29.4766 10.6748L30.2871 7.62793ZM29.1348 14.3564H29.8086C29.3854 15.0205 29.1738 15.6455 29.1738 16.2314C29.1738 16.596 29.291 16.8923 29.5254 17.1201C29.7598 17.3545 30.069 17.4717 30.4531 17.4717C30.6029 17.4717 30.7949 17.4587 31.0293 17.4326L30.7656 18.0186C30.3034 18.1292 29.9063 18.1846 29.5742 18.1846C29.138 18.1846 28.7865 18.0609 28.5195 17.8135C28.2591 17.5661 28.1289 17.2633 28.1289 16.9053C28.1289 16.2087 28.4642 15.359 29.1348 14.3564ZM39.4082 7.31543C38.8158 7.47819 38.2722 7.55957 37.7774 7.55957C37.5039 7.55957 37.2012 7.54329 36.8692 7.51074C36.4069 7.45866 36.0977 7.43262 35.9414 7.43262C35.7461 7.43262 35.5964 7.47819 35.4922 7.56934C35.388 7.66048 35.336 7.77767 35.336 7.9209C35.336 8.14225 35.4531 8.2627 35.6875 8.28223C35.9805 8.31478 36.127 8.44824 36.127 8.68262C36.127 8.79329 36.0814 8.89421 35.9902 8.98535C35.8991 9.06999 35.7949 9.1123 35.6777 9.1123C35.4434 9.1123 35.2253 8.99837 35.0235 8.77051C34.8281 8.53613 34.7305 8.24642 34.7305 7.90137C34.7305 7.45866 34.916 7.0778 35.2871 6.75879C35.6582 6.43978 36.1172 6.28027 36.6641 6.28027C36.9505 6.28027 37.3379 6.31934 37.8262 6.39746C38.6139 6.52116 39.1804 6.58301 39.5254 6.58301C39.877 6.58301 40.2057 6.46582 40.5117 6.23145C40.655 6.12728 40.7722 6.0752 40.8633 6.0752C40.9414 6.0752 41.0065 6.10124 41.0586 6.15332C41.1172 6.19889 41.1465 6.24447 41.1465 6.29004C41.1465 6.35514 41.1107 6.42676 41.0391 6.50488C40.8177 6.77832 40.3132 7.29264 39.5254 8.04785L36.4981 10.9482C35.6126 11.7946 34.877 12.4782 34.291 12.999C34.6621 12.96 34.9518 12.9404 35.1602 12.9404C35.4531 12.9404 35.7201 12.9665 35.961 13.0186C36.2018 13.0641 36.5892 13.1748 37.1231 13.3506C37.8197 13.5915 38.3861 13.7119 38.8223 13.7119C39.0957 13.7119 39.3041 13.6501 39.4473 13.5264C39.597 13.3962 39.6719 13.2334 39.6719 13.0381C39.6719 12.9274 39.6198 12.7712 39.5156 12.5693C39.4245 12.374 39.3789 12.2243 39.3789 12.1201C39.3789 11.9639 39.431 11.8304 39.5352 11.7197C39.6393 11.609 39.7695 11.5537 39.9258 11.5537C40.1146 11.5537 40.2708 11.6318 40.3945 11.7881C40.5248 11.9378 40.5899 12.1331 40.5899 12.374C40.5899 12.7386 40.4564 13.1227 40.1895 13.5264C39.9225 13.9235 39.5873 14.2295 39.1836 14.4443C38.78 14.6592 38.2819 14.7666 37.6895 14.7666C37.2012 14.7666 36.4883 14.6266 35.5508 14.3467C34.7695 14.1188 34.1966 14.0049 33.832 14.0049C33.6107 14.0049 33.3535 14.1221 33.0606 14.3564C32.8913 14.4997 32.7448 14.5713 32.6211 14.5713C32.3802 14.5713 32.2598 14.5127 32.2598 14.3955C32.2598 14.2848 32.3281 14.1514 32.4649 13.9951C32.8294 13.5654 33.7539 12.6768 35.2383 11.3291C36.2409 10.4176 37.1198 9.58757 37.875 8.83887L39.4082 7.31543ZM38.4805 2.87207C38.7539 2.87207 38.985 2.96973 39.1738 3.16504C39.3692 3.35384 39.4668 3.58496 39.4668 3.8584C39.4668 4.13835 39.3692 4.37598 39.1738 4.57129C38.985 4.76009 38.7539 4.85449 38.4805 4.85449C38.207 4.85449 37.9727 4.76009 37.7774 4.57129C37.582 4.37598 37.4844 4.13835 37.4844 3.8584C37.4844 3.58496 37.582 3.35384 37.7774 3.16504C37.9727 2.96973 38.207 2.87207 38.4805 2.87207ZM43.5586 14.5127H42.1035L43.3828 9.19043C44.0013 6.55371 44.405 4.92936 44.5938 4.31738C44.7891 3.7054 45.0202 3.20085 45.2871 2.80371C45.5606 2.40658 45.8991 2.05176 46.3027 1.73926C46.7129 1.42676 47.1524 1.18913 47.6211 1.02637C48.0964 0.857096 48.513 0.772461 48.8711 0.772461C49.2097 0.772461 49.4603 0.837565 49.6231 0.967773C49.7923 1.09798 49.877 1.27051 49.877 1.48535C49.877 1.66764 49.8021 1.82389 49.6524 1.9541C49.5026 2.08431 49.3138 2.14941 49.086 2.14941C48.7995 2.14941 48.3666 2.10059 47.7871 2.00293C47.5983 1.96387 47.4323 1.94434 47.2891 1.94434C47.0873 1.94434 46.8952 2.01595 46.7129 2.15918C46.5371 2.30241 46.3776 2.55957 46.2344 2.93066C46.0977 3.29525 45.9024 4.05697 45.6485 5.21582L44.9551 8.34082C45.5801 7.63118 46.2279 7.08431 46.8985 6.7002C47.4063 6.41374 47.8913 6.27051 48.3535 6.27051C48.6791 6.27051 48.9525 6.39421 49.1738 6.6416C49.4017 6.88249 49.5156 7.18848 49.5156 7.55957C49.5156 8.25618 49.1543 8.87793 48.4317 9.4248C47.709 9.97168 46.6055 10.2646 45.1211 10.3037C45.6224 10.5251 46.0228 10.7692 46.3223 11.0361C46.6218 11.2965 46.9147 11.6611 47.2012 12.1299C47.4942 12.5921 47.8685 13.3701 48.3242 14.4639C48.8646 15.766 49.3659 16.6318 49.8281 17.0615C50.2839 17.4912 50.7852 17.7061 51.332 17.7061C51.6511 17.7061 51.9147 17.6344 52.1231 17.4912C52.3314 17.3545 52.4356 17.2145 52.4356 17.0713C52.4356 16.9801 52.403 16.8564 52.3379 16.7002C52.2663 16.5309 52.2305 16.3877 52.2305 16.2705C52.2305 16.1208 52.2891 15.9873 52.4063 15.8701C52.5235 15.7529 52.6602 15.6943 52.8164 15.6943C52.9987 15.6943 53.155 15.766 53.2852 15.9092C53.4154 16.0589 53.4805 16.2542 53.4805 16.4951C53.4805 16.9639 53.2656 17.3805 52.836 17.7451C52.4063 18.1097 51.8464 18.292 51.1563 18.292C50.4466 18.292 49.8119 18.113 49.252 17.7549C48.6921 17.3968 48.168 16.8239 47.6797 16.0361C47.3998 15.5804 46.9115 14.542 46.2149 12.9209C45.8893 12.1527 45.5964 11.5765 45.336 11.1924C45.1341 10.8929 44.8574 10.5967 44.5059 10.3037L43.5586 14.5127ZM44.584 9.89355C45.4629 9.90007 46.1725 9.81543 46.7129 9.63965C47.2598 9.46387 47.6472 9.22949 47.875 8.93652C48.1094 8.64355 48.2266 8.32454 48.2266 7.97949C48.2266 7.7321 48.1582 7.53353 48.0215 7.38379C47.8913 7.23405 47.7318 7.15918 47.543 7.15918C46.931 7.15918 45.9935 7.84277 44.7305 9.20996L44.584 9.89355ZM55.0137 2.10059C55.2155 2.10059 55.3815 2.16895 55.5117 2.30566C55.6419 2.43587 55.707 2.60514 55.707 2.81348C55.707 3.09993 55.6061 3.35384 55.4043 3.5752C55.209 3.79004 54.9876 3.89746 54.7402 3.89746C54.5449 3.89746 54.3822 3.8291 54.252 3.69238C54.1218 3.55566 54.0567 3.37663 54.0567 3.15527C54.0567 2.8623 54.1511 2.61491 54.3399 2.41309C54.5287 2.20475 54.7533 2.10059 55.0137 2.10059ZM51.166 8.56543L50.7363 8.2334C51.3874 7.51725 51.9798 7.00944 52.5137 6.70996C53.0541 6.40397 53.513 6.25098 53.8906 6.25098C54.099 6.25098 54.2585 6.29655 54.3692 6.3877C54.4798 6.47884 54.5352 6.60254 54.5352 6.75879C54.5352 6.94759 54.3236 7.74837 53.9004 9.16113C53.2103 11.4723 52.8652 12.8656 52.8652 13.3408C52.8652 13.432 52.888 13.5101 52.9336 13.5752C52.9792 13.6338 53.028 13.6631 53.0801 13.6631C53.2884 13.6631 53.8223 13.2594 54.6817 12.4521L55.0625 12.8232C54.1706 13.6631 53.5195 14.2002 53.1094 14.4346C52.6992 14.6689 52.3639 14.7861 52.1035 14.7861C51.8757 14.7861 51.6934 14.7145 51.5567 14.5713C51.4264 14.4281 51.3613 14.2295 51.3613 13.9756C51.3613 13.1618 51.8496 11.1729 52.8262 8.00879C52.8718 7.85905 52.8945 7.72559 52.8945 7.6084C52.8945 7.47819 52.836 7.41309 52.7188 7.41309C52.5886 7.41309 52.4388 7.46517 52.2695 7.56934C52.1068 7.6735 51.7389 8.00553 51.166 8.56543ZM54.5059 17.5498L54.3203 16.915C54.9128 16.4593 55.3685 16.0101 55.6875 15.5674C55.8958 15.2744 56 15.0335 56 14.8447C56 14.6559 55.9219 14.415 55.7656 14.1221C55.6094 13.8226 55.5313 13.5752 55.5313 13.3799C55.5313 13.1325 55.6192 12.9176 55.7949 12.7354C55.9707 12.5531 56.1791 12.4619 56.4199 12.4619C56.6869 12.4619 56.9147 12.5726 57.1035 12.7939C57.2988 13.0088 57.3965 13.2692 57.3965 13.5752C57.3965 13.9268 57.2988 14.3239 57.1035 14.7666C56.9082 15.2158 56.612 15.652 56.2149 16.0752C55.6745 16.6611 55.1048 17.1527 54.5059 17.5498ZM65.9805 14.5127H64.5254L65.8047 9.19043C66.4232 6.55371 66.8268 4.92936 67.0156 4.31738C67.211 3.7054 67.4421 3.20085 67.709 2.80371C67.9824 2.40658 68.321 2.05176 68.7246 1.73926C69.1348 1.42676 69.5742 1.18913 70.043 1.02637C70.5182 0.857096 70.9349 0.772461 71.293 0.772461C71.6315 0.772461 71.8822 0.837565 72.0449 0.967773C72.2142 1.09798 72.2988 1.27051 72.2988 1.48535C72.2988 1.66764 72.224 1.82389 72.0742 1.9541C71.9245 2.08431 71.7357 2.14941 71.5078 2.14941C71.2214 2.14941 70.7884 2.10059 70.209 2.00293C70.0202 1.96387 69.8542 1.94434 69.711 1.94434C69.5091 1.94434 69.3171 2.01595 69.1348 2.15918C68.959 2.30241 68.7995 2.55957 68.6563 2.93066C68.5195 3.29525 68.3242 4.05697 68.0703 5.21582L67.377 8.34082C68.002 7.63118 68.6498 7.08431 69.3203 6.7002C69.8281 6.41374 70.3132 6.27051 70.7754 6.27051C71.1009 6.27051 71.3744 6.39421 71.5957 6.6416C71.8236 6.88249 71.9375 7.18848 71.9375 7.55957C71.9375 8.25618 71.5762 8.87793 70.8535 9.4248C70.1309 9.97168 69.0274 10.2646 67.543 10.3037C68.0443 10.5251 68.4447 10.7692 68.7442 11.0361C69.0436 11.2965 69.3366 11.6611 69.6231 12.1299C69.916 12.5921 70.2904 13.3701 70.7461 14.4639C71.2865 15.766 71.7878 16.6318 72.25 17.0615C72.7057 17.4912 73.207 17.7061 73.7539 17.7061C74.0729 17.7061 74.3366 17.6344 74.5449 17.4912C74.7533 17.3545 74.8574 17.2145 74.8574 17.0713C74.8574 16.9801 74.8249 16.8564 74.7598 16.7002C74.6882 16.5309 74.6524 16.3877 74.6524 16.2705C74.6524 16.1208 74.711 15.9873 74.8281 15.8701C74.9453 15.7529 75.082 15.6943 75.2383 15.6943C75.4206 15.6943 75.5768 15.766 75.707 15.9092C75.8373 16.0589 75.9024 16.2542 75.9024 16.4951C75.9024 16.9639 75.6875 17.3805 75.2578 17.7451C74.8281 18.1097 74.2682 18.292 73.5781 18.292C72.8685 18.292 72.2337 18.113 71.6738 17.7549C71.1139 17.3968 70.5899 16.8239 70.1016 16.0361C69.8216 15.5804 69.3333 14.542 68.6367 12.9209C68.3112 12.1527 68.0182 11.5765 67.7578 11.1924C67.556 10.8929 67.2793 10.5967 66.9277 10.3037L65.9805 14.5127ZM67.0059 9.89355C67.8848 9.90007 68.5944 9.81543 69.1348 9.63965C69.6817 9.46387 70.069 9.22949 70.2969 8.93652C70.5313 8.64355 70.6485 8.32454 70.6485 7.97949C70.6485 7.7321 70.5801 7.53353 70.4434 7.38379C70.3132 7.23405 70.1537 7.15918 69.9649 7.15918C69.3529 7.15918 68.4154 7.84277 67.1524 9.20996L67.0059 9.89355ZM76.0098 4.7959L77.5625 4.2002L76.8594 6.93457H78.8809L78.7246 7.62793H76.7031L75.8438 10.8994C75.5768 11.8825 75.4434 12.5661 75.4434 12.9502C75.4434 13.126 75.4792 13.2529 75.5508 13.3311C75.6289 13.4092 75.7331 13.4482 75.8633 13.4482C76.0651 13.4482 76.3744 13.3278 76.791 13.0869C77.3379 12.7679 77.8587 12.4066 78.3535 12.0029L78.7246 12.4521C77.2988 13.5264 76.3451 14.1839 75.8633 14.4248C75.3815 14.6657 74.9942 14.7861 74.7012 14.7861C74.4603 14.7861 74.2682 14.6982 74.125 14.5225C73.9883 14.3467 73.9199 14.0602 73.9199 13.6631C73.9199 13.1943 74.0436 12.4782 74.291 11.5146L75.2969 7.62793H73.7149L73.8906 6.93457H75.4629L76.0098 4.7959ZM84.5254 6.2998C85.1634 6.2998 85.694 6.55371 86.1172 7.06152C86.5404 7.56934 86.752 8.27572 86.752 9.18066C86.752 10.626 86.2442 11.9248 85.2285 13.0771C84.2129 14.223 83.1387 14.7959 82.0059 14.7959C81.3093 14.7959 80.7461 14.568 80.3164 14.1123C79.8932 13.6566 79.6817 13.0348 79.6817 12.2471C79.6817 10.8799 80.0723 9.61686 80.8535 8.45801C81.8366 7.01921 83.0606 6.2998 84.5254 6.2998ZM83.6953 7.03223C83.1419 7.03223 82.6048 7.42936 82.084 8.22363C81.5697 9.01139 81.3125 10.1019 81.3125 11.4951C81.3125 12.3415 81.472 13.0088 81.791 13.4971C82.0254 13.8551 82.3379 14.0342 82.7285 14.0342C83.2754 14.0342 83.7735 13.6956 84.2227 13.0186C84.7956 12.1396 85.082 11.0492 85.082 9.74707C85.082 8.77051 84.9486 8.07389 84.6817 7.65723C84.4212 7.24056 84.0925 7.03223 83.6953 7.03223ZM85.5508 2.27637H87.4063L84.0957 5.1084H83.5195L85.5508 2.27637ZM89.4961 14.5127H88.041L88.7246 11.8857C89.0567 10.5967 89.3464 9.37272 89.5938 8.21387C89.6524 7.92741 89.6817 7.74837 89.6817 7.67676C89.6817 7.52051 89.61 7.44238 89.4668 7.44238C89.3692 7.44238 89.2194 7.51074 89.0176 7.64746C88.8158 7.77767 88.4512 8.10645 87.9238 8.63379L87.6211 8.29199C88.2461 7.62142 88.8679 7.12012 89.4863 6.78809C90.1113 6.44954 90.5899 6.28027 90.9219 6.28027C91.0391 6.28027 91.1302 6.30957 91.1953 6.36816C91.2669 6.42025 91.3027 6.48861 91.3027 6.57324C91.3027 6.65788 91.2604 6.88249 91.1758 7.24707L90.7559 8.99512C91.4134 7.95996 92.1556 7.07454 92.9824 6.33887C93.3796 5.9873 93.7116 5.81152 93.9785 5.81152C94.1738 5.81152 94.3366 5.87663 94.4668 6.00684C94.597 6.13053 94.6621 6.27702 94.6621 6.44629C94.6621 6.62207 94.597 6.77181 94.4668 6.89551C94.3431 7.01921 94.0274 7.16569 93.5195 7.33496C93.0378 7.49772 92.6439 7.69303 92.3379 7.9209C92.0384 8.14876 91.7064 8.49707 91.3418 8.96582C90.9837 9.43457 90.7331 9.84473 90.5899 10.1963C90.4466 10.5413 90.2285 11.3486 89.9356 12.6182L89.4961 14.5127ZM98.8027 12.0615L99.125 12.4912C97.53 14.0081 96.1628 14.7666 95.0235 14.7666C94.5612 14.7666 94.2064 14.6104 93.959 14.2979C93.7181 13.9854 93.5977 13.484 93.5977 12.7939C93.5977 11.4007 94.0208 10.014 94.8672 8.63379C95.8177 7.06478 96.9538 6.28027 98.2754 6.28027C98.7376 6.28027 99.0892 6.39746 99.3301 6.63184C99.5775 6.8597 99.7012 7.17546 99.7012 7.5791C99.7012 8.00228 99.5547 8.41895 99.2617 8.8291C98.9688 9.23926 98.4447 9.66569 97.6895 10.1084C97.3119 10.3232 96.5046 10.7106 95.2676 11.2705C95.209 11.6221 95.1797 11.9574 95.1797 12.2764C95.1797 12.7386 95.2513 13.0609 95.3945 13.2432C95.5443 13.4255 95.7591 13.5166 96.0391 13.5166C96.306 13.5166 96.599 13.4417 96.918 13.292C97.3477 13.0902 97.9759 12.68 98.8027 12.0615ZM95.3848 10.6455C96.433 10.1768 97.2207 9.6722 97.7481 9.13184C98.1061 8.75423 98.2852 8.37988 98.2852 8.00879C98.2852 7.72884 98.2103 7.50749 98.0606 7.34473C97.9173 7.17546 97.7285 7.09082 97.4942 7.09082C97.2533 7.09082 97.0189 7.18197 96.791 7.36426C96.485 7.60514 96.2279 7.96973 96.0195 8.45801C95.7201 9.17415 95.5085 9.90332 95.3848 10.6455ZM105.023 8.72168L104.643 8.33105C105.235 7.62142 105.824 7.09733 106.41 6.75879C106.996 6.42025 107.504 6.25098 107.934 6.25098C108.096 6.25098 108.223 6.29329 108.314 6.37793C108.412 6.45605 108.461 6.57324 108.461 6.72949C108.461 6.91829 108.438 7.11361 108.393 7.31543C108.354 7.51074 108.223 7.97949 108.002 8.72168C108.998 7.72559 109.678 7.11035 110.043 6.87598C110.655 6.47884 111.215 6.28027 111.723 6.28027C112.055 6.28027 112.335 6.43652 112.563 6.74902C112.79 7.06152 112.904 7.53353 112.904 8.16504C112.904 9.74056 112.413 11.238 111.43 12.6572C110.447 14.0765 109.359 14.7861 108.168 14.7861C107.699 14.7861 107.23 14.6592 106.762 14.4053L105.932 17.6279C105.88 17.8232 105.854 17.9827 105.854 18.1064C105.854 18.3473 105.945 18.5199 106.127 18.624C106.407 18.7868 106.996 18.9202 107.895 19.0244L107.768 19.5127C106.719 19.4281 105.896 19.3857 105.297 19.3857C104.678 19.3857 103.878 19.4281 102.895 19.5127L103.021 19.0244C103.516 18.9723 103.874 18.8356 104.096 18.6143C104.324 18.3929 104.506 17.999 104.643 17.4326L106.41 10.0205C106.742 8.6403 106.908 7.87207 106.908 7.71582C106.908 7.54655 106.827 7.46191 106.664 7.46191C106.378 7.46191 105.831 7.88184 105.023 8.72168ZM106.996 13.3311C107.51 13.8454 108.038 14.1025 108.578 14.1025C109.359 14.1025 110.043 13.4938 110.629 12.2764C111.221 11.0589 111.518 9.87077 111.518 8.71191C111.518 8.34082 111.433 8.06087 111.264 7.87207C111.101 7.67676 110.88 7.5791 110.6 7.5791C110.287 7.5791 109.936 7.7321 109.545 8.03809C108.939 8.51335 108.477 8.98535 108.158 9.4541C107.93 9.79264 107.716 10.3786 107.514 11.2119L106.996 13.3311ZM115.492 14.5127H114.037L114.721 11.8857C115.053 10.5967 115.342 9.37272 115.59 8.21387C115.648 7.92741 115.678 7.74837 115.678 7.67676C115.678 7.52051 115.606 7.44238 115.463 7.44238C115.365 7.44238 115.216 7.51074 115.014 7.64746C114.812 7.77767 114.447 8.10645 113.92 8.63379L113.617 8.29199C114.242 7.62142 114.864 7.12012 115.482 6.78809C116.107 6.44954 116.586 6.28027 116.918 6.28027C117.035 6.28027 117.126 6.30957 117.191 6.36816C117.263 6.42025 117.299 6.48861 117.299 6.57324C117.299 6.65788 117.257 6.88249 117.172 7.24707L116.752 8.99512C117.41 7.95996 118.152 7.07454 118.979 6.33887C119.376 5.9873 119.708 5.81152 119.975 5.81152C120.17 5.81152 120.333 5.87663 120.463 6.00684C120.593 6.13053 120.658 6.27702 120.658 6.44629C120.658 6.62207 120.593 6.77181 120.463 6.89551C120.339 7.01921 120.023 7.16569 119.516 7.33496C119.034 7.49772 118.64 7.69303 118.334 7.9209C118.035 8.14876 117.702 8.49707 117.338 8.96582C116.98 9.43457 116.729 9.84473 116.586 10.1963C116.443 10.5413 116.225 11.3486 115.932 12.6182L115.492 14.5127ZM125.854 7.31543C125.261 7.47819 124.717 7.55957 124.223 7.55957C123.949 7.55957 123.646 7.54329 123.314 7.51074C122.852 7.45866 122.543 7.43262 122.387 7.43262C122.191 7.43262 122.042 7.47819 121.938 7.56934C121.833 7.66048 121.781 7.77767 121.781 7.9209C121.781 8.14225 121.898 8.2627 122.133 8.28223C122.426 8.31478 122.572 8.44824 122.572 8.68262C122.572 8.79329 122.527 8.89421 122.436 8.98535C122.344 9.06999 122.24 9.1123 122.123 9.1123C121.889 9.1123 121.671 8.99837 121.469 8.77051C121.273 8.53613 121.176 8.24642 121.176 7.90137C121.176 7.45866 121.361 7.0778 121.732 6.75879C122.104 6.43978 122.563 6.28027 123.109 6.28027C123.396 6.28027 123.783 6.31934 124.271 6.39746C125.059 6.52116 125.626 6.58301 125.971 6.58301C126.322 6.58301 126.651 6.46582 126.957 6.23145C127.1 6.12728 127.217 6.0752 127.309 6.0752C127.387 6.0752 127.452 6.10124 127.504 6.15332C127.563 6.19889 127.592 6.24447 127.592 6.29004C127.592 6.35514 127.556 6.42676 127.484 6.50488C127.263 6.77832 126.758 7.29264 125.971 8.04785L122.943 10.9482C122.058 11.7946 121.322 12.4782 120.736 12.999C121.107 12.96 121.397 12.9404 121.605 12.9404C121.898 12.9404 122.165 12.9665 122.406 13.0186C122.647 13.0641 123.035 13.1748 123.568 13.3506C124.265 13.5915 124.831 13.7119 125.268 13.7119C125.541 13.7119 125.749 13.6501 125.893 13.5264C126.042 13.3962 126.117 13.2334 126.117 13.0381C126.117 12.9274 126.065 12.7712 125.961 12.5693C125.87 12.374 125.824 12.2243 125.824 12.1201C125.824 11.9639 125.876 11.8304 125.98 11.7197C126.085 11.609 126.215 11.5537 126.371 11.5537C126.56 11.5537 126.716 11.6318 126.84 11.7881C126.97 11.9378 127.035 12.1331 127.035 12.374C127.035 12.7386 126.902 13.1227 126.635 13.5264C126.368 13.9235 126.033 14.2295 125.629 14.4443C125.225 14.6592 124.727 14.7666 124.135 14.7666C123.646 14.7666 122.934 14.6266 121.996 14.3467C121.215 14.1188 120.642 14.0049 120.277 14.0049C120.056 14.0049 119.799 14.1221 119.506 14.3564C119.337 14.4997 119.19 14.5713 119.066 14.5713C118.826 14.5713 118.705 14.5127 118.705 14.3955C118.705 14.2848 118.773 14.1514 118.91 13.9951C119.275 13.5654 120.199 12.6768 121.684 11.3291C122.686 10.4176 123.565 9.58757 124.32 8.83887L125.854 7.31543ZM133.607 12.0615L133.93 12.4912C132.335 14.0081 130.967 14.7666 129.828 14.7666C129.366 14.7666 129.011 14.6104 128.764 14.2979C128.523 13.9854 128.402 13.484 128.402 12.7939C128.402 11.4007 128.826 10.014 129.672 8.63379C130.622 7.06478 131.758 6.28027 133.08 6.28027C133.542 6.28027 133.894 6.39746 134.135 6.63184C134.382 6.8597 134.506 7.17546 134.506 7.5791C134.506 8.00228 134.359 8.41895 134.066 8.8291C133.773 9.23926 133.249 9.66569 132.494 10.1084C132.117 10.3232 131.309 10.7106 130.072 11.2705C130.014 11.6221 129.984 11.9574 129.984 12.2764C129.984 12.7386 130.056 13.0609 130.199 13.2432C130.349 13.4255 130.564 13.5166 130.844 13.5166C131.111 13.5166 131.404 13.4417 131.723 13.292C132.152 13.0902 132.781 12.68 133.607 12.0615ZM130.189 10.6455C131.238 10.1768 132.025 9.6722 132.553 9.13184C132.911 8.75423 133.09 8.37988 133.09 8.00879C133.09 7.72884 133.015 7.50749 132.865 7.34473C132.722 7.17546 132.533 7.09082 132.299 7.09082C132.058 7.09082 131.824 7.18197 131.596 7.36426C131.29 7.60514 131.033 7.96973 130.824 8.45801C130.525 9.17415 130.313 9.90332 130.189 10.6455ZM140.648 12.3936L140.854 12.96C139.304 14.1774 137.995 14.7861 136.928 14.7861C136.361 14.7861 135.948 14.5843 135.688 14.1807C135.434 13.777 135.307 13.266 135.307 12.6475C135.307 11.6188 135.58 10.5609 136.127 9.47363C136.674 8.38639 137.338 7.55306 138.119 6.97363C138.731 6.52441 139.421 6.2998 140.189 6.2998C140.671 6.2998 141.036 6.39095 141.283 6.57324C141.531 6.75553 141.654 6.97689 141.654 7.2373C141.654 7.43913 141.589 7.60514 141.459 7.73535C141.329 7.85905 141.146 7.9209 140.912 7.9209C140.684 7.9209 140.391 7.81673 140.033 7.6084C139.662 7.38704 139.353 7.27637 139.105 7.27637C138.786 7.27637 138.467 7.42285 138.148 7.71582C137.836 8.00228 137.536 8.56217 137.25 9.39551C136.964 10.2288 136.82 11.0654 136.82 11.9053C136.82 12.5238 136.941 13.0023 137.182 13.3408C137.357 13.6012 137.605 13.7314 137.924 13.7314C138.686 13.7314 139.594 13.2855 140.648 12.3936ZM148.256 7.31543C147.663 7.47819 147.12 7.55957 146.625 7.55957C146.352 7.55957 146.049 7.54329 145.717 7.51074C145.255 7.45866 144.945 7.43262 144.789 7.43262C144.594 7.43262 144.444 7.47819 144.34 7.56934C144.236 7.66048 144.184 7.77767 144.184 7.9209C144.184 8.14225 144.301 8.2627 144.535 8.28223C144.828 8.31478 144.975 8.44824 144.975 8.68262C144.975 8.79329 144.929 8.89421 144.838 8.98535C144.747 9.06999 144.643 9.1123 144.525 9.1123C144.291 9.1123 144.073 8.99837 143.871 8.77051C143.676 8.53613 143.578 8.24642 143.578 7.90137C143.578 7.45866 143.764 7.0778 144.135 6.75879C144.506 6.43978 144.965 6.28027 145.512 6.28027C145.798 6.28027 146.186 6.31934 146.674 6.39746C147.462 6.52116 148.028 6.58301 148.373 6.58301C148.725 6.58301 149.053 6.46582 149.359 6.23145C149.503 6.12728 149.62 6.0752 149.711 6.0752C149.789 6.0752 149.854 6.10124 149.906 6.15332C149.965 6.19889 149.994 6.24447 149.994 6.29004C149.994 6.35514 149.958 6.42676 149.887 6.50488C149.665 6.77832 149.161 7.29264 148.373 8.04785L145.346 10.9482C144.46 11.7946 143.725 12.4782 143.139 12.999C143.51 12.96 143.799 12.9404 144.008 12.9404C144.301 12.9404 144.568 12.9665 144.809 13.0186C145.049 13.0641 145.437 13.1748 145.971 13.3506C146.667 13.5915 147.234 13.7119 147.67 13.7119C147.943 13.7119 148.152 13.6501 148.295 13.5264C148.445 13.3962 148.52 13.2334 148.52 13.0381C148.52 12.9274 148.467 12.7712 148.363 12.5693C148.272 12.374 148.227 12.2243 148.227 12.1201C148.227 11.9639 148.279 11.8304 148.383 11.7197C148.487 11.609 148.617 11.5537 148.773 11.5537C148.962 11.5537 149.119 11.6318 149.242 11.7881C149.372 11.9378 149.438 12.1331 149.438 12.374C149.438 12.7386 149.304 13.1227 149.037 13.5264C148.77 13.9235 148.435 14.2295 148.031 14.4443C147.628 14.6592 147.13 14.7666 146.537 14.7666C146.049 14.7666 145.336 14.6266 144.398 14.3467C143.617 14.1188 143.044 14.0049 142.68 14.0049C142.458 14.0049 142.201 14.1221 141.908 14.3564C141.739 14.4997 141.592 14.5713 141.469 14.5713C141.228 14.5713 141.107 14.5127 141.107 14.3955C141.107 14.2848 141.176 14.1514 141.313 13.9951C141.677 13.5654 142.602 12.6768 144.086 11.3291C145.089 10.4176 145.967 9.58757 146.723 8.83887L148.256 7.31543ZM150.863 8.28223L150.551 7.82324L151.273 7.33496C151.977 6.85319 152.471 6.54395 152.758 6.40723C152.921 6.3291 153.07 6.29004 153.207 6.29004C153.344 6.29004 153.474 6.36816 153.598 6.52441C154.171 7.24707 154.652 8.22363 155.043 9.4541C155.434 10.6781 155.629 11.8662 155.629 13.0186C155.629 13.1683 155.622 13.3962 155.609 13.7021C156.71 11.6774 157.26 10.0693 157.26 8.87793C157.26 8.63053 157.204 8.30176 157.094 7.8916C156.977 7.43587 156.918 7.11035 156.918 6.91504C156.918 6.72624 156.977 6.56999 157.094 6.44629C157.217 6.32259 157.37 6.26074 157.553 6.26074C157.781 6.26074 157.963 6.34863 158.1 6.52441C158.243 6.7002 158.314 6.95085 158.314 7.27637C158.314 8.11621 158.122 9.16439 157.738 10.4209C157.354 11.6709 156.749 13.0186 155.922 14.4639C155.102 15.9027 154.35 16.9704 153.666 17.667C152.989 18.3701 152.331 18.8714 151.693 19.1709C151.062 19.4769 150.463 19.6299 149.896 19.6299C149.467 19.6299 149.145 19.5485 148.93 19.3857C148.708 19.2295 148.598 19.0407 148.598 18.8193C148.598 18.624 148.682 18.4548 148.852 18.3115C149.021 18.1748 149.249 18.1064 149.535 18.1064C149.757 18.1064 150.059 18.1488 150.443 18.2334C150.854 18.3245 151.133 18.3701 151.283 18.3701C151.68 18.3701 152.1 18.2041 152.543 17.8721C153.148 17.4163 153.627 16.8727 153.979 16.2412C154.337 15.6097 154.516 14.9717 154.516 14.3271C154.516 13.4222 154.382 12.335 154.115 11.0654C153.855 9.7959 153.484 8.82585 153.002 8.15527C152.761 7.81022 152.504 7.6377 152.23 7.6377C151.911 7.6377 151.456 7.85254 150.863 8.28223ZM161.635 4.7959L163.188 4.2002L162.484 6.93457H164.506L164.35 7.62793H162.328L161.469 10.8994C161.202 11.8825 161.068 12.5661 161.068 12.9502C161.068 13.126 161.104 13.2529 161.176 13.3311C161.254 13.4092 161.358 13.4482 161.488 13.4482C161.69 13.4482 161.999 13.3278 162.416 13.0869C162.963 12.7679 163.484 12.4066 163.979 12.0029L164.35 12.4521C162.924 13.5264 161.97 14.1839 161.488 14.4248C161.007 14.6657 160.619 14.7861 160.326 14.7861C160.085 14.7861 159.893 14.6982 159.75 14.5225C159.613 14.3467 159.545 14.0602 159.545 13.6631C159.545 13.1943 159.669 12.4782 159.916 11.5146L160.922 7.62793H159.34L159.516 6.93457H161.088L161.635 4.7959ZM171.967 6.13379L172.611 5.99707L171.879 8.46777C171.586 9.45085 171.309 10.5837 171.049 11.8662C170.906 12.5628 170.834 13.012 170.834 13.2139C170.834 13.4157 170.915 13.5166 171.078 13.5166C171.182 13.5166 171.348 13.4482 171.576 13.3115C171.98 13.0706 172.367 12.7712 172.738 12.4131L173.051 12.7939C172.309 13.471 171.833 13.8812 171.625 14.0244C171.208 14.3109 170.811 14.5225 170.434 14.6592C170.186 14.7503 169.945 14.7959 169.711 14.7959C169.542 14.7959 169.415 14.7568 169.33 14.6787C169.245 14.6006 169.203 14.4867 169.203 14.3369C169.203 14.2393 169.229 14.1058 169.281 13.9365L169.672 12.6084C169.112 13.279 168.445 13.8551 167.67 14.3369C167.195 14.6364 166.758 14.7861 166.361 14.7861C165.984 14.7861 165.694 14.6527 165.492 14.3857C165.219 14.0277 165.082 13.5589 165.082 12.9795C165.082 12.2894 165.264 11.5212 165.629 10.6748C166 9.82845 166.495 9.06022 167.113 8.37012C167.732 7.68001 168.383 7.1722 169.066 6.84668C169.594 6.59928 170.271 6.47559 171.098 6.47559C171.306 6.47559 171.518 6.48861 171.732 6.51465L171.967 6.13379ZM170.756 7.62793C170.404 7.55632 170.108 7.52051 169.867 7.52051C169.281 7.52051 168.77 7.68327 168.334 8.00879C167.898 8.3278 167.491 8.90723 167.113 9.74707C166.742 10.5804 166.557 11.4137 166.557 12.2471C166.557 12.6898 166.632 13.0088 166.781 13.2041C166.931 13.3994 167.126 13.4971 167.367 13.4971C167.816 13.4971 168.298 13.2562 168.813 12.7744C169.327 12.2861 169.704 11.5863 169.945 10.6748L170.756 7.62793ZM177.035 8.38965L176.605 10.1865L175.961 13.0088C175.915 13.1976 175.893 13.3311 175.893 13.4092C175.893 13.611 175.971 13.7119 176.127 13.7119C176.244 13.7119 176.378 13.6696 176.527 13.585C176.736 13.4678 177.1 13.1911 177.621 12.7549C178.012 12.4359 178.259 12.2373 178.363 12.1592L178.695 12.5107C178.194 13.0837 177.595 13.6077 176.898 14.083C176.202 14.5518 175.632 14.7861 175.189 14.7861C174.988 14.7861 174.818 14.708 174.682 14.5518C174.551 14.402 174.486 14.1969 174.486 13.9365C174.486 13.4157 174.688 12.3317 175.092 10.6846L175.395 9.49316L173.324 10.8701L173.529 9.99121L175.609 8.60449L176.156 6.39746C176.56 4.75033 176.866 3.71842 177.074 3.30176C177.445 2.54655 178.012 1.93457 178.773 1.46582C179.542 0.99056 180.339 0.75293 181.166 0.75293C181.446 0.75293 181.664 0.818034 181.82 0.948242C181.977 1.07845 182.055 1.24121 182.055 1.43652C182.055 1.62533 181.973 1.79134 181.811 1.93457C181.648 2.0778 181.43 2.14941 181.156 2.14941C180.961 2.14941 180.681 2.11686 180.316 2.05176C180.01 1.99967 179.724 1.97363 179.457 1.97363C179.184 1.97363 178.979 2.02897 178.842 2.13965C178.66 2.2959 178.494 2.61165 178.344 3.08691C178.201 3.55566 177.947 4.55827 177.582 6.09473L177.24 7.51074L180.209 5.52832L179.994 6.40723L177.035 8.38965ZM184.818 12.0615L185.141 12.4912C183.546 14.0081 182.178 14.7666 181.039 14.7666C180.577 14.7666 180.222 14.6104 179.975 14.2979C179.734 13.9854 179.613 13.484 179.613 12.7939C179.613 11.4007 180.036 10.014 180.883 8.63379C181.833 7.06478 182.969 6.28027 184.291 6.28027C184.753 6.28027 185.105 6.39746 185.346 6.63184C185.593 6.8597 185.717 7.17546 185.717 7.5791C185.717 8.00228 185.57 8.41895 185.277 8.8291C184.984 9.23926 184.46 9.66569 183.705 10.1084C183.327 10.3232 182.52 10.7106 181.283 11.2705C181.225 11.6221 181.195 11.9574 181.195 12.2764C181.195 12.7386 181.267 13.0609 181.41 13.2432C181.56 13.4255 181.775 13.5166 182.055 13.5166C182.322 13.5166 182.615 13.4417 182.934 13.292C183.363 13.0902 183.992 12.68 184.818 12.0615ZM181.4 10.6455C182.449 10.1768 183.236 9.6722 183.764 9.13184C184.122 8.75423 184.301 8.37988 184.301 8.00879C184.301 7.72884 184.226 7.50749 184.076 7.34473C183.933 7.17546 183.744 7.09082 183.51 7.09082C183.269 7.09082 183.035 7.18197 182.807 7.36426C182.501 7.60514 182.244 7.96973 182.035 8.45801C181.736 9.17415 181.524 9.90332 181.4 10.6455ZM186.762 8.5459L186.469 8.15527C187.113 7.51074 187.725 7.03548 188.305 6.72949C188.884 6.4235 189.34 6.27051 189.672 6.27051C189.809 6.27051 189.91 6.2998 189.975 6.3584C190.046 6.41699 190.082 6.49837 190.082 6.60254C190.082 6.73275 190.03 6.9834 189.926 7.35449C189.776 7.90137 189.672 8.33431 189.613 8.65332C191.176 7.06478 192.37 6.27051 193.197 6.27051C193.412 6.27051 193.575 6.3291 193.686 6.44629C193.796 6.56348 193.852 6.74902 193.852 7.00293C193.852 7.27637 193.754 7.74186 193.559 8.39941C194.301 7.62467 194.945 7.0778 195.492 6.75879C196.039 6.43327 196.466 6.27051 196.771 6.27051C197.045 6.27051 197.257 6.34863 197.406 6.50488C197.556 6.66113 197.631 6.90202 197.631 7.22754C197.631 7.42285 197.598 7.65397 197.533 7.9209C197.468 8.18783 197.23 9.00163 196.82 10.3623C196.306 12.0485 196.049 13.0544 196.049 13.3799C196.049 13.6012 196.14 13.7119 196.322 13.7119C196.446 13.7119 196.566 13.6729 196.684 13.5947C197.068 13.3213 197.462 12.9827 197.865 12.5791L198.188 12.9307C198.051 13.0413 197.794 13.2692 197.416 13.6143C196.895 14.083 196.537 14.376 196.342 14.4932C195.964 14.7145 195.645 14.8252 195.385 14.8252C195.189 14.8252 195.017 14.7275 194.867 14.5322C194.717 14.3434 194.643 14.0798 194.643 13.7412C194.643 13.4287 194.688 13.0641 194.779 12.6475C194.87 12.2243 195.137 11.2803 195.58 9.81543C195.912 8.71517 196.078 8.04785 196.078 7.81348C196.078 7.59212 195.98 7.48145 195.785 7.48145C195.622 7.48145 195.404 7.56283 195.131 7.72559C194.571 8.06413 194.102 8.47754 193.725 8.96582C193.464 9.30436 193.236 9.84147 193.041 10.5771C192.605 12.1852 192.279 13.4971 192.064 14.5127H190.678L192.133 8.5459C192.237 8.11621 192.289 7.86882 192.289 7.80371C192.289 7.69954 192.263 7.62142 192.211 7.56934C192.159 7.51074 192.084 7.48145 191.986 7.48145C191.811 7.48145 191.537 7.61816 191.166 7.8916C190.521 8.35384 190.056 8.80306 189.77 9.23926C189.49 9.66895 189.249 10.3265 189.047 11.2119L188.295 14.5127H186.898L188.002 9.85449C188.327 8.50684 188.49 7.77441 188.49 7.65723C188.49 7.50749 188.432 7.43262 188.314 7.43262C188.061 7.43262 187.543 7.80371 186.762 8.5459ZM197.748 17.5498L197.563 16.915C198.155 16.4593 198.611 16.0101 198.93 15.5674C199.138 15.2744 199.242 15.0335 199.242 14.8447C199.242 14.6559 199.164 14.415 199.008 14.1221C198.852 13.8226 198.773 13.5752 198.773 13.3799C198.773 13.1325 198.861 12.9176 199.037 12.7354C199.213 12.5531 199.421 12.4619 199.662 12.4619C199.929 12.4619 200.157 12.5726 200.346 12.7939C200.541 13.0088 200.639 13.2692 200.639 13.5752C200.639 13.9268 200.541 14.3239 200.346 14.7666C200.15 15.2158 199.854 15.652 199.457 16.0752C198.917 16.6611 198.347 17.1527 197.748 17.5498ZM209.223 14.5127H207.768L209.047 9.19043C209.665 6.55371 210.069 4.92936 210.258 4.31738C210.453 3.7054 210.684 3.20085 210.951 2.80371C211.225 2.40658 211.563 2.05176 211.967 1.73926C212.377 1.42676 212.816 1.18913 213.285 1.02637C213.76 0.857096 214.177 0.772461 214.535 0.772461C214.874 0.772461 215.124 0.837565 215.287 0.967773C215.456 1.09798 215.541 1.27051 215.541 1.48535C215.541 1.66764 215.466 1.82389 215.316 1.9541C215.167 2.08431 214.978 2.14941 214.75 2.14941C214.464 2.14941 214.031 2.10059 213.451 2.00293C213.262 1.96387 213.096 1.94434 212.953 1.94434C212.751 1.94434 212.559 2.01595 212.377 2.15918C212.201 2.30241 212.042 2.55957 211.898 2.93066C211.762 3.29525 211.566 4.05697 211.313 5.21582L210.619 8.34082C211.244 7.63118 211.892 7.08431 212.563 6.7002C213.07 6.41374 213.555 6.27051 214.018 6.27051C214.343 6.27051 214.617 6.39421 214.838 6.6416C215.066 6.88249 215.18 7.18848 215.18 7.55957C215.18 8.25618 214.818 8.87793 214.096 9.4248C213.373 9.97168 212.27 10.2646 210.785 10.3037C211.286 10.5251 211.687 10.7692 211.986 11.0361C212.286 11.2965 212.579 11.6611 212.865 12.1299C213.158 12.5921 213.533 13.3701 213.988 14.4639C214.529 15.766 215.03 16.6318 215.492 17.0615C215.948 17.4912 216.449 17.7061 216.996 17.7061C217.315 17.7061 217.579 17.6344 217.787 17.4912C217.995 17.3545 218.1 17.2145 218.1 17.0713C218.1 16.9801 218.067 16.8564 218.002 16.7002C217.93 16.5309 217.895 16.3877 217.895 16.2705C217.895 16.1208 217.953 15.9873 218.07 15.8701C218.188 15.7529 218.324 15.6943 218.48 15.6943C218.663 15.6943 218.819 15.766 218.949 15.9092C219.079 16.0589 219.145 16.2542 219.145 16.4951C219.145 16.9639 218.93 17.3805 218.5 17.7451C218.07 18.1097 217.51 18.292 216.82 18.292C216.111 18.292 215.476 18.113 214.916 17.7549C214.356 17.3968 213.832 16.8239 213.344 16.0361C213.064 15.5804 212.576 14.542 211.879 12.9209C211.553 12.1527 211.26 11.5765 211 11.1924C210.798 10.8929 210.521 10.5967 210.17 10.3037L209.223 14.5127ZM210.248 9.89355C211.127 9.90007 211.837 9.81543 212.377 9.63965C212.924 9.46387 213.311 9.22949 213.539 8.93652C213.773 8.64355 213.891 8.32454 213.891 7.97949C213.891 7.7321 213.822 7.53353 213.686 7.38379C213.555 7.23405 213.396 7.15918 213.207 7.15918C212.595 7.15918 211.658 7.84277 210.395 9.20996L210.248 9.89355ZM219.252 4.7959L220.805 4.2002L220.102 6.93457H222.123L221.967 7.62793H219.945L219.086 10.8994C218.819 11.8825 218.686 12.5661 218.686 12.9502C218.686 13.126 218.721 13.2529 218.793 13.3311C218.871 13.4092 218.975 13.4482 219.105 13.4482C219.307 13.4482 219.617 13.3278 220.033 13.0869C220.58 12.7679 221.101 12.4066 221.596 12.0029L221.967 12.4521C220.541 13.5264 219.587 14.1839 219.105 14.4248C218.624 14.6657 218.236 14.7861 217.943 14.7861C217.702 14.7861 217.51 14.6982 217.367 14.5225C217.23 14.3467 217.162 14.0602 217.162 13.6631C217.162 13.1943 217.286 12.4782 217.533 11.5146L218.539 7.62793H216.957L217.133 6.93457H218.705L219.252 4.7959ZM227.768 6.2998C228.406 6.2998 228.936 6.55371 229.359 7.06152C229.783 7.56934 229.994 8.27572 229.994 9.18066C229.994 10.626 229.486 11.9248 228.471 13.0771C227.455 14.223 226.381 14.7959 225.248 14.7959C224.551 14.7959 223.988 14.568 223.559 14.1123C223.135 13.6566 222.924 13.0348 222.924 12.2471C222.924 10.8799 223.314 9.61686 224.096 8.45801C225.079 7.01921 226.303 6.2998 227.768 6.2998ZM226.938 7.03223C226.384 7.03223 225.847 7.42936 225.326 8.22363C224.812 9.01139 224.555 10.1019 224.555 11.4951C224.555 12.3415 224.714 13.0088 225.033 13.4971C225.268 13.8551 225.58 14.0342 225.971 14.0342C226.518 14.0342 227.016 13.6956 227.465 13.0186C228.038 12.1396 228.324 11.0492 228.324 9.74707C228.324 8.77051 228.191 8.07389 227.924 7.65723C227.663 7.24056 227.335 7.03223 226.938 7.03223ZM228.793 2.27637H230.648L227.338 5.1084H226.762L228.793 2.27637ZM232.738 14.5127H231.283L231.967 11.8857C232.299 10.5967 232.589 9.37272 232.836 8.21387C232.895 7.92741 232.924 7.74837 232.924 7.67676C232.924 7.52051 232.852 7.44238 232.709 7.44238C232.611 7.44238 232.462 7.51074 232.26 7.64746C232.058 7.77767 231.693 8.10645 231.166 8.63379L230.863 8.29199C231.488 7.62142 232.11 7.12012 232.729 6.78809C233.354 6.44954 233.832 6.28027 234.164 6.28027C234.281 6.28027 234.372 6.30957 234.438 6.36816C234.509 6.42025 234.545 6.48861 234.545 6.57324C234.545 6.65788 234.503 6.88249 234.418 7.24707L233.998 8.99512C234.656 7.95996 235.398 7.07454 236.225 6.33887C236.622 5.9873 236.954 5.81152 237.221 5.81152C237.416 5.81152 237.579 5.87663 237.709 6.00684C237.839 6.13053 237.904 6.27702 237.904 6.44629C237.904 6.62207 237.839 6.77181 237.709 6.89551C237.585 7.01921 237.27 7.16569 236.762 7.33496C236.28 7.49772 235.886 7.69303 235.58 7.9209C235.281 8.14876 234.949 8.49707 234.584 8.96582C234.226 9.43457 233.975 9.84473 233.832 10.1963C233.689 10.5413 233.471 11.3486 233.178 12.6182L232.738 14.5127ZM242.045 12.0615L242.367 12.4912C240.772 14.0081 239.405 14.7666 238.266 14.7666C237.803 14.7666 237.449 14.6104 237.201 14.2979C236.96 13.9854 236.84 13.484 236.84 12.7939C236.84 11.4007 237.263 10.014 238.109 8.63379C239.06 7.06478 240.196 6.28027 241.518 6.28027C241.98 6.28027 242.331 6.39746 242.572 6.63184C242.82 6.8597 242.943 7.17546 242.943 7.5791C242.943 8.00228 242.797 8.41895 242.504 8.8291C242.211 9.23926 241.687 9.66569 240.932 10.1084C240.554 10.3232 239.747 10.7106 238.51 11.2705C238.451 11.6221 238.422 11.9574 238.422 12.2764C238.422 12.7386 238.494 13.0609 238.637 13.2432C238.786 13.4255 239.001 13.5166 239.281 13.5166C239.548 13.5166 239.841 13.4417 240.16 13.292C240.59 13.0902 241.218 12.68 242.045 12.0615ZM238.627 10.6455C239.675 10.1768 240.463 9.6722 240.99 9.13184C241.348 8.75423 241.527 8.37988 241.527 8.00879C241.527 7.72884 241.452 7.50749 241.303 7.34473C241.16 7.17546 240.971 7.09082 240.736 7.09082C240.495 7.09082 240.261 7.18197 240.033 7.36426C239.727 7.60514 239.47 7.96973 239.262 8.45801C238.962 9.17415 238.751 9.90332 238.627 10.6455ZM127.172 30.5459L126.879 30.1553C127.523 29.5107 128.135 29.0355 128.715 28.7295C129.294 28.4235 129.75 28.2705 130.082 28.2705C130.219 28.2705 130.32 28.2998 130.385 28.3584C130.456 28.417 130.492 28.4984 130.492 28.6025C130.492 28.7327 130.44 28.9834 130.336 29.3545C130.186 29.9014 130.082 30.3343 130.023 30.6533C131.586 29.0648 132.781 28.2705 133.607 28.2705C133.822 28.2705 133.985 28.3291 134.096 28.4463C134.206 28.5635 134.262 28.749 134.262 29.0029C134.262 29.2764 134.164 29.7419 133.969 30.3994C134.711 29.6247 135.355 29.0778 135.902 28.7588C136.449 28.4333 136.876 28.2705 137.182 28.2705C137.455 28.2705 137.667 28.3486 137.816 28.5049C137.966 28.6611 138.041 28.902 138.041 29.2275C138.041 29.4229 138.008 29.654 137.943 29.9209C137.878 30.1878 137.641 31.0016 137.23 32.3623C136.716 34.0485 136.459 35.0544 136.459 35.3799C136.459 35.6012 136.55 35.7119 136.732 35.7119C136.856 35.7119 136.977 35.6729 137.094 35.5947C137.478 35.3213 137.872 34.9827 138.275 34.5791L138.598 34.9307C138.461 35.0413 138.204 35.2692 137.826 35.6143C137.305 36.083 136.947 36.376 136.752 36.4932C136.374 36.7145 136.055 36.8252 135.795 36.8252C135.6 36.8252 135.427 36.7275 135.277 36.5322C135.128 36.3434 135.053 36.0798 135.053 35.7412C135.053 35.4287 135.098 35.0641 135.189 34.6475C135.281 34.2243 135.548 33.2803 135.99 31.8154C136.322 30.7152 136.488 30.0479 136.488 29.8135C136.488 29.5921 136.391 29.4814 136.195 29.4814C136.033 29.4814 135.814 29.5628 135.541 29.7256C134.981 30.0641 134.512 30.4775 134.135 30.9658C133.874 31.3044 133.646 31.8415 133.451 32.5771C133.015 34.1852 132.689 35.4971 132.475 36.5127H131.088L132.543 30.5459C132.647 30.1162 132.699 29.8688 132.699 29.8037C132.699 29.6995 132.673 29.6214 132.621 29.5693C132.569 29.5107 132.494 29.4814 132.396 29.4814C132.221 29.4814 131.947 29.6182 131.576 29.8916C130.932 30.3538 130.466 30.8031 130.18 31.2393C129.9 31.6689 129.659 32.3265 129.457 33.2119L128.705 36.5127H127.309L128.412 31.8545C128.738 30.5068 128.9 29.7744 128.9 29.6572C128.9 29.5075 128.842 29.4326 128.725 29.4326C128.471 29.4326 127.953 29.8037 127.172 30.5459ZM145.971 28.1338L146.615 27.9971L145.883 30.4678C145.59 31.4508 145.313 32.5837 145.053 33.8662C144.91 34.5628 144.838 35.012 144.838 35.2139C144.838 35.4157 144.919 35.5166 145.082 35.5166C145.186 35.5166 145.352 35.4482 145.58 35.3115C145.984 35.0706 146.371 34.7712 146.742 34.4131L147.055 34.7939C146.313 35.471 145.837 35.8812 145.629 36.0244C145.212 36.3109 144.815 36.5225 144.438 36.6592C144.19 36.7503 143.949 36.7959 143.715 36.7959C143.546 36.7959 143.419 36.7568 143.334 36.6787C143.249 36.6006 143.207 36.4867 143.207 36.3369C143.207 36.2393 143.233 36.1058 143.285 35.9365L143.676 34.6084C143.116 35.279 142.449 35.8551 141.674 36.3369C141.199 36.6364 140.762 36.7861 140.365 36.7861C139.988 36.7861 139.698 36.6527 139.496 36.3857C139.223 36.0277 139.086 35.5589 139.086 34.9795C139.086 34.2894 139.268 33.5212 139.633 32.6748C140.004 31.8285 140.499 31.0602 141.117 30.3701C141.736 29.68 142.387 29.1722 143.07 28.8467C143.598 28.5993 144.275 28.4756 145.102 28.4756C145.31 28.4756 145.521 28.4886 145.736 28.5146L145.971 28.1338ZM144.76 29.6279C144.408 29.5563 144.112 29.5205 143.871 29.5205C143.285 29.5205 142.774 29.6833 142.338 30.0088C141.902 30.3278 141.495 30.9072 141.117 31.7471C140.746 32.5804 140.561 33.4137 140.561 34.2471C140.561 34.6898 140.635 35.0088 140.785 35.2041C140.935 35.3994 141.13 35.4971 141.371 35.4971C141.82 35.4971 142.302 35.2562 142.816 34.7744C143.331 34.2861 143.708 33.5863 143.949 32.6748L144.76 29.6279ZM147.973 30.5459L147.68 30.1553C148.324 29.5107 148.936 29.0355 149.516 28.7295C150.095 28.4235 150.551 28.2705 150.883 28.2705C151.02 28.2705 151.12 28.2998 151.186 28.3584C151.257 28.417 151.293 28.4984 151.293 28.6025C151.293 28.7327 151.241 28.9834 151.137 29.3545C150.987 29.9014 150.883 30.3343 150.824 30.6533C152.387 29.0648 153.581 28.2705 154.408 28.2705C154.623 28.2705 154.786 28.3291 154.896 28.4463C155.007 28.5635 155.063 28.749 155.063 29.0029C155.063 29.2764 154.965 29.7419 154.77 30.3994C155.512 29.6247 156.156 29.0778 156.703 28.7588C157.25 28.4333 157.676 28.2705 157.982 28.2705C158.256 28.2705 158.467 28.3486 158.617 28.5049C158.767 28.6611 158.842 28.902 158.842 29.2275C158.842 29.4229 158.809 29.654 158.744 29.9209C158.679 30.1878 158.441 31.0016 158.031 32.3623C157.517 34.0485 157.26 35.0544 157.26 35.3799C157.26 35.6012 157.351 35.7119 157.533 35.7119C157.657 35.7119 157.777 35.6729 157.895 35.5947C158.279 35.3213 158.673 34.9827 159.076 34.5791L159.398 34.9307C159.262 35.0413 159.005 35.2692 158.627 35.6143C158.106 36.083 157.748 36.376 157.553 36.4932C157.175 36.7145 156.856 36.8252 156.596 36.8252C156.4 36.8252 156.228 36.7275 156.078 36.5322C155.928 36.3434 155.854 36.0798 155.854 35.7412C155.854 35.4287 155.899 35.0641 155.99 34.6475C156.081 34.2243 156.348 33.2803 156.791 31.8154C157.123 30.7152 157.289 30.0479 157.289 29.8135C157.289 29.5921 157.191 29.4814 156.996 29.4814C156.833 29.4814 156.615 29.5628 156.342 29.7256C155.782 30.0641 155.313 30.4775 154.936 30.9658C154.675 31.3044 154.447 31.8415 154.252 32.5771C153.816 34.1852 153.49 35.4971 153.275 36.5127H151.889L153.344 30.5459C153.448 30.1162 153.5 29.8688 153.5 29.8037C153.5 29.6995 153.474 29.6214 153.422 29.5693C153.37 29.5107 153.295 29.4814 153.197 29.4814C153.021 29.4814 152.748 29.6182 152.377 29.8916C151.732 30.3538 151.267 30.8031 150.98 31.2393C150.701 31.6689 150.46 32.3265 150.258 33.2119L149.506 36.5127H148.109L149.213 31.8545C149.538 30.5068 149.701 29.7744 149.701 29.6572C149.701 29.5075 149.643 29.4326 149.525 29.4326C149.271 29.4326 148.754 29.8037 147.973 30.5459ZM158.959 39.5498L158.773 38.915C159.366 38.4593 159.822 38.0101 160.141 37.5674C160.349 37.2744 160.453 37.0335 160.453 36.8447C160.453 36.6559 160.375 36.415 160.219 36.1221C160.063 35.8226 159.984 35.5752 159.984 35.3799C159.984 35.1325 160.072 34.9176 160.248 34.7354C160.424 34.5531 160.632 34.4619 160.873 34.4619C161.14 34.4619 161.368 34.5726 161.557 34.7939C161.752 35.0088 161.85 35.2692 161.85 35.5752C161.85 35.9268 161.752 36.3239 161.557 36.7666C161.361 37.2158 161.065 37.652 160.668 38.0752C160.128 38.6611 159.558 39.1527 158.959 39.5498ZM170.434 36.5127H168.979L170.258 31.1904C170.876 28.5537 171.28 26.9294 171.469 26.3174C171.664 25.7054 171.895 25.2008 172.162 24.8037C172.436 24.4066 172.774 24.0518 173.178 23.7393C173.588 23.4268 174.027 23.1891 174.496 23.0264C174.971 22.8571 175.388 22.7725 175.746 22.7725C176.085 22.7725 176.335 22.8376 176.498 22.9678C176.667 23.098 176.752 23.2705 176.752 23.4854C176.752 23.6676 176.677 23.8239 176.527 23.9541C176.378 24.0843 176.189 24.1494 175.961 24.1494C175.674 24.1494 175.242 24.1006 174.662 24.0029C174.473 23.9639 174.307 23.9443 174.164 23.9443C173.962 23.9443 173.77 24.016 173.588 24.1592C173.412 24.3024 173.253 24.5596 173.109 24.9307C172.973 25.2952 172.777 26.057 172.523 27.2158L171.83 30.3408C172.455 29.6312 173.103 29.0843 173.773 28.7002C174.281 28.4137 174.766 28.2705 175.229 28.2705C175.554 28.2705 175.827 28.3942 176.049 28.6416C176.277 28.8825 176.391 29.1885 176.391 29.5596C176.391 30.2562 176.029 30.8779 175.307 31.4248C174.584 31.9717 173.48 32.2646 171.996 32.3037C172.497 32.5251 172.898 32.7692 173.197 33.0361C173.497 33.2965 173.79 33.6611 174.076 34.1299C174.369 34.5921 174.744 35.3701 175.199 36.4639C175.74 37.766 176.241 38.6318 176.703 39.0615C177.159 39.4912 177.66 39.7061 178.207 39.7061C178.526 39.7061 178.79 39.6344 178.998 39.4912C179.206 39.3545 179.311 39.2145 179.311 39.0713C179.311 38.9801 179.278 38.8564 179.213 38.7002C179.141 38.5309 179.105 38.3877 179.105 38.2705C179.105 38.1208 179.164 37.9873 179.281 37.8701C179.398 37.7529 179.535 37.6943 179.691 37.6943C179.874 37.6943 180.03 37.766 180.16 37.9092C180.29 38.0589 180.355 38.2542 180.355 38.4951C180.355 38.9639 180.141 39.3805 179.711 39.7451C179.281 40.1097 178.721 40.292 178.031 40.292C177.322 40.292 176.687 40.113 176.127 39.7549C175.567 39.3968 175.043 38.8239 174.555 38.0361C174.275 37.5804 173.786 36.542 173.09 34.9209C172.764 34.1527 172.471 33.5765 172.211 33.1924C172.009 32.8929 171.732 32.5967 171.381 32.3037L170.434 36.5127ZM171.459 31.8936C172.338 31.9001 173.048 31.8154 173.588 31.6396C174.135 31.4639 174.522 31.2295 174.75 30.9365C174.984 30.6436 175.102 30.3245 175.102 29.9795C175.102 29.7321 175.033 29.5335 174.896 29.3838C174.766 29.234 174.607 29.1592 174.418 29.1592C173.806 29.1592 172.869 29.8428 171.605 31.21L171.459 31.8936ZM180.463 26.7959L182.016 26.2002L181.313 28.9346H183.334L183.178 29.6279H181.156L180.297 32.8994C180.03 33.8825 179.896 34.5661 179.896 34.9502C179.896 35.126 179.932 35.2529 180.004 35.3311C180.082 35.4092 180.186 35.4482 180.316 35.4482C180.518 35.4482 180.827 35.3278 181.244 35.0869C181.791 34.7679 182.312 34.4066 182.807 34.0029L183.178 34.4521C181.752 35.5264 180.798 36.1839 180.316 36.4248C179.835 36.6657 179.447 36.7861 179.154 36.7861C178.913 36.7861 178.721 36.6982 178.578 36.5225C178.441 36.3467 178.373 36.0602 178.373 35.6631C178.373 35.1943 178.497 34.4782 178.744 33.5146L179.75 29.6279H178.168L178.344 28.9346H179.916L180.463 26.7959ZM188.979 28.2998C189.617 28.2998 190.147 28.5537 190.57 29.0615C190.994 29.5693 191.205 30.2757 191.205 31.1807C191.205 32.626 190.697 33.9248 189.682 35.0771C188.666 36.223 187.592 36.7959 186.459 36.7959C185.762 36.7959 185.199 36.568 184.77 36.1123C184.346 35.6566 184.135 35.0348 184.135 34.2471C184.135 32.8799 184.525 31.6169 185.307 30.458C186.29 29.0192 187.514 28.2998 188.979 28.2998ZM188.148 29.0322C187.595 29.0322 187.058 29.4294 186.537 30.2236C186.023 31.0114 185.766 32.1019 185.766 33.4951C185.766 34.3415 185.925 35.0088 186.244 35.4971C186.479 35.8551 186.791 36.0342 187.182 36.0342C187.729 36.0342 188.227 35.6956 188.676 35.0186C189.249 34.1396 189.535 33.0492 189.535 31.7471C189.535 30.7705 189.402 30.0739 189.135 29.6572C188.874 29.2406 188.546 29.0322 188.148 29.0322ZM190.004 24.2764H191.859L188.549 27.1084H187.973L190.004 24.2764ZM193.949 36.5127H192.494L193.178 33.8857C193.51 32.5967 193.799 31.3727 194.047 30.2139C194.105 29.9274 194.135 29.7484 194.135 29.6768C194.135 29.5205 194.063 29.4424 193.92 29.4424C193.822 29.4424 193.673 29.5107 193.471 29.6475C193.269 29.7777 192.904 30.1064 192.377 30.6338L192.074 30.292C192.699 29.6214 193.321 29.1201 193.939 28.7881C194.564 28.4495 195.043 28.2803 195.375 28.2803C195.492 28.2803 195.583 28.3096 195.648 28.3682C195.72 28.4202 195.756 28.4886 195.756 28.5732C195.756 28.6579 195.714 28.8825 195.629 29.2471L195.209 30.9951C195.867 29.96 196.609 29.0745 197.436 28.3389C197.833 27.9873 198.165 27.8115 198.432 27.8115C198.627 27.8115 198.79 27.8766 198.92 28.0068C199.05 28.1305 199.115 28.277 199.115 28.4463C199.115 28.6221 199.05 28.7718 198.92 28.8955C198.796 29.0192 198.48 29.1657 197.973 29.335C197.491 29.4977 197.097 29.693 196.791 29.9209C196.492 30.1488 196.16 30.4971 195.795 30.9658C195.437 31.4346 195.186 31.8447 195.043 32.1963C194.9 32.5413 194.682 33.3486 194.389 34.6182L193.949 36.5127ZM203.256 34.0615L203.578 34.4912C201.983 36.0081 200.616 36.7666 199.477 36.7666C199.014 36.7666 198.66 36.6104 198.412 36.2979C198.171 35.9854 198.051 35.484 198.051 34.7939C198.051 33.4007 198.474 32.014 199.32 30.6338C200.271 29.0648 201.407 28.2803 202.729 28.2803C203.191 28.2803 203.542 28.3975 203.783 28.6318C204.031 28.8597 204.154 29.1755 204.154 29.5791C204.154 30.0023 204.008 30.4189 203.715 30.8291C203.422 31.2393 202.898 31.6657 202.143 32.1084C201.765 32.3232 200.958 32.7106 199.721 33.2705C199.662 33.6221 199.633 33.9574 199.633 34.2764C199.633 34.7386 199.704 35.0609 199.848 35.2432C199.997 35.4255 200.212 35.5166 200.492 35.5166C200.759 35.5166 201.052 35.4417 201.371 35.292C201.801 35.0902 202.429 34.68 203.256 34.0615ZM199.838 32.6455C200.886 32.1768 201.674 31.6722 202.201 31.1318C202.559 30.7542 202.738 30.3799 202.738 30.0088C202.738 29.7288 202.663 29.5075 202.514 29.3447C202.37 29.1755 202.182 29.0908 201.947 29.0908C201.706 29.0908 201.472 29.182 201.244 29.3643C200.938 29.6051 200.681 29.9697 200.473 30.458C200.173 31.1742 199.962 31.9033 199.838 32.6455ZM214.691 34.3936L214.896 34.96C213.347 36.1774 212.038 36.7861 210.971 36.7861C210.404 36.7861 209.991 36.5843 209.73 36.1807C209.477 35.777 209.35 35.266 209.35 34.6475C209.35 33.6188 209.623 32.5609 210.17 31.4736C210.717 30.3864 211.381 29.5531 212.162 28.9736C212.774 28.5244 213.464 28.2998 214.232 28.2998C214.714 28.2998 215.079 28.391 215.326 28.5732C215.574 28.7555 215.697 28.9769 215.697 29.2373C215.697 29.4391 215.632 29.6051 215.502 29.7354C215.372 29.859 215.189 29.9209 214.955 29.9209C214.727 29.9209 214.434 29.8167 214.076 29.6084C213.705 29.387 213.396 29.2764 213.148 29.2764C212.829 29.2764 212.51 29.4229 212.191 29.7158C211.879 30.0023 211.579 30.5622 211.293 31.3955C211.007 32.2288 210.863 33.0654 210.863 33.9053C210.863 34.5238 210.984 35.0023 211.225 35.3408C211.4 35.6012 211.648 35.7314 211.967 35.7314C212.729 35.7314 213.637 35.2855 214.691 34.3936ZM221.244 34.0615L221.566 34.4912C219.971 36.0081 218.604 36.7666 217.465 36.7666C217.003 36.7666 216.648 36.6104 216.4 36.2979C216.16 35.9854 216.039 35.484 216.039 34.7939C216.039 33.4007 216.462 32.014 217.309 30.6338C218.259 29.0648 219.395 28.2803 220.717 28.2803C221.179 28.2803 221.531 28.3975 221.771 28.6318C222.019 28.8597 222.143 29.1755 222.143 29.5791C222.143 30.0023 221.996 30.4189 221.703 30.8291C221.41 31.2393 220.886 31.6657 220.131 32.1084C219.753 32.3232 218.946 32.7106 217.709 33.2705C217.65 33.6221 217.621 33.9574 217.621 34.2764C217.621 34.7386 217.693 35.0609 217.836 35.2432C217.986 35.4255 218.201 35.5166 218.48 35.5166C218.747 35.5166 219.04 35.4417 219.359 35.292C219.789 35.0902 220.417 34.68 221.244 34.0615ZM217.826 32.6455C218.874 32.1768 219.662 31.6722 220.189 31.1318C220.548 30.7542 220.727 30.3799 220.727 30.0088C220.727 29.7288 220.652 29.5075 220.502 29.3447C220.359 29.1755 220.17 29.0908 219.936 29.0908C219.695 29.0908 219.46 29.182 219.232 29.3643C218.926 29.6051 218.669 29.9697 218.461 30.458C218.161 31.1742 217.95 31.9033 217.826 32.6455ZM223.217 30.585L222.885 30.2432C223.718 29.4489 224.382 28.9215 224.877 28.6611C225.372 28.4007 225.795 28.2705 226.146 28.2705C226.283 28.2705 226.391 28.2998 226.469 28.3584C226.547 28.417 226.586 28.4854 226.586 28.5635C226.586 28.6221 226.57 28.7262 226.537 28.876L226.098 30.8389C226.762 30.1032 227.595 29.4163 228.598 28.7783C229.132 28.4463 229.571 28.2803 229.916 28.2803C230.17 28.2803 230.369 28.3617 230.512 28.5244C230.655 28.6872 230.727 28.9215 230.727 29.2275C230.727 29.4294 230.697 29.6572 230.639 29.9111C230.535 30.3343 230.261 31.2555 229.818 32.6748C229.402 34.0029 229.193 34.8851 229.193 35.3213C229.193 35.4515 229.213 35.5492 229.252 35.6143C229.291 35.6794 229.346 35.7119 229.418 35.7119C229.607 35.7119 229.903 35.5296 230.307 35.165C230.593 34.9046 230.88 34.6637 231.166 34.4424L231.41 34.7939C230.811 35.458 230.189 35.9919 229.545 36.3955C229.135 36.6559 228.796 36.7861 228.529 36.7861C228.282 36.7861 228.09 36.695 227.953 36.5127C227.816 36.3369 227.748 36.0472 227.748 35.6436C227.748 35.0641 228.109 33.6221 228.832 31.3174C229.053 30.4971 229.164 30.0186 229.164 29.8818C229.164 29.68 229.044 29.5791 228.803 29.5791C228.542 29.5791 228.207 29.7158 227.797 29.9893C227.185 30.3929 226.674 30.8682 226.264 31.415C226.003 31.7666 225.785 32.3265 225.609 33.0947L224.818 36.5029H223.363C223.637 35.5264 223.874 34.5921 224.076 33.7002L224.945 29.9893C224.978 29.8395 224.994 29.7321 224.994 29.667C224.994 29.4912 224.929 29.4033 224.799 29.4033C224.695 29.4033 224.545 29.4717 224.35 29.6084C223.946 29.8753 223.568 30.2008 223.217 30.585ZM236.283 24.1006C236.485 24.1006 236.651 24.1689 236.781 24.3057C236.911 24.4359 236.977 24.6051 236.977 24.8135C236.977 25.0999 236.876 25.3538 236.674 25.5752C236.479 25.79 236.257 25.8975 236.01 25.8975C235.814 25.8975 235.652 25.8291 235.521 25.6924C235.391 25.5557 235.326 25.3766 235.326 25.1553C235.326 24.8623 235.421 24.6149 235.609 24.4131C235.798 24.2048 236.023 24.1006 236.283 24.1006ZM232.436 30.5654L232.006 30.2334C232.657 29.5173 233.249 29.0094 233.783 28.71C234.324 28.404 234.783 28.251 235.16 28.251C235.369 28.251 235.528 28.2965 235.639 28.3877C235.749 28.4788 235.805 28.6025 235.805 28.7588C235.805 28.9476 235.593 29.7484 235.17 31.1611C234.48 33.4723 234.135 34.8656 234.135 35.3408C234.135 35.432 234.158 35.5101 234.203 35.5752C234.249 35.6338 234.298 35.6631 234.35 35.6631C234.558 35.6631 235.092 35.2594 235.951 34.4521L236.332 34.8232C235.44 35.6631 234.789 36.2002 234.379 36.4346C233.969 36.6689 233.633 36.7861 233.373 36.7861C233.145 36.7861 232.963 36.7145 232.826 36.5713C232.696 36.4281 232.631 36.2295 232.631 35.9756C232.631 35.1618 233.119 33.1729 234.096 30.0088C234.141 29.859 234.164 29.7256 234.164 29.6084C234.164 29.4782 234.105 29.4131 233.988 29.4131C233.858 29.4131 233.708 29.4652 233.539 29.5693C233.376 29.6735 233.008 30.0055 232.436 30.5654ZM242.045 34.0615L242.367 34.4912C240.772 36.0081 239.405 36.7666 238.266 36.7666C237.803 36.7666 237.449 36.6104 237.201 36.2979C236.96 35.9854 236.84 35.484 236.84 34.7939C236.84 33.4007 237.263 32.014 238.109 30.6338C239.06 29.0648 240.196 28.2803 241.518 28.2803C241.98 28.2803 242.331 28.3975 242.572 28.6318C242.82 28.8597 242.943 29.1755 242.943 29.5791C242.943 30.0023 242.797 30.4189 242.504 30.8291C242.211 31.2393 241.687 31.6657 240.932 32.1084C240.554 32.3232 239.747 32.7106 238.51 33.2705C238.451 33.6221 238.422 33.9574 238.422 34.2764C238.422 34.7386 238.494 35.0609 238.637 35.2432C238.786 35.4255 239.001 35.5166 239.281 35.5166C239.548 35.5166 239.841 35.4417 240.16 35.292C240.59 35.0902 241.218 34.68 242.045 34.0615ZM238.627 32.6455C239.675 32.1768 240.463 31.6722 240.99 31.1318C241.348 30.7542 241.527 30.3799 241.527 30.0088C241.527 29.7288 241.452 29.5075 241.303 29.3447C241.16 29.1755 240.971 29.0908 240.736 29.0908C240.495 29.0908 240.261 29.182 240.033 29.3643C239.727 29.6051 239.47 29.9697 239.262 30.458C238.962 31.1742 238.751 31.9033 238.627 32.6455ZM238.471 36.3564H239.145C238.721 37.0205 238.51 37.6455 238.51 38.2314C238.51 38.596 238.627 38.8923 238.861 39.1201C239.096 39.3545 239.405 39.4717 239.789 39.4717C239.939 39.4717 240.131 39.4587 240.365 39.4326L240.102 40.0186C239.639 40.1292 239.242 40.1846 238.91 40.1846C238.474 40.1846 238.122 40.0609 237.855 39.8135C237.595 39.5661 237.465 39.2633 237.465 38.9053C237.465 38.2087 237.8 37.359 238.471 36.3564Z" fill="white"/>
</svg>
