<svg width="684" height="98" viewBox="0 0 684 98" fill="none" xmlns="http://www.w3.org/2000/svg">
<path d="M32.6016 6.34375L32.4609 6.92969C31.1953 7.24219 30.1484 7.63281 29.3203 8.10156C28.4922 8.57031 27.375 9.42187 25.9688 10.6562C22.2344 13.9219 18.9844 16.4297 16.2188 18.1797C17.0156 19.1641 17.6953 20.2656 18.2578 21.4844C18.8203 22.7031 19.7969 25.5078 21.1875 29.8984C22.4375 33.8203 23.7109 36.4688 25.0078 37.8438C26.3047 39.2188 27.625 39.9062 28.9688 39.9062C30.2656 39.9062 31.1484 39.2188 31.6172 37.8438C31.8984 37.0312 32.1406 36.5312 32.3438 36.3438C32.625 36.0938 32.9375 35.9688 33.2812 35.9688C33.6562 35.9688 33.9766 36.0938 34.2422 36.3438C34.5078 36.6094 34.6406 36.9219 34.6406 37.2812C34.6406 38.2188 34.0859 39.125 32.9766 40C31.8672 40.875 30.4609 41.3125 28.7578 41.3125C27.2891 41.3125 25.8906 40.9375 24.5625 40.1875C23.25 39.4375 22.0469 38.2578 20.9531 36.6484C19.8594 35.0391 18.7422 32.5469 17.6016 29.1719C16.5391 25.9844 15.7188 23.8047 15.1406 22.6328C14.5625 21.4453 13.7578 20.1953 12.7266 18.8828L10.2422 28.375C9.74219 30.2969 9.42969 31.6719 9.30469 32.5C10.3672 32.9531 11.3203 33.1797 12.1641 33.1797C12.3672 33.1797 12.6562 33.1641 13.0312 33.1328L12.7266 34.3047C12.4141 34.3203 12.2188 34.3281 12.1406 34.3281C11.625 34.3281 10.8906 34.2734 9.9375 34.1641C8.9375 34.0547 8.11719 34 7.47656 34C6.17969 34 4.125 34.25 1.3125 34.75L1.45312 33.625C2.95312 33.3281 4.00781 32.9219 4.61719 32.4062C5.22656 31.875 5.71094 31.0469 6.07031 29.9219C6.89844 27.3906 7.97656 23.5859 9.30469 18.5078L12.1641 7.65625C9.07031 7.84375 6.625 8.54688 4.82812 9.76562C3.4375 10.6875 2.74219 11.7188 2.74219 12.8594C2.74219 13.2656 2.9375 13.7812 3.32812 14.4062C3.6875 14.9688 3.86719 15.4219 3.86719 15.7656C3.86719 16.1875 3.71094 16.5625 3.39844 16.8906C3.08594 17.2031 2.71875 17.3594 2.29688 17.3594C1.8125 17.3594 1.375 17.1172 0.984375 16.6328C0.609375 16.1484 0.421875 15.5078 0.421875 14.7109C0.421875 12.5391 1.5 10.5859 3.65625 8.85156C5.82812 7.10156 9.59375 6.22656 14.9531 6.22656H16.4766C15.6172 8.46094 15.0547 10.0781 14.7891 11.0781L12.9141 18.1797C14.0703 17.7422 15.4141 17 16.9453 15.9531C18.4922 14.8906 19.9766 13.7656 21.3984 12.5781C24.0078 10.3906 25.4922 9.0625 25.8516 8.59375C25.9609 8.4375 26.0156 8.30469 26.0156 8.19531C26.0156 8.07031 25.8516 7.96094 25.5234 7.86719C25.2109 7.75781 24.3125 7.6875 22.8281 7.65625L23.1328 6.34375C25.1328 6.53125 26.7734 6.625 28.0547 6.625C29.3672 6.625 30.8828 6.53125 32.6016 6.34375ZM42.3047 14.2656C43.6953 14.2656 44.7656 14.5391 45.5156 15.0859C46.2812 15.6172 46.6641 16.2344 46.6641 16.9375C46.6641 17.3594 46.5 17.7266 46.1719 18.0391C45.8594 18.3516 45.4766 18.5078 45.0234 18.5078C44.7266 18.5078 44.4688 18.4453 44.25 18.3203C44.0312 18.1797 43.7188 17.8438 43.3125 17.3125C42.5469 16.2969 41.7891 15.7891 41.0391 15.7891C40.3984 15.7891 39.8281 16.0391 39.3281 16.5391C38.8438 17.0234 38.6016 17.6328 38.6016 18.3672C38.6016 19.0078 38.7578 19.6328 39.0703 20.2422C39.3828 20.8359 40.1719 21.8047 41.4375 23.1484C43.1719 24.9922 44.0391 26.7422 44.0391 28.3984C44.0391 30.0547 43.3359 31.5078 41.9297 32.7578C40.5234 33.9922 38.7109 34.6094 36.4922 34.6094C34.6328 34.6094 33.25 34.2344 32.3438 33.4844C31.4375 32.7188 30.9844 31.7812 30.9844 30.6719C30.9844 30.125 31.1562 29.6719 31.5 29.3125C31.8438 28.9531 32.2656 28.7734 32.7656 28.7734C33.2031 28.7734 33.5781 28.9219 33.8906 29.2188C34.2031 29.5 34.3594 29.8359 34.3594 30.2266C34.3594 30.3828 34.3438 30.5859 34.3125 30.8359C34.2969 31.0391 34.2891 31.2109 34.2891 31.3516C34.2891 31.8672 34.5078 32.3047 34.9453 32.6641C35.3672 33.0234 35.9453 33.2031 36.6797 33.2031C37.5234 33.2031 38.2656 33.0625 38.9062 32.7812C39.5469 32.4844 40.0469 32.0469 40.4062 31.4688C40.7656 30.875 40.9453 30.2891 40.9453 29.7109C40.9453 29.1484 40.7734 28.5859 40.4297 28.0234C40.1016 27.4609 39.3516 26.5312 38.1797 25.2344C36.5547 23.4219 35.7422 21.6797 35.7422 20.0078C35.7422 18.4766 36.3594 17.1406 37.5938 16C38.8281 14.8438 40.3984 14.2656 42.3047 14.2656ZM57.375 4.21094C57.8594 4.21094 58.2578 4.375 58.5703 4.70312C58.8828 5.01562 59.0391 5.42188 59.0391 5.92188C59.0391 6.60937 58.7969 7.21875 58.3125 7.75C57.8438 8.26562 57.3125 8.52344 56.7188 8.52344C56.25 8.52344 55.8594 8.35938 55.5469 8.03125C55.2344 7.70312 55.0781 7.27344 55.0781 6.74219C55.0781 6.03906 55.3047 5.44531 55.7578 4.96094C56.2109 4.46094 56.75 4.21094 57.375 4.21094ZM48.1406 19.7266L47.1094 18.9297C48.6719 17.2109 50.0938 15.9922 51.375 15.2734C52.6719 14.5391 53.7734 14.1719 54.6797 14.1719C55.1797 14.1719 55.5625 14.2812 55.8281 14.5C56.0938 14.7188 56.2266 15.0156 56.2266 15.3906C56.2266 15.8438 55.7188 17.7656 54.7031 21.1562C53.0469 26.7031 52.2188 30.0469 52.2188 31.1875C52.2188 31.4062 52.2734 31.5938 52.3828 31.75C52.4922 31.8906 52.6094 31.9609 52.7344 31.9609C53.2344 31.9609 54.5156 30.9922 56.5781 29.0547L57.4922 29.9453C55.3516 31.9609 53.7891 33.25 52.8047 33.8125C51.8203 34.375 51.0156 34.6562 50.3906 34.6562C49.8438 34.6562 49.4062 34.4844 49.0781 34.1406C48.7656 33.7969 48.6094 33.3203 48.6094 32.7109C48.6094 30.7578 49.7812 25.9844 52.125 18.3906C52.2344 18.0312 52.2891 17.7109 52.2891 17.4297C52.2891 17.1172 52.1484 16.9609 51.8672 16.9609C51.5547 16.9609 51.1953 17.0859 50.7891 17.3359C50.3984 17.5859 49.5156 18.3828 48.1406 19.7266ZM74.9062 13.8906L76.4531 13.5625L74.6953 19.4922C73.9922 21.8516 73.3281 24.5703 72.7031 27.6484C72.3594 29.3203 72.1875 30.3984 72.1875 30.8828C72.1875 31.3672 72.3828 31.6094 72.7734 31.6094C73.0234 31.6094 73.4219 31.4453 73.9688 31.1172C74.9375 30.5391 75.8672 29.8203 76.7578 28.9609L77.5078 29.875C75.7266 31.5 74.5859 32.4844 74.0859 32.8281C73.0859 33.5156 72.1328 34.0234 71.2266 34.3516C70.6328 34.5703 70.0547 34.6797 69.4922 34.6797C69.0859 34.6797 68.7812 34.5859 68.5781 34.3984C68.375 34.2109 68.2734 33.9375 68.2734 33.5781C68.2734 33.3438 68.3359 33.0234 68.4609 32.6172L69.3984 29.4297C68.0547 31.0391 66.4531 32.4219 64.5938 33.5781C63.4531 34.2969 62.4062 34.6562 61.4531 34.6562C60.5469 34.6562 59.8516 34.3359 59.3672 33.6953C58.7109 32.8359 58.3828 31.7109 58.3828 30.3203C58.3828 28.6641 58.8203 26.8203 59.6953 24.7891C60.5859 22.7578 61.7734 20.9141 63.2578 19.2578C64.7422 17.6016 66.3047 16.3828 67.9453 15.6016C69.2109 15.0078 70.8359 14.7109 72.8203 14.7109C73.3203 14.7109 73.8281 14.7422 74.3438 14.8047L74.9062 13.8906ZM72 17.4766C71.1562 17.3047 70.4453 17.2188 69.8672 17.2188C68.4609 17.2188 67.2344 17.6094 66.1875 18.3906C65.1406 19.1562 64.1641 20.5469 63.2578 22.5625C62.3672 24.5625 61.9219 26.5625 61.9219 28.5625C61.9219 29.625 62.1016 30.3906 62.4609 30.8594C62.8203 31.3281 63.2891 31.5625 63.8672 31.5625C64.9453 31.5625 66.1016 30.9844 67.3359 29.8281C68.5703 28.6562 69.4766 26.9766 70.0547 24.7891L72 17.4766ZM69.2344 33.625H70.8516C69.8359 35.2188 69.3281 36.7188 69.3281 38.125C69.3281 39 69.6094 39.7109 70.1719 40.2578C70.7344 40.8203 71.4766 41.1016 72.3984 41.1016C72.7578 41.1016 73.2188 41.0703 73.7812 41.0078L73.1484 42.4141C72.0391 42.6797 71.0859 42.8125 70.2891 42.8125C69.2422 42.8125 68.3984 42.5156 67.7578 41.9219C67.1328 41.3281 66.8203 40.6016 66.8203 39.7422C66.8203 38.0703 67.625 36.0312 69.2344 33.625ZM93.8906 16.7266C92.4688 17.1172 91.1641 17.3125 89.9766 17.3125C89.3203 17.3125 88.5938 17.2734 87.7969 17.1953C86.6875 17.0703 85.9453 17.0078 85.5703 17.0078C85.1016 17.0078 84.7422 17.1172 84.4922 17.3359C84.2422 17.5547 84.1172 17.8359 84.1172 18.1797C84.1172 18.7109 84.3984 19 84.9609 19.0469C85.6641 19.125 86.0156 19.4453 86.0156 20.0078C86.0156 20.2734 85.9062 20.5156 85.6875 20.7344C85.4688 20.9375 85.2188 21.0391 84.9375 21.0391C84.375 21.0391 83.8516 20.7656 83.3672 20.2188C82.8984 19.6562 82.6641 18.9609 82.6641 18.1328C82.6641 17.0703 83.1094 16.1562 84 15.3906C84.8906 14.625 85.9922 14.2422 87.3047 14.2422C87.9922 14.2422 88.9219 14.3359 90.0938 14.5234C91.9844 14.8203 93.3438 14.9688 94.1719 14.9688C95.0156 14.9688 95.8047 14.6875 96.5391 14.125C96.8828 13.875 97.1641 13.75 97.3828 13.75C97.5703 13.75 97.7266 13.8125 97.8516 13.9375C97.9922 14.0469 98.0625 14.1562 98.0625 14.2656C98.0625 14.4219 97.9766 14.5938 97.8047 14.7812C97.2734 15.4375 96.0625 16.6719 94.1719 18.4844L86.9062 25.4453C84.7812 27.4766 83.0156 29.1172 81.6094 30.3672C82.5 30.2734 83.1953 30.2266 83.6953 30.2266C84.3984 30.2266 85.0391 30.2891 85.6172 30.4141C86.1953 30.5234 87.125 30.7891 88.4062 31.2109C90.0781 31.7891 91.4375 32.0781 92.4844 32.0781C93.1406 32.0781 93.6406 31.9297 93.9844 31.6328C94.3438 31.3203 94.5234 30.9297 94.5234 30.4609C94.5234 30.1953 94.3984 29.8203 94.1484 29.3359C93.9297 28.8672 93.8203 28.5078 93.8203 28.2578C93.8203 27.8828 93.9453 27.5625 94.1953 27.2969C94.4453 27.0312 94.7578 26.8984 95.1328 26.8984C95.5859 26.8984 95.9609 27.0859 96.2578 27.4609C96.5703 27.8203 96.7266 28.2891 96.7266 28.8672C96.7266 29.7422 96.4062 30.6641 95.7656 31.6328C95.125 32.5859 94.3203 33.3203 93.3516 33.8359C92.3828 34.3516 91.1875 34.6094 89.7656 34.6094C88.5938 34.6094 86.8828 34.2734 84.6328 33.6016C82.7578 33.0547 81.3828 32.7812 80.5078 32.7812C79.9766 32.7812 79.3594 33.0625 78.6562 33.625C78.25 33.9688 77.8984 34.1406 77.6016 34.1406C77.0234 34.1406 76.7344 34 76.7344 33.7188C76.7344 33.4531 76.8984 33.1328 77.2266 32.7578C78.1016 31.7266 80.3203 29.5938 83.8828 26.3594C86.2891 24.1719 88.3984 22.1797 90.2109 20.3828L93.8906 16.7266ZM91.6641 6.0625C92.3203 6.0625 92.875 6.29688 93.3281 6.76562C93.7969 7.21875 94.0312 7.77344 94.0312 8.42969C94.0312 9.10156 93.7969 9.67188 93.3281 10.1406C92.875 10.5938 92.3203 10.8203 91.6641 10.8203C91.0078 10.8203 90.4453 10.5938 89.9766 10.1406C89.5078 9.67188 89.2734 9.10156 89.2734 8.42969C89.2734 7.77344 89.5078 7.21875 89.9766 6.76562C90.4453 6.29688 91.0078 6.0625 91.6641 6.0625ZM103.852 34H100.359L103.43 21.2266C104.914 14.8984 105.883 11 106.336 9.53125C106.805 8.0625 107.359 6.85156 108 5.89844C108.656 4.94531 109.469 4.09375 110.438 3.34375C111.422 2.59375 112.477 2.02344 113.602 1.63281C114.742 1.22656 115.742 1.02344 116.602 1.02344C117.414 1.02344 118.016 1.17969 118.406 1.49219C118.812 1.80469 119.016 2.21875 119.016 2.73438C119.016 3.17188 118.836 3.54688 118.477 3.85938C118.117 4.17187 117.664 4.32812 117.117 4.32812C116.43 4.32812 115.391 4.21094 114 3.97656C113.547 3.88281 113.148 3.83594 112.805 3.83594C112.32 3.83594 111.859 4.00781 111.422 4.35156C111 4.69531 110.617 5.3125 110.273 6.20312C109.945 7.07812 109.477 8.90625 108.867 11.6875L107.203 19.1875C108.703 17.4844 110.258 16.1719 111.867 15.25C113.086 14.5625 114.25 14.2188 115.359 14.2188C116.141 14.2188 116.797 14.5156 117.328 15.1094C117.875 15.6875 118.148 16.4219 118.148 17.3125C118.148 18.9844 117.281 20.4766 115.547 21.7891C113.812 23.1016 111.164 23.8047 107.602 23.8984C108.805 24.4297 109.766 25.0156 110.484 25.6562C111.203 26.2812 111.906 27.1562 112.594 28.2812C113.297 29.3906 114.195 31.2578 115.289 33.8828C116.586 37.0078 117.789 39.0859 118.898 40.1172C119.992 41.1484 121.195 41.6641 122.508 41.6641C123.273 41.6641 123.906 41.4922 124.406 41.1484C124.906 40.8203 125.156 40.4844 125.156 40.1406C125.156 39.9219 125.078 39.625 124.922 39.25C124.75 38.8438 124.664 38.5 124.664 38.2188C124.664 37.8594 124.805 37.5391 125.086 37.2578C125.367 36.9766 125.695 36.8359 126.07 36.8359C126.508 36.8359 126.883 37.0078 127.195 37.3516C127.508 37.7109 127.664 38.1797 127.664 38.7578C127.664 39.8828 127.148 40.8828 126.117 41.7578C125.086 42.6328 123.742 43.0703 122.086 43.0703C120.383 43.0703 118.859 42.6406 117.516 41.7812C116.172 40.9219 114.914 39.5469 113.742 37.6562C113.07 36.5625 111.898 34.0703 110.227 30.1797C109.445 28.3359 108.742 26.9531 108.117 26.0312C107.633 25.3125 106.969 24.6016 106.125 23.8984L103.852 34ZM106.312 22.9141C108.422 22.9297 110.125 22.7266 111.422 22.3047C112.734 21.8828 113.664 21.3203 114.211 20.6172C114.773 19.9141 115.055 19.1484 115.055 18.3203C115.055 17.7266 114.891 17.25 114.562 16.8906C114.25 16.5312 113.867 16.3516 113.414 16.3516C111.945 16.3516 109.695 17.9922 106.664 21.2734L106.312 22.9141ZM131.344 4.21094C131.828 4.21094 132.227 4.375 132.539 4.70312C132.852 5.01562 133.008 5.42188 133.008 5.92188C133.008 6.60937 132.766 7.21875 132.281 7.75C131.812 8.26562 131.281 8.52344 130.688 8.52344C130.219 8.52344 129.828 8.35938 129.516 8.03125C129.203 7.70312 129.047 7.27344 129.047 6.74219C129.047 6.03906 129.273 5.44531 129.727 4.96094C130.18 4.46094 130.719 4.21094 131.344 4.21094ZM122.109 19.7266L121.078 18.9297C122.641 17.2109 124.062 15.9922 125.344 15.2734C126.641 14.5391 127.742 14.1719 128.648 14.1719C129.148 14.1719 129.531 14.2812 129.797 14.5C130.062 14.7188 130.195 15.0156 130.195 15.3906C130.195 15.8438 129.688 17.7656 128.672 21.1562C127.016 26.7031 126.188 30.0469 126.188 31.1875C126.188 31.4062 126.242 31.5938 126.352 31.75C126.461 31.8906 126.578 31.9609 126.703 31.9609C127.203 31.9609 128.484 30.9922 130.547 29.0547L131.461 29.9453C129.32 31.9609 127.758 33.25 126.773 33.8125C125.789 34.375 124.984 34.6562 124.359 34.6562C123.812 34.6562 123.375 34.4844 123.047 34.1406C122.734 33.7969 122.578 33.3203 122.578 32.7109C122.578 30.7578 123.75 25.9844 126.094 18.3906C126.203 18.0312 126.258 17.7109 126.258 17.4297C126.258 17.1172 126.117 16.9609 125.836 16.9609C125.523 16.9609 125.164 17.0859 124.758 17.3359C124.367 17.5859 123.484 18.3828 122.109 19.7266ZM130.125 41.2891L129.68 39.7656C131.102 38.6719 132.195 37.5938 132.961 36.5312C133.461 35.8281 133.711 35.25 133.711 34.7969C133.711 34.3438 133.523 33.7656 133.148 33.0625C132.773 32.3438 132.586 31.75 132.586 31.2812C132.586 30.6875 132.797 30.1719 133.219 29.7344C133.641 29.2969 134.141 29.0781 134.719 29.0781C135.359 29.0781 135.906 29.3438 136.359 29.875C136.828 30.3906 137.062 31.0156 137.062 31.75C137.062 32.5938 136.828 33.5469 136.359 34.6094C135.891 35.6875 135.18 36.7344 134.227 37.75C132.93 39.1562 131.562 40.3359 130.125 41.2891ZM157.664 34H154.172L157.242 21.2266C158.727 14.8984 159.695 11 160.148 9.53125C160.617 8.0625 161.172 6.85156 161.812 5.89844C162.469 4.94531 163.281 4.09375 164.25 3.34375C165.234 2.59375 166.289 2.02344 167.414 1.63281C168.555 1.22656 169.555 1.02344 170.414 1.02344C171.227 1.02344 171.828 1.17969 172.219 1.49219C172.625 1.80469 172.828 2.21875 172.828 2.73438C172.828 3.17188 172.648 3.54688 172.289 3.85938C171.93 4.17187 171.477 4.32812 170.93 4.32812C170.242 4.32812 169.203 4.21094 167.812 3.97656C167.359 3.88281 166.961 3.83594 166.617 3.83594C166.133 3.83594 165.672 4.00781 165.234 4.35156C164.812 4.69531 164.43 5.3125 164.086 6.20312C163.758 7.07812 163.289 8.90625 162.68 11.6875L161.016 19.1875C162.516 17.4844 164.07 16.1719 165.68 15.25C166.898 14.5625 168.062 14.2188 169.172 14.2188C169.953 14.2188 170.609 14.5156 171.141 15.1094C171.688 15.6875 171.961 16.4219 171.961 17.3125C171.961 18.9844 171.094 20.4766 169.359 21.7891C167.625 23.1016 164.977 23.8047 161.414 23.8984C162.617 24.4297 163.578 25.0156 164.297 25.6562C165.016 26.2812 165.719 27.1562 166.406 28.2812C167.109 29.3906 168.008 31.2578 169.102 33.8828C170.398 37.0078 171.602 39.0859 172.711 40.1172C173.805 41.1484 175.008 41.6641 176.32 41.6641C177.086 41.6641 177.719 41.4922 178.219 41.1484C178.719 40.8203 178.969 40.4844 178.969 40.1406C178.969 39.9219 178.891 39.625 178.734 39.25C178.562 38.8438 178.477 38.5 178.477 38.2188C178.477 37.8594 178.617 37.5391 178.898 37.2578C179.18 36.9766 179.508 36.8359 179.883 36.8359C180.32 36.8359 180.695 37.0078 181.008 37.3516C181.32 37.7109 181.477 38.1797 181.477 38.7578C181.477 39.8828 180.961 40.8828 179.93 41.7578C178.898 42.6328 177.555 43.0703 175.898 43.0703C174.195 43.0703 172.672 42.6406 171.328 41.7812C169.984 40.9219 168.727 39.5469 167.555 37.6562C166.883 36.5625 165.711 34.0703 164.039 30.1797C163.258 28.3359 162.555 26.9531 161.93 26.0312C161.445 25.3125 160.781 24.6016 159.938 23.8984L157.664 34ZM160.125 22.9141C162.234 22.9297 163.938 22.7266 165.234 22.3047C166.547 21.8828 167.477 21.3203 168.023 20.6172C168.586 19.9141 168.867 19.1484 168.867 18.3203C168.867 17.7266 168.703 17.25 168.375 16.8906C168.062 16.5312 167.68 16.3516 167.227 16.3516C165.758 16.3516 163.508 17.9922 160.477 21.2734L160.125 22.9141ZM181.734 10.6797L185.461 9.25L183.773 15.8125H188.625L188.25 17.4766H183.398L181.336 25.3281C180.695 27.6875 180.375 29.3281 180.375 30.25C180.375 30.6719 180.461 30.9766 180.633 31.1641C180.82 31.3516 181.07 31.4453 181.383 31.4453C181.867 31.4453 182.609 31.1562 183.609 30.5781C184.922 29.8125 186.172 28.9453 187.359 27.9766L188.25 29.0547C184.828 31.6328 182.539 33.2109 181.383 33.7891C180.227 34.3672 179.297 34.6562 178.594 34.6562C178.016 34.6562 177.555 34.4453 177.211 34.0234C176.883 33.6016 176.719 32.9141 176.719 31.9609C176.719 30.8359 177.016 29.1172 177.609 26.8047L180.023 17.4766H176.227L176.648 15.8125H180.422L181.734 10.6797ZM202.172 14.2891C203.703 14.2891 204.977 14.8984 205.992 16.1172C207.008 17.3359 207.516 19.0312 207.516 21.2031C207.516 24.6719 206.297 27.7891 203.859 30.5547C201.422 33.3047 198.844 34.6797 196.125 34.6797C194.453 34.6797 193.102 34.1328 192.07 33.0391C191.055 31.9453 190.547 30.4531 190.547 28.5625C190.547 25.2812 191.484 22.25 193.359 19.4688C195.719 16.0156 198.656 14.2891 202.172 14.2891ZM200.18 16.0469C198.852 16.0469 197.562 17 196.312 18.9062C195.078 20.7969 194.461 23.4141 194.461 26.7578C194.461 28.7891 194.844 30.3906 195.609 31.5625C196.172 32.4219 196.922 32.8516 197.859 32.8516C199.172 32.8516 200.367 32.0391 201.445 30.4141C202.82 28.3047 203.508 25.6875 203.508 22.5625C203.508 20.2188 203.188 18.5469 202.547 17.5469C201.922 16.5469 201.133 16.0469 200.18 16.0469ZM204.633 4.63281H209.086L201.141 11.4297H199.758L204.633 4.63281ZM214.102 34H210.609L212.25 27.6953C213.047 24.6016 213.742 21.6641 214.336 18.8828C214.477 18.1953 214.547 17.7656 214.547 17.5938C214.547 17.2188 214.375 17.0312 214.031 17.0312C213.797 17.0312 213.438 17.1953 212.953 17.5234C212.469 17.8359 211.594 18.625 210.328 19.8906L209.602 19.0703C211.102 17.4609 212.594 16.2578 214.078 15.4609C215.578 14.6484 216.727 14.2422 217.523 14.2422C217.805 14.2422 218.023 14.3125 218.18 14.4531C218.352 14.5781 218.438 14.7422 218.438 14.9453C218.438 15.1484 218.336 15.6875 218.133 16.5625L217.125 20.7578C218.703 18.2734 220.484 16.1484 222.469 14.3828C223.422 13.5391 224.219 13.1172 224.859 13.1172C225.328 13.1172 225.719 13.2734 226.031 13.5859C226.344 13.8828 226.5 14.2344 226.5 14.6406C226.5 15.0625 226.344 15.4219 226.031 15.7188C225.734 16.0156 224.977 16.3672 223.758 16.7734C222.602 17.1641 221.656 17.6328 220.922 18.1797C220.203 18.7266 219.406 19.5625 218.531 20.6875C217.672 21.8125 217.07 22.7969 216.727 23.6406C216.383 24.4688 215.859 26.4062 215.156 29.4531L214.102 34ZM236.438 28.1172L237.211 29.1484C233.383 32.7891 230.102 34.6094 227.367 34.6094C226.258 34.6094 225.406 34.2344 224.812 33.4844C224.234 32.7344 223.945 31.5312 223.945 29.875C223.945 26.5312 224.961 23.2031 226.992 19.8906C229.273 16.125 232 14.2422 235.172 14.2422C236.281 14.2422 237.125 14.5234 237.703 15.0859C238.297 15.6328 238.594 16.3906 238.594 17.3594C238.594 18.375 238.242 19.375 237.539 20.3594C236.836 21.3438 235.578 22.3672 233.766 23.4297C232.859 23.9453 230.922 24.875 227.953 26.2188C227.812 27.0625 227.742 27.8672 227.742 28.6328C227.742 29.7422 227.914 30.5156 228.258 30.9531C228.617 31.3906 229.133 31.6094 229.805 31.6094C230.445 31.6094 231.148 31.4297 231.914 31.0703C232.945 30.5859 234.453 29.6016 236.438 28.1172ZM228.234 24.7188C230.75 23.5938 232.641 22.3828 233.906 21.0859C234.766 20.1797 235.195 19.2812 235.195 18.3906C235.195 17.7188 235.016 17.1875 234.656 16.7969C234.312 16.3906 233.859 16.1875 233.297 16.1875C232.719 16.1875 232.156 16.4062 231.609 16.8438C230.875 17.4219 230.258 18.2969 229.758 19.4688C229.039 21.1875 228.531 22.9375 228.234 24.7188ZM251.367 20.1016L250.453 19.1641C251.875 17.4609 253.289 16.2031 254.695 15.3906C256.102 14.5781 257.32 14.1719 258.352 14.1719C258.742 14.1719 259.047 14.2734 259.266 14.4766C259.5 14.6641 259.617 14.9453 259.617 15.3203C259.617 15.7734 259.562 16.2422 259.453 16.7266C259.359 17.1953 259.047 18.3203 258.516 20.1016C260.906 17.7109 262.539 16.2344 263.414 15.6719C264.883 14.7188 266.227 14.2422 267.445 14.2422C268.242 14.2422 268.914 14.6172 269.461 15.3672C270.008 16.1172 270.281 17.25 270.281 18.7656C270.281 22.5469 269.102 26.1406 266.742 29.5469C264.383 32.9531 261.773 34.6562 258.914 34.6562C257.789 34.6562 256.664 34.3516 255.539 33.7422L253.547 41.4766C253.422 41.9453 253.359 42.3281 253.359 42.625C253.359 43.2031 253.578 43.6172 254.016 43.8672C254.688 44.2578 256.102 44.5781 258.258 44.8281L257.953 46C255.438 45.7969 253.461 45.6953 252.023 45.6953C250.539 45.6953 248.617 45.7969 246.258 46L246.562 44.8281C247.75 44.7031 248.609 44.375 249.141 43.8438C249.688 43.3125 250.125 42.3672 250.453 41.0078L254.695 23.2188C255.492 19.9062 255.891 18.0625 255.891 17.6875C255.891 17.2812 255.695 17.0781 255.305 17.0781C254.617 17.0781 253.305 18.0859 251.367 20.1016ZM256.102 31.1641C257.336 32.3984 258.602 33.0156 259.898 33.0156C261.773 33.0156 263.414 31.5547 264.82 28.6328C266.242 25.7109 266.953 22.8594 266.953 20.0781C266.953 19.1875 266.75 18.5156 266.344 18.0625C265.953 17.5938 265.422 17.3594 264.75 17.3594C264 17.3594 263.156 17.7266 262.219 18.4609C260.766 19.6016 259.656 20.7344 258.891 21.8594C258.344 22.6719 257.828 24.0781 257.344 26.0781L256.102 31.1641ZM276.492 34H273L274.641 27.6953C275.438 24.6016 276.133 21.6641 276.727 18.8828C276.867 18.1953 276.938 17.7656 276.938 17.5938C276.938 17.2188 276.766 17.0312 276.422 17.0312C276.188 17.0312 275.828 17.1953 275.344 17.5234C274.859 17.8359 273.984 18.625 272.719 19.8906L271.992 19.0703C273.492 17.4609 274.984 16.2578 276.469 15.4609C277.969 14.6484 279.117 14.2422 279.914 14.2422C280.195 14.2422 280.414 14.3125 280.57 14.4531C280.742 14.5781 280.828 14.7422 280.828 14.9453C280.828 15.1484 280.727 15.6875 280.523 16.5625L279.516 20.7578C281.094 18.2734 282.875 16.1484 284.859 14.3828C285.812 13.5391 286.609 13.1172 287.25 13.1172C287.719 13.1172 288.109 13.2734 288.422 13.5859C288.734 13.8828 288.891 14.2344 288.891 14.6406C288.891 15.0625 288.734 15.4219 288.422 15.7188C288.125 16.0156 287.367 16.3672 286.148 16.7734C284.992 17.1641 284.047 17.6328 283.312 18.1797C282.594 18.7266 281.797 19.5625 280.922 20.6875C280.062 21.8125 279.461 22.7969 279.117 23.6406C278.773 24.4688 278.25 26.4062 277.547 29.4531L276.492 34ZM301.359 16.7266C299.938 17.1172 298.633 17.3125 297.445 17.3125C296.789 17.3125 296.062 17.2734 295.266 17.1953C294.156 17.0703 293.414 17.0078 293.039 17.0078C292.57 17.0078 292.211 17.1172 291.961 17.3359C291.711 17.5547 291.586 17.8359 291.586 18.1797C291.586 18.7109 291.867 19 292.43 19.0469C293.133 19.125 293.484 19.4453 293.484 20.0078C293.484 20.2734 293.375 20.5156 293.156 20.7344C292.938 20.9375 292.688 21.0391 292.406 21.0391C291.844 21.0391 291.32 20.7656 290.836 20.2188C290.367 19.6562 290.133 18.9609 290.133 18.1328C290.133 17.0703 290.578 16.1562 291.469 15.3906C292.359 14.625 293.461 14.2422 294.773 14.2422C295.461 14.2422 296.391 14.3359 297.562 14.5234C299.453 14.8203 300.812 14.9688 301.641 14.9688C302.484 14.9688 303.273 14.6875 304.008 14.125C304.352 13.875 304.633 13.75 304.852 13.75C305.039 13.75 305.195 13.8125 305.32 13.9375C305.461 14.0469 305.531 14.1562 305.531 14.2656C305.531 14.4219 305.445 14.5938 305.273 14.7812C304.742 15.4375 303.531 16.6719 301.641 18.4844L294.375 25.4453C292.25 27.4766 290.484 29.1172 289.078 30.3672C289.969 30.2734 290.664 30.2266 291.164 30.2266C291.867 30.2266 292.508 30.2891 293.086 30.4141C293.664 30.5234 294.594 30.7891 295.875 31.2109C297.547 31.7891 298.906 32.0781 299.953 32.0781C300.609 32.0781 301.109 31.9297 301.453 31.6328C301.812 31.3203 301.992 30.9297 301.992 30.4609C301.992 30.1953 301.867 29.8203 301.617 29.3359C301.398 28.8672 301.289 28.5078 301.289 28.2578C301.289 27.8828 301.414 27.5625 301.664 27.2969C301.914 27.0312 302.227 26.8984 302.602 26.8984C303.055 26.8984 303.43 27.0859 303.727 27.4609C304.039 27.8203 304.195 28.2891 304.195 28.8672C304.195 29.7422 303.875 30.6641 303.234 31.6328C302.594 32.5859 301.789 33.3203 300.82 33.8359C299.852 34.3516 298.656 34.6094 297.234 34.6094C296.062 34.6094 294.352 34.2734 292.102 33.6016C290.227 33.0547 288.852 32.7812 287.977 32.7812C287.445 32.7812 286.828 33.0625 286.125 33.625C285.719 33.9688 285.367 34.1406 285.07 34.1406C284.492 34.1406 284.203 34 284.203 33.7188C284.203 33.4531 284.367 33.1328 284.695 32.7578C285.57 31.7266 287.789 29.5938 291.352 26.3594C293.758 24.1719 295.867 22.1797 297.68 20.3828L301.359 16.7266ZM319.969 28.1172L320.742 29.1484C316.914 32.7891 313.633 34.6094 310.898 34.6094C309.789 34.6094 308.938 34.2344 308.344 33.4844C307.766 32.7344 307.477 31.5312 307.477 29.875C307.477 26.5312 308.492 23.2031 310.523 19.8906C312.805 16.125 315.531 14.2422 318.703 14.2422C319.812 14.2422 320.656 14.5234 321.234 15.0859C321.828 15.6328 322.125 16.3906 322.125 17.3594C322.125 18.375 321.773 19.375 321.07 20.3594C320.367 21.3438 319.109 22.3672 317.297 23.4297C316.391 23.9453 314.453 24.875 311.484 26.2188C311.344 27.0625 311.273 27.8672 311.273 28.6328C311.273 29.7422 311.445 30.5156 311.789 30.9531C312.148 31.3906 312.664 31.6094 313.336 31.6094C313.977 31.6094 314.68 31.4297 315.445 31.0703C316.477 30.5859 317.984 29.6016 319.969 28.1172ZM311.766 24.7188C314.281 23.5938 316.172 22.3828 317.438 21.0859C318.297 20.1797 318.727 19.2812 318.727 18.3906C318.727 17.7188 318.547 17.1875 318.188 16.7969C317.844 16.3906 317.391 16.1875 316.828 16.1875C316.25 16.1875 315.688 16.4062 315.141 16.8438C314.406 17.4219 313.789 18.2969 313.289 19.4688C312.57 21.1875 312.062 22.9375 311.766 24.7188ZM336.867 28.9141L337.359 30.2734C333.641 33.1953 330.5 34.6562 327.938 34.6562C326.578 34.6562 325.586 34.1719 324.961 33.2031C324.352 32.2344 324.047 31.0078 324.047 29.5234C324.047 27.0547 324.703 24.5156 326.016 21.9062C327.328 19.2969 328.922 17.2969 330.797 15.9062C332.266 14.8281 333.922 14.2891 335.766 14.2891C336.922 14.2891 337.797 14.5078 338.391 14.9453C338.984 15.3828 339.281 15.9141 339.281 16.5391C339.281 17.0234 339.125 17.4219 338.812 17.7344C338.5 18.0312 338.062 18.1797 337.5 18.1797C336.953 18.1797 336.25 17.9297 335.391 17.4297C334.5 16.8984 333.758 16.6328 333.164 16.6328C332.398 16.6328 331.633 16.9844 330.867 17.6875C330.117 18.375 329.398 19.7188 328.711 21.7188C328.023 23.7188 327.68 25.7266 327.68 27.7422C327.68 29.2266 327.969 30.375 328.547 31.1875C328.969 31.8125 329.562 32.125 330.328 32.125C332.156 32.125 334.336 31.0547 336.867 28.9141ZM355.125 16.7266C353.703 17.1172 352.398 17.3125 351.211 17.3125C350.555 17.3125 349.828 17.2734 349.031 17.1953C347.922 17.0703 347.18 17.0078 346.805 17.0078C346.336 17.0078 345.977 17.1172 345.727 17.3359C345.477 17.5547 345.352 17.8359 345.352 18.1797C345.352 18.7109 345.633 19 346.195 19.0469C346.898 19.125 347.25 19.4453 347.25 20.0078C347.25 20.2734 347.141 20.5156 346.922 20.7344C346.703 20.9375 346.453 21.0391 346.172 21.0391C345.609 21.0391 345.086 20.7656 344.602 20.2188C344.133 19.6562 343.898 18.9609 343.898 18.1328C343.898 17.0703 344.344 16.1562 345.234 15.3906C346.125 14.625 347.227 14.2422 348.539 14.2422C349.227 14.2422 350.156 14.3359 351.328 14.5234C353.219 14.8203 354.578 14.9688 355.406 14.9688C356.25 14.9688 357.039 14.6875 357.773 14.125C358.117 13.875 358.398 13.75 358.617 13.75C358.805 13.75 358.961 13.8125 359.086 13.9375C359.227 14.0469 359.297 14.1562 359.297 14.2656C359.297 14.4219 359.211 14.5938 359.039 14.7812C358.508 15.4375 357.297 16.6719 355.406 18.4844L348.141 25.4453C346.016 27.4766 344.25 29.1172 342.844 30.3672C343.734 30.2734 344.43 30.2266 344.93 30.2266C345.633 30.2266 346.273 30.2891 346.852 30.4141C347.43 30.5234 348.359 30.7891 349.641 31.2109C351.312 31.7891 352.672 32.0781 353.719 32.0781C354.375 32.0781 354.875 31.9297 355.219 31.6328C355.578 31.3203 355.758 30.9297 355.758 30.4609C355.758 30.1953 355.633 29.8203 355.383 29.3359C355.164 28.8672 355.055 28.5078 355.055 28.2578C355.055 27.8828 355.18 27.5625 355.43 27.2969C355.68 27.0312 355.992 26.8984 356.367 26.8984C356.82 26.8984 357.195 27.0859 357.492 27.4609C357.805 27.8203 357.961 28.2891 357.961 28.8672C357.961 29.7422 357.641 30.6641 357 31.6328C356.359 32.5859 355.555 33.3203 354.586 33.8359C353.617 34.3516 352.422 34.6094 351 34.6094C349.828 34.6094 348.117 34.2734 345.867 33.6016C343.992 33.0547 342.617 32.7812 341.742 32.7812C341.211 32.7812 340.594 33.0625 339.891 33.625C339.484 33.9688 339.133 34.1406 338.836 34.1406C338.258 34.1406 337.969 34 337.969 33.7188C337.969 33.4531 338.133 33.1328 338.461 32.7578C339.336 31.7266 341.555 29.5938 345.117 26.3594C347.523 24.1719 349.633 22.1797 351.445 20.3828L355.125 16.7266ZM361.383 19.0469L360.633 17.9453L362.367 16.7734C364.055 15.6172 365.242 14.875 365.93 14.5469C366.32 14.3594 366.68 14.2656 367.008 14.2656C367.336 14.2656 367.648 14.4531 367.945 14.8281C369.32 16.5625 370.477 18.9062 371.414 21.8594C372.352 24.7969 372.82 27.6484 372.82 30.4141C372.82 30.7734 372.805 31.3203 372.773 32.0547C375.414 27.1953 376.734 23.3359 376.734 20.4766C376.734 19.8828 376.602 19.0938 376.336 18.1094C376.055 17.0156 375.914 16.2344 375.914 15.7656C375.914 15.3125 376.055 14.9375 376.336 14.6406C376.633 14.3438 377 14.1953 377.438 14.1953C377.984 14.1953 378.422 14.4062 378.75 14.8281C379.094 15.25 379.266 15.8516 379.266 16.6328C379.266 18.6484 378.805 21.1641 377.883 24.1797C376.961 27.1797 375.508 30.4141 373.523 33.8828C371.555 37.3359 369.75 39.8984 368.109 41.5703C366.484 43.2578 364.906 44.4609 363.375 45.1797C361.859 45.9141 360.422 46.2812 359.062 46.2812C358.031 46.2812 357.258 46.0859 356.742 45.6953C356.211 45.3203 355.945 44.8672 355.945 44.3359C355.945 43.8672 356.148 43.4609 356.555 43.1172C356.961 42.7891 357.508 42.625 358.195 42.625C358.727 42.625 359.453 42.7266 360.375 42.9297C361.359 43.1484 362.031 43.2578 362.391 43.2578C363.344 43.2578 364.352 42.8594 365.414 42.0625C366.867 40.9688 368.016 39.6641 368.859 38.1484C369.719 36.6328 370.148 35.1016 370.148 33.5547C370.148 31.3828 369.828 28.7734 369.188 25.7266C368.562 22.6797 367.672 20.3516 366.516 18.7422C365.938 17.9141 365.32 17.5 364.664 17.5C363.898 17.5 362.805 18.0156 361.383 19.0469ZM387.234 10.6797L390.961 9.25L389.273 15.8125H394.125L393.75 17.4766H388.898L386.836 25.3281C386.195 27.6875 385.875 29.3281 385.875 30.25C385.875 30.6719 385.961 30.9766 386.133 31.1641C386.32 31.3516 386.57 31.4453 386.883 31.4453C387.367 31.4453 388.109 31.1562 389.109 30.5781C390.422 29.8125 391.672 28.9453 392.859 27.9766L393.75 29.0547C390.328 31.6328 388.039 33.2109 386.883 33.7891C385.727 34.3672 384.797 34.6562 384.094 34.6562C383.516 34.6562 383.055 34.4453 382.711 34.0234C382.383 33.6016 382.219 32.9141 382.219 31.9609C382.219 30.8359 382.516 29.1172 383.109 26.8047L385.523 17.4766H381.727L382.148 15.8125H385.922L387.234 10.6797ZM412.031 13.8906L413.578 13.5625L411.82 19.4922C411.117 21.8516 410.453 24.5703 409.828 27.6484C409.484 29.3203 409.312 30.3984 409.312 30.8828C409.312 31.3672 409.508 31.6094 409.898 31.6094C410.148 31.6094 410.547 31.4453 411.094 31.1172C412.062 30.5391 412.992 29.8203 413.883 28.9609L414.633 29.875C412.852 31.5 411.711 32.4844 411.211 32.8281C410.211 33.5156 409.258 34.0234 408.352 34.3516C407.758 34.5703 407.18 34.6797 406.617 34.6797C406.211 34.6797 405.906 34.5859 405.703 34.3984C405.5 34.2109 405.398 33.9375 405.398 33.5781C405.398 33.3438 405.461 33.0234 405.586 32.6172L406.523 29.4297C405.18 31.0391 403.578 32.4219 401.719 33.5781C400.578 34.2969 399.531 34.6562 398.578 34.6562C397.672 34.6562 396.977 34.3359 396.492 33.6953C395.836 32.8359 395.508 31.7109 395.508 30.3203C395.508 28.6641 395.945 26.8203 396.82 24.7891C397.711 22.7578 398.898 20.9141 400.383 19.2578C401.867 17.6016 403.43 16.3828 405.07 15.6016C406.336 15.0078 407.961 14.7109 409.945 14.7109C410.445 14.7109 410.953 14.7422 411.469 14.8047L412.031 13.8906ZM409.125 17.4766C408.281 17.3047 407.57 17.2188 406.992 17.2188C405.586 17.2188 404.359 17.6094 403.312 18.3906C402.266 19.1562 401.289 20.5469 400.383 22.5625C399.492 24.5625 399.047 26.5625 399.047 28.5625C399.047 29.625 399.227 30.3906 399.586 30.8594C399.945 31.3281 400.414 31.5625 400.992 31.5625C402.07 31.5625 403.227 30.9844 404.461 29.8281C405.695 28.6562 406.602 26.9766 407.18 24.7891L409.125 17.4766ZM424.195 19.3047L423.164 23.6172L421.617 30.3906C421.508 30.8438 421.453 31.1641 421.453 31.3516C421.453 31.8359 421.641 32.0781 422.016 32.0781C422.297 32.0781 422.617 31.9766 422.977 31.7734C423.477 31.4922 424.352 30.8281 425.602 29.7812C426.539 29.0156 427.133 28.5391 427.383 28.3516L428.18 29.1953C426.977 30.5703 425.539 31.8281 423.867 32.9688C422.195 34.0938 420.828 34.6562 419.766 34.6562C419.281 34.6562 418.875 34.4688 418.547 34.0938C418.234 33.7344 418.078 33.2422 418.078 32.6172C418.078 31.3672 418.562 28.7656 419.531 24.8125L420.258 21.9531L415.289 25.2578L415.781 23.1484L420.773 19.8203L422.086 14.5234C423.055 10.5703 423.789 8.09375 424.289 7.09375C425.18 5.28125 426.539 3.8125 428.367 2.6875C430.211 1.54687 432.125 0.976562 434.109 0.976562C434.781 0.976562 435.305 1.13281 435.68 1.44531C436.055 1.75781 436.242 2.14844 436.242 2.61719C436.242 3.07031 436.047 3.46875 435.656 3.8125C435.266 4.15625 434.742 4.32812 434.086 4.32812C433.617 4.32812 432.945 4.25 432.07 4.09375C431.336 3.96875 430.648 3.90625 430.008 3.90625C429.352 3.90625 428.859 4.03906 428.531 4.30469C428.094 4.67969 427.695 5.4375 427.336 6.57812C426.992 7.70312 426.383 10.1094 425.508 13.7969L424.688 17.1953L431.812 12.4375L431.297 14.5469L424.195 19.3047ZM442.875 28.1172L443.648 29.1484C439.82 32.7891 436.539 34.6094 433.805 34.6094C432.695 34.6094 431.844 34.2344 431.25 33.4844C430.672 32.7344 430.383 31.5312 430.383 29.875C430.383 26.5312 431.398 23.2031 433.43 19.8906C435.711 16.125 438.438 14.2422 441.609 14.2422C442.719 14.2422 443.562 14.5234 444.141 15.0859C444.734 15.6328 445.031 16.3906 445.031 17.3594C445.031 18.375 444.68 19.375 443.977 20.3594C443.273 21.3438 442.016 22.3672 440.203 23.4297C439.297 23.9453 437.359 24.875 434.391 26.2188C434.25 27.0625 434.18 27.8672 434.18 28.6328C434.18 29.7422 434.352 30.5156 434.695 30.9531C435.055 31.3906 435.57 31.6094 436.242 31.6094C436.883 31.6094 437.586 31.4297 438.352 31.0703C439.383 30.5859 440.891 29.6016 442.875 28.1172ZM434.672 24.7188C437.188 23.5938 439.078 22.3828 440.344 21.0859C441.203 20.1797 441.633 19.2812 441.633 18.3906C441.633 17.7188 441.453 17.1875 441.094 16.7969C440.75 16.3906 440.297 16.1875 439.734 16.1875C439.156 16.1875 438.594 16.4062 438.047 16.8438C437.312 17.4219 436.695 18.2969 436.195 19.4688C435.477 21.1875 434.969 22.9375 434.672 24.7188ZM447.539 19.6797L446.836 18.7422C448.383 17.1953 449.852 16.0547 451.242 15.3203C452.633 14.5859 453.727 14.2188 454.523 14.2188C454.852 14.2188 455.094 14.2891 455.25 14.4297C455.422 14.5703 455.508 14.7656 455.508 15.0156C455.508 15.3281 455.383 15.9297 455.133 16.8203C454.773 18.1328 454.523 19.1719 454.383 19.9375C458.133 16.125 461 14.2188 462.984 14.2188C463.5 14.2188 463.891 14.3594 464.156 14.6406C464.422 14.9219 464.555 15.3672 464.555 15.9766C464.555 16.6328 464.32 17.75 463.852 19.3281C465.633 17.4688 467.18 16.1562 468.492 15.3906C469.805 14.6094 470.828 14.2188 471.562 14.2188C472.219 14.2188 472.727 14.4062 473.086 14.7812C473.445 15.1562 473.625 15.7344 473.625 16.5156C473.625 16.9844 473.547 17.5391 473.391 18.1797C473.234 18.8203 472.664 20.7734 471.68 24.0391C470.445 28.0859 469.828 30.5 469.828 31.2812C469.828 31.8125 470.047 32.0781 470.484 32.0781C470.781 32.0781 471.07 31.9844 471.352 31.7969C472.273 31.1406 473.219 30.3281 474.188 29.3594L474.961 30.2031C474.633 30.4688 474.016 31.0156 473.109 31.8438C471.859 32.9688 471 33.6719 470.531 33.9531C469.625 34.4844 468.859 34.75 468.234 34.75C467.766 34.75 467.352 34.5156 466.992 34.0469C466.633 33.5938 466.453 32.9609 466.453 32.1484C466.453 31.3984 466.562 30.5234 466.781 29.5234C467 28.5078 467.641 26.2422 468.703 22.7266C469.5 20.0859 469.898 18.4844 469.898 17.9219C469.898 17.3906 469.664 17.125 469.195 17.125C468.805 17.125 468.281 17.3203 467.625 17.7109C466.281 18.5234 465.156 19.5156 464.25 20.6875C463.625 21.5 463.078 22.7891 462.609 24.5547C461.562 28.4141 460.781 31.5625 460.266 34H456.938L460.43 19.6797C460.68 18.6484 460.805 18.0547 460.805 17.8984C460.805 17.6484 460.742 17.4609 460.617 17.3359C460.492 17.1953 460.312 17.125 460.078 17.125C459.656 17.125 459 17.4531 458.109 18.1094C456.562 19.2188 455.445 20.2969 454.758 21.3438C454.086 22.375 453.508 23.9531 453.023 26.0781L451.219 34H447.867L450.516 22.8203C451.297 19.5859 451.688 17.8281 451.688 17.5469C451.688 17.1875 451.547 17.0078 451.266 17.0078C450.656 17.0078 449.414 17.8984 447.539 19.6797ZM473.906 41.2891L473.461 39.7656C474.883 38.6719 475.977 37.5938 476.742 36.5312C477.242 35.8281 477.492 35.25 477.492 34.7969C477.492 34.3438 477.305 33.7656 476.93 33.0625C476.555 32.3438 476.367 31.75 476.367 31.2812C476.367 30.6875 476.578 30.1719 477 29.7344C477.422 29.2969 477.922 29.0781 478.5 29.0781C479.141 29.0781 479.688 29.3438 480.141 29.875C480.609 30.3906 480.844 31.0156 480.844 31.75C480.844 32.5938 480.609 33.5469 480.141 34.6094C479.672 35.6875 478.961 36.7344 478.008 37.75C476.711 39.1562 475.344 40.3359 473.906 41.2891ZM501.445 34H497.953L501.023 21.2266C502.508 14.8984 503.477 11 503.93 9.53125C504.398 8.0625 504.953 6.85156 505.594 5.89844C506.25 4.94531 507.062 4.09375 508.031 3.34375C509.016 2.59375 510.07 2.02344 511.195 1.63281C512.336 1.22656 513.336 1.02344 514.195 1.02344C515.008 1.02344 515.609 1.17969 516 1.49219C516.406 1.80469 516.609 2.21875 516.609 2.73438C516.609 3.17188 516.43 3.54688 516.07 3.85938C515.711 4.17187 515.258 4.32812 514.711 4.32812C514.023 4.32812 512.984 4.21094 511.594 3.97656C511.141 3.88281 510.742 3.83594 510.398 3.83594C509.914 3.83594 509.453 4.00781 509.016 4.35156C508.594 4.69531 508.211 5.3125 507.867 6.20312C507.539 7.07812 507.07 8.90625 506.461 11.6875L504.797 19.1875C506.297 17.4844 507.852 16.1719 509.461 15.25C510.68 14.5625 511.844 14.2188 512.953 14.2188C513.734 14.2188 514.391 14.5156 514.922 15.1094C515.469 15.6875 515.742 16.4219 515.742 17.3125C515.742 18.9844 514.875 20.4766 513.141 21.7891C511.406 23.1016 508.758 23.8047 505.195 23.8984C506.398 24.4297 507.359 25.0156 508.078 25.6562C508.797 26.2812 509.5 27.1562 510.188 28.2812C510.891 29.3906 511.789 31.2578 512.883 33.8828C514.18 37.0078 515.383 39.0859 516.492 40.1172C517.586 41.1484 518.789 41.6641 520.102 41.6641C520.867 41.6641 521.5 41.4922 522 41.1484C522.5 40.8203 522.75 40.4844 522.75 40.1406C522.75 39.9219 522.672 39.625 522.516 39.25C522.344 38.8438 522.258 38.5 522.258 38.2188C522.258 37.8594 522.398 37.5391 522.68 37.2578C522.961 36.9766 523.289 36.8359 523.664 36.8359C524.102 36.8359 524.477 37.0078 524.789 37.3516C525.102 37.7109 525.258 38.1797 525.258 38.7578C525.258 39.8828 524.742 40.8828 523.711 41.7578C522.68 42.6328 521.336 43.0703 519.68 43.0703C517.977 43.0703 516.453 42.6406 515.109 41.7812C513.766 40.9219 512.508 39.5469 511.336 37.6562C510.664 36.5625 509.492 34.0703 507.82 30.1797C507.039 28.3359 506.336 26.9531 505.711 26.0312C505.227 25.3125 504.562 24.6016 503.719 23.8984L501.445 34ZM503.906 22.9141C506.016 22.9297 507.719 22.7266 509.016 22.3047C510.328 21.8828 511.258 21.3203 511.805 20.6172C512.367 19.9141 512.648 19.1484 512.648 18.3203C512.648 17.7266 512.484 17.25 512.156 16.8906C511.844 16.5312 511.461 16.3516 511.008 16.3516C509.539 16.3516 507.289 17.9922 504.258 21.2734L503.906 22.9141ZM525.516 10.6797L529.242 9.25L527.555 15.8125H532.406L532.031 17.4766H527.18L525.117 25.3281C524.477 27.6875 524.156 29.3281 524.156 30.25C524.156 30.6719 524.242 30.9766 524.414 31.1641C524.602 31.3516 524.852 31.4453 525.164 31.4453C525.648 31.4453 526.391 31.1562 527.391 30.5781C528.703 29.8125 529.953 28.9453 531.141 27.9766L532.031 29.0547C528.609 31.6328 526.32 33.2109 525.164 33.7891C524.008 34.3672 523.078 34.6562 522.375 34.6562C521.797 34.6562 521.336 34.4453 520.992 34.0234C520.664 33.6016 520.5 32.9141 520.5 31.9609C520.5 30.8359 520.797 29.1172 521.391 26.8047L523.805 17.4766H520.008L520.43 15.8125H524.203L525.516 10.6797ZM545.953 14.2891C547.484 14.2891 548.758 14.8984 549.773 16.1172C550.789 17.3359 551.297 19.0312 551.297 21.2031C551.297 24.6719 550.078 27.7891 547.641 30.5547C545.203 33.3047 542.625 34.6797 539.906 34.6797C538.234 34.6797 536.883 34.1328 535.852 33.0391C534.836 31.9453 534.328 30.4531 534.328 28.5625C534.328 25.2812 535.266 22.25 537.141 19.4688C539.5 16.0156 542.438 14.2891 545.953 14.2891ZM543.961 16.0469C542.633 16.0469 541.344 17 540.094 18.9062C538.859 20.7969 538.242 23.4141 538.242 26.7578C538.242 28.7891 538.625 30.3906 539.391 31.5625C539.953 32.4219 540.703 32.8516 541.641 32.8516C542.953 32.8516 544.148 32.0391 545.227 30.4141C546.602 28.3047 547.289 25.6875 547.289 22.5625C547.289 20.2188 546.969 18.5469 546.328 17.5469C545.703 16.5469 544.914 16.0469 543.961 16.0469ZM548.414 4.63281H552.867L544.922 11.4297H543.539L548.414 4.63281ZM557.883 34H554.391L556.031 27.6953C556.828 24.6016 557.523 21.6641 558.117 18.8828C558.258 18.1953 558.328 17.7656 558.328 17.5938C558.328 17.2188 558.156 17.0312 557.812 17.0312C557.578 17.0312 557.219 17.1953 556.734 17.5234C556.25 17.8359 555.375 18.625 554.109 19.8906L553.383 19.0703C554.883 17.4609 556.375 16.2578 557.859 15.4609C559.359 14.6484 560.508 14.2422 561.305 14.2422C561.586 14.2422 561.805 14.3125 561.961 14.4531C562.133 14.5781 562.219 14.7422 562.219 14.9453C562.219 15.1484 562.117 15.6875 561.914 16.5625L560.906 20.7578C562.484 18.2734 564.266 16.1484 566.25 14.3828C567.203 13.5391 568 13.1172 568.641 13.1172C569.109 13.1172 569.5 13.2734 569.812 13.5859C570.125 13.8828 570.281 14.2344 570.281 14.6406C570.281 15.0625 570.125 15.4219 569.812 15.7188C569.516 16.0156 568.758 16.3672 567.539 16.7734C566.383 17.1641 565.438 17.6328 564.703 18.1797C563.984 18.7266 563.188 19.5625 562.312 20.6875C561.453 21.8125 560.852 22.7969 560.508 23.6406C560.164 24.4688 559.641 26.4062 558.938 29.4531L557.883 34ZM580.219 28.1172L580.992 29.1484C577.164 32.7891 573.883 34.6094 571.148 34.6094C570.039 34.6094 569.188 34.2344 568.594 33.4844C568.016 32.7344 567.727 31.5312 567.727 29.875C567.727 26.5312 568.742 23.2031 570.773 19.8906C573.055 16.125 575.781 14.2422 578.953 14.2422C580.062 14.2422 580.906 14.5234 581.484 15.0859C582.078 15.6328 582.375 16.3906 582.375 17.3594C582.375 18.375 582.023 19.375 581.32 20.3594C580.617 21.3438 579.359 22.3672 577.547 23.4297C576.641 23.9453 574.703 24.875 571.734 26.2188C571.594 27.0625 571.523 27.8672 571.523 28.6328C571.523 29.7422 571.695 30.5156 572.039 30.9531C572.398 31.3906 572.914 31.6094 573.586 31.6094C574.227 31.6094 574.93 31.4297 575.695 31.0703C576.727 30.5859 578.234 29.6016 580.219 28.1172ZM572.016 24.7188C574.531 23.5938 576.422 22.3828 577.688 21.0859C578.547 20.1797 578.977 19.2812 578.977 18.3906C578.977 17.7188 578.797 17.1875 578.438 16.7969C578.094 16.3906 577.641 16.1875 577.078 16.1875C576.5 16.1875 575.938 16.4062 575.391 16.8438C574.656 17.4219 574.039 18.2969 573.539 19.4688C572.82 21.1875 572.312 22.9375 572.016 24.7188ZM595.43 19.6797L594.727 18.7422C596.273 17.1953 597.742 16.0547 599.133 15.3203C600.523 14.5859 601.617 14.2188 602.414 14.2188C602.742 14.2188 602.984 14.2891 603.141 14.4297C603.312 14.5703 603.398 14.7656 603.398 15.0156C603.398 15.3281 603.273 15.9297 603.023 16.8203C602.664 18.1328 602.414 19.1719 602.273 19.9375C606.023 16.125 608.891 14.2188 610.875 14.2188C611.391 14.2188 611.781 14.3594 612.047 14.6406C612.312 14.9219 612.445 15.3672 612.445 15.9766C612.445 16.6328 612.211 17.75 611.742 19.3281C613.523 17.4688 615.07 16.1562 616.383 15.3906C617.695 14.6094 618.719 14.2188 619.453 14.2188C620.109 14.2188 620.617 14.4062 620.977 14.7812C621.336 15.1562 621.516 15.7344 621.516 16.5156C621.516 16.9844 621.438 17.5391 621.281 18.1797C621.125 18.8203 620.555 20.7734 619.57 24.0391C618.336 28.0859 617.719 30.5 617.719 31.2812C617.719 31.8125 617.938 32.0781 618.375 32.0781C618.672 32.0781 618.961 31.9844 619.242 31.7969C620.164 31.1406 621.109 30.3281 622.078 29.3594L622.852 30.2031C622.523 30.4688 621.906 31.0156 621 31.8438C619.75 32.9688 618.891 33.6719 618.422 33.9531C617.516 34.4844 616.75 34.75 616.125 34.75C615.656 34.75 615.242 34.5156 614.883 34.0469C614.523 33.5938 614.344 32.9609 614.344 32.1484C614.344 31.3984 614.453 30.5234 614.672 29.5234C614.891 28.5078 615.531 26.2422 616.594 22.7266C617.391 20.0859 617.789 18.4844 617.789 17.9219C617.789 17.3906 617.555 17.125 617.086 17.125C616.695 17.125 616.172 17.3203 615.516 17.7109C614.172 18.5234 613.047 19.5156 612.141 20.6875C611.516 21.5 610.969 22.7891 610.5 24.5547C609.453 28.4141 608.672 31.5625 608.156 34H604.828L608.32 19.6797C608.57 18.6484 608.695 18.0547 608.695 17.8984C608.695 17.6484 608.633 17.4609 608.508 17.3359C608.383 17.1953 608.203 17.125 607.969 17.125C607.547 17.125 606.891 17.4531 606 18.1094C604.453 19.2188 603.336 20.2969 602.648 21.3438C601.977 22.375 601.398 23.9531 600.914 26.0781L599.109 34H595.758L598.406 22.8203C599.188 19.5859 599.578 17.8281 599.578 17.5469C599.578 17.1875 599.438 17.0078 599.156 17.0078C598.547 17.0078 597.305 17.8984 595.43 19.6797ZM640.547 13.8906L642.094 13.5625L640.336 19.4922C639.633 21.8516 638.969 24.5703 638.344 27.6484C638 29.3203 637.828 30.3984 637.828 30.8828C637.828 31.3672 638.023 31.6094 638.414 31.6094C638.664 31.6094 639.062 31.4453 639.609 31.1172C640.578 30.5391 641.508 29.8203 642.398 28.9609L643.148 29.875C641.367 31.5 640.227 32.4844 639.727 32.8281C638.727 33.5156 637.773 34.0234 636.867 34.3516C636.273 34.5703 635.695 34.6797 635.133 34.6797C634.727 34.6797 634.422 34.5859 634.219 34.3984C634.016 34.2109 633.914 33.9375 633.914 33.5781C633.914 33.3438 633.977 33.0234 634.102 32.6172L635.039 29.4297C633.695 31.0391 632.094 32.4219 630.234 33.5781C629.094 34.2969 628.047 34.6562 627.094 34.6562C626.188 34.6562 625.492 34.3359 625.008 33.6953C624.352 32.8359 624.023 31.7109 624.023 30.3203C624.023 28.6641 624.461 26.8203 625.336 24.7891C626.227 22.7578 627.414 20.9141 628.898 19.2578C630.383 17.6016 631.945 16.3828 633.586 15.6016C634.852 15.0078 636.477 14.7109 638.461 14.7109C638.961 14.7109 639.469 14.7422 639.984 14.8047L640.547 13.8906ZM637.641 17.4766C636.797 17.3047 636.086 17.2188 635.508 17.2188C634.102 17.2188 632.875 17.6094 631.828 18.3906C630.781 19.1562 629.805 20.5469 628.898 22.5625C628.008 24.5625 627.562 26.5625 627.562 28.5625C627.562 29.625 627.742 30.3906 628.102 30.8594C628.461 31.3281 628.93 31.5625 629.508 31.5625C630.586 31.5625 631.742 30.9844 632.977 29.8281C634.211 28.6562 635.117 26.9766 635.695 24.7891L637.641 17.4766ZM645.352 19.6797L644.648 18.7422C646.195 17.1953 647.664 16.0547 649.055 15.3203C650.445 14.5859 651.539 14.2188 652.336 14.2188C652.664 14.2188 652.906 14.2891 653.062 14.4297C653.234 14.5703 653.32 14.7656 653.32 15.0156C653.32 15.3281 653.195 15.9297 652.945 16.8203C652.586 18.1328 652.336 19.1719 652.195 19.9375C655.945 16.125 658.812 14.2188 660.797 14.2188C661.312 14.2188 661.703 14.3594 661.969 14.6406C662.234 14.9219 662.367 15.3672 662.367 15.9766C662.367 16.6328 662.133 17.75 661.664 19.3281C663.445 17.4688 664.992 16.1562 666.305 15.3906C667.617 14.6094 668.641 14.2188 669.375 14.2188C670.031 14.2188 670.539 14.4062 670.898 14.7812C671.258 15.1562 671.438 15.7344 671.438 16.5156C671.438 16.9844 671.359 17.5391 671.203 18.1797C671.047 18.8203 670.477 20.7734 669.492 24.0391C668.258 28.0859 667.641 30.5 667.641 31.2812C667.641 31.8125 667.859 32.0781 668.297 32.0781C668.594 32.0781 668.883 31.9844 669.164 31.7969C670.086 31.1406 671.031 30.3281 672 29.3594L672.773 30.2031C672.445 30.4688 671.828 31.0156 670.922 31.8438C669.672 32.9688 668.812 33.6719 668.344 33.9531C667.438 34.4844 666.672 34.75 666.047 34.75C665.578 34.75 665.164 34.5156 664.805 34.0469C664.445 33.5938 664.266 32.9609 664.266 32.1484C664.266 31.3984 664.375 30.5234 664.594 29.5234C664.812 28.5078 665.453 26.2422 666.516 22.7266C667.312 20.0859 667.711 18.4844 667.711 17.9219C667.711 17.3906 667.477 17.125 667.008 17.125C666.617 17.125 666.094 17.3203 665.438 17.7109C664.094 18.5234 662.969 19.5156 662.062 20.6875C661.438 21.5 660.891 22.7891 660.422 24.5547C659.375 28.4141 658.594 31.5625 658.078 34H654.75L658.242 19.6797C658.492 18.6484 658.617 18.0547 658.617 17.8984C658.617 17.6484 658.555 17.4609 658.43 17.3359C658.305 17.1953 658.125 17.125 657.891 17.125C657.469 17.125 656.812 17.4531 655.922 18.1094C654.375 19.2188 653.258 20.2969 652.57 21.3438C651.898 22.375 651.32 23.9531 650.836 26.0781L649.031 34H645.68L648.328 22.8203C649.109 19.5859 649.5 17.8281 649.5 17.5469C649.5 17.1875 649.359 17.0078 649.078 17.0078C648.469 17.0078 647.227 17.8984 645.352 19.6797ZM671.719 41.2891L671.273 39.7656C672.695 38.6719 673.789 37.5938 674.555 36.5312C675.055 35.8281 675.305 35.25 675.305 34.7969C675.305 34.3438 675.117 33.7656 674.742 33.0625C674.367 32.3438 674.18 31.75 674.18 31.2812C674.18 30.6875 674.391 30.1719 674.812 29.7344C675.234 29.2969 675.734 29.0781 676.312 29.0781C676.953 29.0781 677.5 29.3438 677.953 29.875C678.422 30.3906 678.656 31.0156 678.656 31.75C678.656 32.5938 678.422 33.5469 677.953 34.6094C677.484 35.6875 676.773 36.7344 675.82 37.75C674.523 39.1562 673.156 40.3359 671.719 41.2891ZM509.18 88H505.688L508.758 75.2266C510.242 68.8984 511.211 65 511.664 63.5312C512.133 62.0625 512.688 60.8516 513.328 59.8984C513.984 58.9453 514.797 58.0938 515.766 57.3438C516.75 56.5938 517.805 56.0234 518.93 55.6328C520.07 55.2266 521.07 55.0234 521.93 55.0234C522.742 55.0234 523.344 55.1797 523.734 55.4922C524.141 55.8047 524.344 56.2188 524.344 56.7344C524.344 57.1719 524.164 57.5469 523.805 57.8594C523.445 58.1719 522.992 58.3281 522.445 58.3281C521.758 58.3281 520.719 58.2109 519.328 57.9766C518.875 57.8828 518.477 57.8359 518.133 57.8359C517.648 57.8359 517.188 58.0078 516.75 58.3516C516.328 58.6953 515.945 59.3125 515.602 60.2031C515.273 61.0781 514.805 62.9062 514.195 65.6875L512.531 73.1875C514.031 71.4844 515.586 70.1719 517.195 69.25C518.414 68.5625 519.578 68.2188 520.688 68.2188C521.469 68.2188 522.125 68.5156 522.656 69.1094C523.203 69.6875 523.477 70.4219 523.477 71.3125C523.477 72.9844 522.609 74.4766 520.875 75.7891C519.141 77.1016 516.492 77.8047 512.93 77.8984C514.133 78.4297 515.094 79.0156 515.812 79.6562C516.531 80.2812 517.234 81.1562 517.922 82.2812C518.625 83.3906 519.523 85.2578 520.617 87.8828C521.914 91.0078 523.117 93.0859 524.227 94.1172C525.32 95.1484 526.523 95.6641 527.836 95.6641C528.602 95.6641 529.234 95.4922 529.734 95.1484C530.234 94.8203 530.484 94.4844 530.484 94.1406C530.484 93.9219 530.406 93.625 530.25 93.25C530.078 92.8438 529.992 92.5 529.992 92.2188C529.992 91.8594 530.133 91.5391 530.414 91.2578C530.695 90.9766 531.023 90.8359 531.398 90.8359C531.836 90.8359 532.211 91.0078 532.523 91.3516C532.836 91.7109 532.992 92.1797 532.992 92.7578C532.992 93.8828 532.477 94.8828 531.445 95.7578C530.414 96.6328 529.07 97.0703 527.414 97.0703C525.711 97.0703 524.188 96.6406 522.844 95.7812C521.5 94.9219 520.242 93.5469 519.07 91.6562C518.398 90.5625 517.227 88.0703 515.555 84.1797C514.773 82.3359 514.07 80.9531 513.445 80.0312C512.961 79.3125 512.297 78.6016 511.453 77.8984L509.18 88ZM511.641 76.9141C513.75 76.9297 515.453 76.7266 516.75 76.3047C518.062 75.8828 518.992 75.3203 519.539 74.6172C520.102 73.9141 520.383 73.1484 520.383 72.3203C520.383 71.7266 520.219 71.25 519.891 70.8906C519.578 70.5312 519.195 70.3516 518.742 70.3516C517.273 70.3516 515.023 71.9922 511.992 75.2734L511.641 76.9141ZM533.25 64.6797L536.977 63.25L535.289 69.8125H540.141L539.766 71.4766H534.914L532.852 79.3281C532.211 81.6875 531.891 83.3281 531.891 84.25C531.891 84.6719 531.977 84.9766 532.148 85.1641C532.336 85.3516 532.586 85.4453 532.898 85.4453C533.383 85.4453 534.125 85.1562 535.125 84.5781C536.438 83.8125 537.688 82.9453 538.875 81.9766L539.766 83.0547C536.344 85.6328 534.055 87.2109 532.898 87.7891C531.742 88.3672 530.812 88.6562 530.109 88.6562C529.531 88.6562 529.07 88.4453 528.727 88.0234C528.398 87.6016 528.234 86.9141 528.234 85.9609C528.234 84.8359 528.531 83.1172 529.125 80.8047L531.539 71.4766H527.742L528.164 69.8125H531.938L533.25 64.6797ZM553.688 68.2891C555.219 68.2891 556.492 68.8984 557.508 70.1172C558.523 71.3359 559.031 73.0312 559.031 75.2031C559.031 78.6719 557.812 81.7891 555.375 84.5547C552.938 87.3047 550.359 88.6797 547.641 88.6797C545.969 88.6797 544.617 88.1328 543.586 87.0391C542.57 85.9453 542.062 84.4531 542.062 82.5625C542.062 79.2812 543 76.25 544.875 73.4688C547.234 70.0156 550.172 68.2891 553.688 68.2891ZM551.695 70.0469C550.367 70.0469 549.078 71 547.828 72.9062C546.594 74.7969 545.977 77.4141 545.977 80.7578C545.977 82.7891 546.359 84.3906 547.125 85.5625C547.688 86.4219 548.438 86.8516 549.375 86.8516C550.688 86.8516 551.883 86.0391 552.961 84.4141C554.336 82.3047 555.023 79.6875 555.023 76.5625C555.023 74.2188 554.703 72.5469 554.062 71.5469C553.438 70.5469 552.648 70.0469 551.695 70.0469ZM556.148 58.6328H560.602L552.656 65.4297H551.273L556.148 58.6328ZM565.617 88H562.125L563.766 81.6953C564.562 78.6016 565.258 75.6641 565.852 72.8828C565.992 72.1953 566.062 71.7656 566.062 71.5938C566.062 71.2188 565.891 71.0312 565.547 71.0312C565.312 71.0312 564.953 71.1953 564.469 71.5234C563.984 71.8359 563.109 72.625 561.844 73.8906L561.117 73.0703C562.617 71.4609 564.109 70.2578 565.594 69.4609C567.094 68.6484 568.242 68.2422 569.039 68.2422C569.32 68.2422 569.539 68.3125 569.695 68.4531C569.867 68.5781 569.953 68.7422 569.953 68.9453C569.953 69.1484 569.852 69.6875 569.648 70.5625L568.641 74.7578C570.219 72.2734 572 70.1484 573.984 68.3828C574.938 67.5391 575.734 67.1172 576.375 67.1172C576.844 67.1172 577.234 67.2734 577.547 67.5859C577.859 67.8828 578.016 68.2344 578.016 68.6406C578.016 69.0625 577.859 69.4219 577.547 69.7188C577.25 70.0156 576.492 70.3672 575.273 70.7734C574.117 71.1641 573.172 71.6328 572.438 72.1797C571.719 72.7266 570.922 73.5625 570.047 74.6875C569.188 75.8125 568.586 76.7969 568.242 77.6406C567.898 78.4688 567.375 80.4062 566.672 83.4531L565.617 88ZM587.953 82.1172L588.727 83.1484C584.898 86.7891 581.617 88.6094 578.883 88.6094C577.773 88.6094 576.922 88.2344 576.328 87.4844C575.75 86.7344 575.461 85.5312 575.461 83.875C575.461 80.5312 576.477 77.2031 578.508 73.8906C580.789 70.125 583.516 68.2422 586.688 68.2422C587.797 68.2422 588.641 68.5234 589.219 69.0859C589.812 69.6328 590.109 70.3906 590.109 71.3594C590.109 72.375 589.758 73.375 589.055 74.3594C588.352 75.3438 587.094 76.3672 585.281 77.4297C584.375 77.9453 582.438 78.875 579.469 80.2188C579.328 81.0625 579.258 81.8672 579.258 82.6328C579.258 83.7422 579.43 84.5156 579.773 84.9531C580.133 85.3906 580.648 85.6094 581.32 85.6094C581.961 85.6094 582.664 85.4297 583.43 85.0703C584.461 84.5859 585.969 83.6016 587.953 82.1172ZM579.75 78.7188C582.266 77.5938 584.156 76.3828 585.422 75.0859C586.281 74.1797 586.711 73.2812 586.711 72.3906C586.711 71.7188 586.531 71.1875 586.172 70.7969C585.828 70.3906 585.375 70.1875 584.812 70.1875C584.234 70.1875 583.672 70.4062 583.125 70.8438C582.391 71.4219 581.773 72.2969 581.273 73.4688C580.555 75.1875 580.047 76.9375 579.75 78.7188ZM615.398 82.9141L615.891 84.2734C612.172 87.1953 609.031 88.6562 606.469 88.6562C605.109 88.6562 604.117 88.1719 603.492 87.2031C602.883 86.2344 602.578 85.0078 602.578 83.5234C602.578 81.0547 603.234 78.5156 604.547 75.9062C605.859 73.2969 607.453 71.2969 609.328 69.9062C610.797 68.8281 612.453 68.2891 614.297 68.2891C615.453 68.2891 616.328 68.5078 616.922 68.9453C617.516 69.3828 617.812 69.9141 617.812 70.5391C617.812 71.0234 617.656 71.4219 617.344 71.7344C617.031 72.0312 616.594 72.1797 616.031 72.1797C615.484 72.1797 614.781 71.9297 613.922 71.4297C613.031 70.8984 612.289 70.6328 611.695 70.6328C610.93 70.6328 610.164 70.9844 609.398 71.6875C608.648 72.375 607.93 73.7188 607.242 75.7188C606.555 77.7188 606.211 79.7266 606.211 81.7422C606.211 83.2266 606.5 84.375 607.078 85.1875C607.5 85.8125 608.094 86.125 608.859 86.125C610.688 86.125 612.867 85.0547 615.398 82.9141ZM631.125 82.1172L631.898 83.1484C628.07 86.7891 624.789 88.6094 622.055 88.6094C620.945 88.6094 620.094 88.2344 619.5 87.4844C618.922 86.7344 618.633 85.5312 618.633 83.875C618.633 80.5312 619.648 77.2031 621.68 73.8906C623.961 70.125 626.688 68.2422 629.859 68.2422C630.969 68.2422 631.812 68.5234 632.391 69.0859C632.984 69.6328 633.281 70.3906 633.281 71.3594C633.281 72.375 632.93 73.375 632.227 74.3594C631.523 75.3438 630.266 76.3672 628.453 77.4297C627.547 77.9453 625.609 78.875 622.641 80.2188C622.5 81.0625 622.43 81.8672 622.43 82.6328C622.43 83.7422 622.602 84.5156 622.945 84.9531C623.305 85.3906 623.82 85.6094 624.492 85.6094C625.133 85.6094 625.836 85.4297 626.602 85.0703C627.633 84.5859 629.141 83.6016 631.125 82.1172ZM622.922 78.7188C625.438 77.5938 627.328 76.3828 628.594 75.0859C629.453 74.1797 629.883 73.2812 629.883 72.3906C629.883 71.7188 629.703 71.1875 629.344 70.7969C629 70.3906 628.547 70.1875 627.984 70.1875C627.406 70.1875 626.844 70.4062 626.297 70.8438C625.562 71.4219 624.945 72.2969 624.445 73.4688C623.727 75.1875 623.219 76.9375 622.922 78.7188ZM635.859 73.7734L635.062 72.9531C637.062 71.0469 638.656 69.7812 639.844 69.1562C641.031 68.5312 642.047 68.2188 642.891 68.2188C643.219 68.2188 643.477 68.2891 643.664 68.4297C643.852 68.5703 643.945 68.7344 643.945 68.9219C643.945 69.0625 643.906 69.3125 643.828 69.6719L642.773 74.3828C644.367 72.6172 646.367 70.9688 648.773 69.4375C650.055 68.6406 651.109 68.2422 651.938 68.2422C652.547 68.2422 653.023 68.4375 653.367 68.8281C653.711 69.2188 653.883 69.7812 653.883 70.5156C653.883 71 653.812 71.5469 653.672 72.1562C653.422 73.1719 652.766 75.3828 651.703 78.7891C650.703 81.9766 650.203 84.0938 650.203 85.1406C650.203 85.4531 650.25 85.6875 650.344 85.8438C650.438 86 650.57 86.0781 650.742 86.0781C651.195 86.0781 651.906 85.6406 652.875 84.7656C653.562 84.1406 654.25 83.5625 654.938 83.0312L655.523 83.875C654.086 85.4688 652.594 86.75 651.047 87.7188C650.062 88.3438 649.25 88.6562 648.609 88.6562C648.016 88.6562 647.555 88.4375 647.227 88C646.898 87.5781 646.734 86.8828 646.734 85.9141C646.734 84.5234 647.602 81.0625 649.336 75.5312C649.867 73.5625 650.133 72.4141 650.133 72.0859C650.133 71.6016 649.844 71.3594 649.266 71.3594C648.641 71.3594 647.836 71.6875 646.852 72.3438C645.383 73.3125 644.156 74.4531 643.172 75.7656C642.547 76.6094 642.023 77.9531 641.602 79.7969L639.703 87.9766H636.211C636.867 85.6328 637.438 83.3906 637.922 81.25L640.008 72.3438C640.086 71.9844 640.125 71.7266 640.125 71.5703C640.125 71.1484 639.969 70.9375 639.656 70.9375C639.406 70.9375 639.047 71.1016 638.578 71.4297C637.609 72.0703 636.703 72.8516 635.859 73.7734ZM667.219 58.2109C667.703 58.2109 668.102 58.375 668.414 58.7031C668.727 59.0156 668.883 59.4219 668.883 59.9219C668.883 60.6094 668.641 61.2188 668.156 61.75C667.688 62.2656 667.156 62.5234 666.562 62.5234C666.094 62.5234 665.703 62.3594 665.391 62.0312C665.078 61.7031 664.922 61.2734 664.922 60.7422C664.922 60.0391 665.148 59.4453 665.602 58.9609C666.055 58.4609 666.594 58.2109 667.219 58.2109ZM657.984 73.7266L656.953 72.9297C658.516 71.2109 659.938 69.9922 661.219 69.2734C662.516 68.5391 663.617 68.1719 664.523 68.1719C665.023 68.1719 665.406 68.2812 665.672 68.5C665.938 68.7188 666.07 69.0156 666.07 69.3906C666.07 69.8438 665.562 71.7656 664.547 75.1562C662.891 80.7031 662.062 84.0469 662.062 85.1875C662.062 85.4062 662.117 85.5938 662.227 85.75C662.336 85.8906 662.453 85.9609 662.578 85.9609C663.078 85.9609 664.359 84.9922 666.422 83.0547L667.336 83.9453C665.195 85.9609 663.633 87.25 662.648 87.8125C661.664 88.375 660.859 88.6562 660.234 88.6562C659.688 88.6562 659.25 88.4844 658.922 88.1406C658.609 87.7969 658.453 87.3203 658.453 86.7109C658.453 84.7578 659.625 79.9844 661.969 72.3906C662.078 72.0312 662.133 71.7109 662.133 71.4297C662.133 71.1172 661.992 70.9609 661.711 70.9609C661.398 70.9609 661.039 71.0859 660.633 71.3359C660.242 71.5859 659.359 72.3828 657.984 73.7266ZM681.047 82.1172L681.82 83.1484C677.992 86.7891 674.711 88.6094 671.977 88.6094C670.867 88.6094 670.016 88.2344 669.422 87.4844C668.844 86.7344 668.555 85.5312 668.555 83.875C668.555 80.5312 669.57 77.2031 671.602 73.8906C673.883 70.125 676.609 68.2422 679.781 68.2422C680.891 68.2422 681.734 68.5234 682.312 69.0859C682.906 69.6328 683.203 70.3906 683.203 71.3594C683.203 72.375 682.852 73.375 682.148 74.3594C681.445 75.3438 680.188 76.3672 678.375 77.4297C677.469 77.9453 675.531 78.875 672.562 80.2188C672.422 81.0625 672.352 81.8672 672.352 82.6328C672.352 83.7422 672.523 84.5156 672.867 84.9531C673.227 85.3906 673.742 85.6094 674.414 85.6094C675.055 85.6094 675.758 85.4297 676.523 85.0703C677.555 84.5859 679.062 83.6016 681.047 82.1172ZM672.844 78.7188C675.359 77.5938 677.25 76.3828 678.516 75.0859C679.375 74.1797 679.805 73.2812 679.805 72.3906C679.805 71.7188 679.625 71.1875 679.266 70.7969C678.922 70.3906 678.469 70.1875 677.906 70.1875C677.328 70.1875 676.766 70.4062 676.219 70.8438C675.484 71.4219 674.867 72.2969 674.367 73.4688C673.648 75.1875 673.141 76.9375 672.844 78.7188ZM672.469 87.625H674.086C673.07 89.2188 672.562 90.7188 672.562 92.125C672.562 93 672.844 93.7109 673.406 94.2578C673.969 94.8203 674.711 95.1016 675.633 95.1016C675.992 95.1016 676.453 95.0703 677.016 95.0078L676.383 96.4141C675.273 96.6797 674.32 96.8125 673.523 96.8125C672.477 96.8125 671.633 96.5156 670.992 95.9219C670.367 95.3281 670.055 94.6016 670.055 93.7422C670.055 92.0703 670.859 90.0312 672.469 87.625Z" fill="white"/>
</svg>
