<svg width="45" height="46" viewBox="0 0 45 46" fill="none" xmlns="http://www.w3.org/2000/svg">
<g id="mingcute:linkedin-line" clip-path="url(#clip0_4_12)">
<g id="Group">
<path id="Vector" d="M33.75 6.125C35.2418 6.125 36.6726 6.71763 37.7275 7.77252C38.7824 8.82742 39.375 10.2582 39.375 11.75V34.25C39.375 35.7418 38.7824 37.1726 37.7275 38.2275C36.6726 39.2824 35.2418 39.875 33.75 39.875H11.25C9.75816 39.875 8.32742 39.2824 7.27252 38.2275C6.21763 37.1726 5.625 35.7418 5.625 34.25V11.75C5.625 10.2582 6.21763 8.82742 7.27252 7.77252C8.32742 6.71763 9.75816 6.125 11.25 6.125H33.75ZM33.75 9.875H11.25C10.7527 9.875 10.2758 10.0725 9.92418 10.4242C9.57254 10.7758 9.375 11.2527 9.375 11.75V34.25C9.375 34.7473 9.57254 35.2242 9.92418 35.5758C10.2758 35.9275 10.7527 36.125 11.25 36.125H33.75C34.2473 36.125 34.7242 35.9275 35.0758 35.5758C35.4275 35.2242 35.625 34.7473 35.625 34.25V11.75C35.625 11.2527 35.4275 10.7758 35.0758 10.4242C34.7242 10.0725 34.2473 9.875 33.75 9.875ZM15 19.25C15.4592 19.2501 15.9025 19.4187 16.2457 19.7238C16.5889 20.029 16.8081 20.4495 16.8619 20.9056L16.875 21.125V30.5C16.8745 30.9779 16.6915 31.4376 16.3634 31.7851C16.0353 32.1326 15.587 32.3417 15.1099 32.3697C14.6328 32.3977 14.163 32.2425 13.7966 31.9358C13.4301 31.629 13.1946 31.1939 13.1381 30.7194L13.125 30.5V21.125C13.125 20.6277 13.3225 20.1508 13.6742 19.7992C14.0258 19.4475 14.5027 19.25 15 19.25ZM20.625 17.375C21.0641 17.3749 21.4893 17.529 21.8265 17.8103C22.1637 18.0916 22.3914 18.4824 22.47 18.9144C22.8473 18.6956 23.2374 18.4996 23.6381 18.3275C24.8888 17.7931 26.7619 17.4987 28.4531 18.0294C29.34 18.3106 30.2306 18.8356 30.8906 19.73C31.4813 20.5269 31.8 21.4963 31.8637 22.5856L31.875 23V30.5C31.8745 30.9779 31.6915 31.4376 31.3634 31.7851C31.0353 32.1326 30.587 32.3417 30.1099 32.3697C29.6328 32.3977 29.163 32.2425 28.7966 31.9358C28.4301 31.629 28.1946 31.1939 28.1381 30.7194L28.125 30.5V23C28.125 22.3813 27.975 22.0925 27.8775 21.9594C27.7376 21.7853 27.5447 21.6615 27.3281 21.6069C26.6756 21.4006 25.7362 21.5094 25.1119 21.7756C24.1744 22.1769 23.3156 22.8069 22.7306 23.39L22.5 23.6375V30.5C22.4995 30.9779 22.3165 31.4376 21.9884 31.7851C21.6603 32.1326 21.212 32.3417 20.7349 32.3697C20.2578 32.3977 19.788 32.2425 19.4216 31.9358C19.0551 31.629 18.8196 31.1939 18.7631 30.7194L18.75 30.5V19.25C18.75 18.7527 18.9475 18.2758 19.2992 17.9242C19.6508 17.5725 20.1277 17.375 20.625 17.375ZM15 13.625C15.4973 13.625 15.9742 13.8225 16.3258 14.1742C16.6775 14.5258 16.875 15.0027 16.875 15.5C16.875 15.9973 16.6775 16.4742 16.3258 16.8258C15.9742 17.1775 15.4973 17.375 15 17.375C14.5027 17.375 14.0258 17.1775 13.6742 16.8258C13.3225 16.4742 13.125 15.9973 13.125 15.5C13.125 15.0027 13.3225 14.5258 13.6742 14.1742C14.0258 13.8225 14.5027 13.625 15 13.625Z" fill="white"/>
</g>
</g>
<defs>
<clipPath id="clip0_4_12">
<rect width="45" height="45" fill="white" transform="translate(0 0.5)"/>
</clipPath>
</defs>
</svg>
