<svg width="397" height="397" viewBox="0 0 397 397" fill="none" xmlns="http://www.w3.org/2000/svg">
<g clip-path="url(#clip0_1_67)">
<path fill-rule="evenodd" clip-rule="evenodd" d="M118.75 125C118.75 121.685 120.067 118.505 122.411 116.161C124.755 113.817 127.935 112.5 131.25 112.5H143.75C146.025 112.5 148.163 113.106 150 114.175C151.899 113.075 154.055 112.497 156.25 112.5H168.75C173.294 112.5 177.275 114.925 179.462 118.556C180.775 117.506 182.312 116.706 184.037 116.244L196.113 113.013C197.698 112.587 199.352 112.478 200.98 112.692C202.608 112.906 204.177 113.439 205.599 114.259C207.021 115.08 208.268 116.173 209.267 117.475C210.267 118.778 211 120.264 211.425 121.85L237.3 218.444C237.725 220.029 237.834 221.683 237.62 223.311C237.406 224.939 236.874 226.509 236.053 227.931C235.232 229.353 234.14 230.599 232.837 231.598C231.535 232.598 230.048 233.331 228.463 233.756L216.387 236.988C214.802 237.413 213.148 237.522 211.52 237.308C209.892 237.094 208.323 236.561 206.901 235.741C205.479 234.92 204.232 233.827 203.233 232.525C202.233 231.222 201.5 229.736 201.075 228.15L181.25 154.144V225C181.25 228.315 179.933 231.495 177.589 233.839C175.245 236.183 172.065 237.5 168.75 237.5H156.25C154.055 237.503 151.899 236.925 150 235.825C148.101 236.925 145.945 237.503 143.75 237.5H131.25C127.935 237.5 124.755 236.183 122.411 233.839C120.067 231.495 118.75 228.315 118.75 225V125ZM131.25 125H143.75V225H131.25V125ZM168.75 225H156.25V125H168.75V225ZM187.275 128.319L199.344 125.088L225.231 221.681L213.156 224.913L187.275 128.319Z" fill="#714E9D"/>
</g>
<path fill-rule="evenodd" clip-rule="evenodd" d="M285.344 173.688C285.344 188.35 282.456 202.87 276.844 216.416C271.233 229.963 263.009 242.272 252.64 252.64C242.272 263.009 229.963 271.233 216.416 276.844C202.87 282.456 188.35 285.344 173.688 285.344C159.025 285.344 144.505 282.456 130.958 276.844C117.412 271.233 105.103 263.009 94.7346 252.64C84.3664 242.272 76.1418 229.963 70.5306 216.416C64.9193 202.87 62.0313 188.35 62.0313 173.688C62.0313 144.074 73.795 115.674 94.7346 94.7346C115.674 73.795 144.074 62.0313 173.688 62.0313C203.301 62.0313 231.701 73.795 252.64 94.7346C273.58 115.674 285.344 144.074 285.344 173.688ZM264.997 291.299C235.083 314.523 197.442 325.473 159.738 321.921C122.034 318.369 87.1004 300.581 62.0498 272.178C36.9993 243.776 23.7146 206.894 24.9002 169.041C26.0859 131.189 41.6527 95.2107 68.4317 68.4317C95.2107 41.6527 131.189 26.0859 169.041 24.9002C206.894 23.7146 243.776 36.9993 272.178 62.0498C300.581 87.1004 318.369 122.034 321.921 159.738C325.473 197.442 314.523 235.083 291.299 264.997L360.526 334.224C362.354 335.928 363.82 337.983 364.838 340.265C365.855 342.548 366.402 345.012 366.446 347.511C366.49 350.01 366.03 352.492 365.094 354.809C364.158 357.126 362.765 359.231 360.998 360.998C359.231 362.765 357.126 364.158 354.809 365.094C352.492 366.03 350.01 366.49 347.511 366.446C345.012 366.402 342.548 365.855 340.265 364.838C337.983 363.82 335.928 362.354 334.224 360.526L264.997 291.299Z" fill="#C9C6BB"/>
<defs>
<clipPath id="clip0_1_67">
<rect width="150" height="150" fill="white" transform="translate(100 100)"/>
</clipPath>
</defs>
</svg>
