<svg width="100" height="99" viewBox="0 0 100 99" fill="none" xmlns="http://www.w3.org/2000/svg">
<path fill-rule="evenodd" clip-rule="evenodd" d="M72.596 43.9837C72.596 47.6769 71.8685 51.3344 70.4549 54.7465C69.0416 58.1588 66.97 61.2593 64.3582 63.8709C61.7466 66.4827 58.6461 68.5543 55.2338 69.9676C51.8217 71.3812 48.1642 72.1087 44.471 72.1087C40.7776 72.1087 37.1202 71.3812 33.7078 69.9676C30.2957 68.5543 27.1952 66.4827 24.5835 63.8709C21.9719 61.2593 19.9002 58.1588 18.4868 54.7465C17.0734 51.3344 16.3459 47.6769 16.3459 43.9837C16.3459 36.5243 19.3091 29.3706 24.5835 24.0962C29.8579 18.8218 37.0116 15.8586 44.471 15.8586C51.9302 15.8586 59.0839 18.8218 64.3582 24.0962C69.6328 29.3706 72.596 36.5243 72.596 43.9837ZM67.4708 73.6087C59.9358 79.4586 50.4544 82.2167 40.9572 81.322C31.46 80.4273 22.6606 75.9467 16.3506 68.7923C10.0406 61.6381 6.69437 52.348 6.99301 42.8132C7.29167 33.2787 11.2128 24.2162 17.9581 17.4708C24.7035 10.7255 33.766 6.80437 43.3005 6.5057C52.8353 6.20706 62.1255 9.55334 69.2796 15.8633C76.434 22.1733 80.9146 30.9727 81.8093 40.4699C82.704 49.9671 79.9459 59.4485 74.096 66.9835L91.5335 84.421C91.994 84.8502 92.3632 85.3679 92.6197 85.9427C92.8758 86.5177 93.0136 87.1384 93.0247 87.7679C93.0358 88.3973 92.9199 89.0225 92.6841 89.6062C92.4484 90.1898 92.0975 90.72 91.6524 91.1651C91.2073 91.6102 90.6771 91.9611 90.0935 92.1968C89.5098 92.4326 88.8846 92.5485 88.2552 92.5374C87.6257 92.5263 87.0051 92.3885 86.43 92.1324C85.8552 91.8759 85.3375 91.5067 84.9083 91.0462L67.4708 73.6087Z" fill="#C9C6BB"/>
<mask id="mask0_12_59" style="mask-type:luminance" maskUnits="userSpaceOnUse" x="25" y="25" width="38" height="38">
<path d="M62.7195 25.1853H25.6726V62.2322H62.7195V25.1853Z" fill="white"/>
</mask>
<g mask="url(#mask0_12_59)">
<path fill-rule="evenodd" clip-rule="evenodd" d="M30.3035 31.3598C30.3035 30.5411 30.6287 29.7557 31.2077 29.1768C31.7866 28.5979 32.572 28.2726 33.3907 28.2726H36.478C37.0398 28.2726 37.5679 28.4223 38.0216 28.6863C38.4906 28.4146 39.0231 28.2718 39.5652 28.2726H42.6524C43.7747 28.2726 44.7579 28.8715 45.2981 29.7683C45.6224 29.509 46.002 29.3114 46.428 29.1973L49.4105 28.3993C49.802 28.2941 50.2105 28.2672 50.6126 28.32C51.0147 28.3729 51.4022 28.5045 51.7534 28.707C52.1046 28.9098 52.4126 29.1797 52.6593 29.5013C52.9063 29.8231 53.0873 30.1901 53.1923 30.5818L59.5829 54.4386C59.6878 54.83 59.7148 55.2385 59.6619 55.6406C59.6091 56.0427 59.4777 56.4305 59.2749 56.7817C59.0721 57.1329 58.8024 57.4406 58.4806 57.6873C58.159 57.9343 57.7918 58.1154 57.4003 58.2203L54.4178 59.0186C54.0263 59.1235 53.6178 59.1504 53.2157 59.0976C52.8137 59.0447 52.4262 58.9131 52.0749 58.7106C51.7237 58.5078 51.4158 58.2379 51.169 57.9163C50.922 57.5945 50.741 57.2275 50.636 56.8358L45.7397 38.5578V56.0578C45.7397 56.8765 45.4144 57.6619 44.8355 58.2408C44.2566 58.8197 43.4712 59.145 42.6524 59.145H39.5652C39.0231 59.1458 38.4906 59.003 38.0216 58.7313C37.5526 59.003 37.0201 59.1458 36.478 59.145H33.3907C32.572 59.145 31.7866 58.8197 31.2077 58.2408C30.6287 57.6619 30.3035 56.8765 30.3035 56.0578V31.3598ZM33.3907 31.3598H36.478V56.0578H33.3907V31.3598ZM42.6524 56.0578H39.5652V31.3598H42.6524V56.0578ZM47.2277 32.1796L50.2085 31.3816L56.6021 55.238L53.6198 56.0363L47.2277 32.1796Z" fill="#714E9D"/>
</g>
</svg>
