<svg width="236" height="53" viewBox="0 0 236 53" fill="none" xmlns="http://www.w3.org/2000/svg">
<path d="M41.9238 44.5479C41.9811 45.1781 41.8809 45.8656 41.6231 46.6104C41.3939 47.3838 40.9929 48.0999 40.4199 48.7588C39.8757 49.4463 39.1595 50.0049 38.2715 50.4346C37.3835 50.8929 36.3236 51.1221 35.0918 51.1221C33.8887 51.0934 32.7142 50.7067 31.5684 49.9619C30.4512 49.2458 29.5059 48.2432 28.7324 46.9541C27.9876 45.665 27.4863 44.1325 27.2285 42.3564C26.9707 40.5804 27.0853 38.6325 27.5723 36.5127C27.8874 35.109 28.2741 33.4619 28.7324 31.5713C29.2194 29.652 29.6777 27.6755 30.1074 25.6416C30.5658 23.6077 30.9382 21.6025 31.2246 19.626C31.5397 17.6494 31.683 15.8734 31.6543 14.2979C31.6257 12.6937 31.3822 11.3903 30.9238 10.3877C30.4942 9.35645 29.7494 8.79785 28.6895 8.71191C27.8301 8.65462 27.0423 8.91243 26.3262 9.48535C25.6387 10.0296 25.0371 10.7314 24.5215 11.5908C24.0059 12.4502 23.5762 13.3812 23.2324 14.3838C22.9173 15.3577 22.7025 16.2314 22.5879 17.0049C22.3301 18.5804 22.1296 20.4424 21.9863 22.5908C21.8431 24.7106 21.7858 26.8161 21.8145 28.9072C21.8145 29.5947 21.9291 30.1533 22.1582 30.583C22.3874 30.984 22.6595 31.2992 22.9746 31.5283C23.2897 31.7575 23.6192 31.9294 23.9629 32.0439C24.3067 32.1299 24.6074 32.1872 24.8652 32.2158L24.7793 32.9033C23.0606 33.1325 21.6139 33.376 20.4395 33.6338C19.2936 33.863 18.3483 34.0921 17.6035 34.3213C16.7442 34.5791 16.0423 34.8226 15.4981 35.0518L15.1113 34.1494C15.7416 33.8343 16.2715 33.4476 16.7012 32.9893C17.1595 32.5309 17.5176 31.9723 17.7754 31.3135C18.0332 30.626 18.2194 29.8239 18.334 28.9072C18.4486 27.9906 18.5202 26.9163 18.5488 25.6846C18.5775 24.8538 18.6061 23.8799 18.6348 22.7627C18.6634 21.6169 18.6634 20.4424 18.6348 19.2393C18.6348 18.0361 18.5918 16.8473 18.5059 15.6729C18.4199 14.4984 18.2624 13.4528 18.0332 12.5361C17.8041 11.6195 17.4889 10.889 17.0879 10.3447C16.6869 9.77181 16.1712 9.48535 15.541 9.48535C14.8822 9.514 14.2949 9.77181 13.7793 10.2588C13.2923 10.7458 12.8483 11.376 12.4473 12.1494C12.0462 12.9229 11.7025 13.7822 11.416 14.7275C11.1296 15.6442 10.8861 16.5465 10.6856 17.4346C10.5137 18.3226 10.3705 19.139 10.2559 19.8838C10.1699 20.5999 10.1126 21.1442 10.084 21.5166C10.0554 21.889 10.0267 22.4619 9.99806 23.2354C9.96942 23.9801 9.95509 24.8395 9.95509 25.8135C9.98374 26.7588 10.0554 27.7757 10.1699 28.8643C10.3132 29.9242 10.5137 30.9554 10.7715 31.958C11.058 32.932 11.4447 33.8343 11.9317 34.665C12.4186 35.4671 13.0345 36.083 13.7793 36.5127L13.7363 37.6299C13.1634 37.458 12.39 37.3291 11.416 37.2432C10.4707 37.1859 9.46811 37.1859 8.40822 37.2432C7.37697 37.3005 6.36004 37.415 5.35744 37.5869C4.38348 37.7874 3.5814 38.0596 2.95119 38.4033L2.43556 37.2861C3.12306 36.9137 3.69598 36.5986 4.15431 36.3408C4.64129 36.0544 5.04233 35.6533 5.35744 35.1377C5.70119 34.6221 5.959 33.9059 6.13087 32.9893C6.30275 32.0439 6.41733 30.7549 6.47462 29.1221C6.53192 27.4606 6.58921 26.0426 6.6465 24.8682C6.70379 23.6937 6.73244 22.6338 6.73244 21.6885C6.76108 20.7432 6.77541 19.8551 6.77541 19.0244C6.80405 18.1937 6.80405 17.277 6.77541 16.2744C6.74676 15.3005 6.6465 14.2835 6.47462 13.2236C6.3314 12.1637 6.05926 11.1611 5.65822 10.2158C5.25718 9.24186 4.68426 8.38249 3.93947 7.6377C3.19468 6.8929 2.22072 6.31999 1.01759 5.91895L0.845718 5.05957C1.53322 5.11686 2.34962 5.17415 3.29494 5.23145C4.2116 5.28874 5.11395 5.31738 6.00197 5.31738C6.91864 5.31738 7.72072 5.28874 8.40822 5.23145C9.12436 5.14551 9.59702 4.98796 9.82619 4.75879C9.94077 4.95931 10.0267 5.34603 10.084 5.91895C10.1699 6.46322 10.2272 7.10775 10.2559 7.85254C10.2845 8.56868 10.2988 9.34212 10.2988 10.1729C10.2988 11.0036 10.2988 11.8057 10.2988 12.5791C10.6999 11.4046 11.1582 10.402 11.6738 9.57129C12.2181 8.71191 12.7767 8.02441 13.3496 7.50879C13.9225 6.96452 14.4811 6.56348 15.0254 6.30566C15.5983 6.04785 16.1283 5.91895 16.6152 5.91895C17.7611 5.91895 18.7923 6.40592 19.709 7.37988C20.6257 8.35384 21.2702 9.74316 21.6426 11.5479C22.5593 9.19889 23.7767 7.37988 25.2949 6.09082C26.8418 4.77311 28.6179 4.25749 30.6231 4.54395C32.972 4.8877 34.5619 6.27702 35.3926 8.71191C36.252 11.1468 36.2806 14.6702 35.4785 19.2822C35.0775 21.5739 34.5189 23.8799 33.8027 26.2002C33.1152 28.5205 32.4421 30.7549 31.7832 32.9033C31.153 35.0231 30.6374 37.014 30.2363 38.876C29.8639 40.7666 29.7923 42.3994 30.0215 43.7744C30.222 45.0348 30.5801 46.0661 31.0957 46.8682C31.6113 47.6702 32.1699 48.2861 32.7715 48.7158C33.3731 49.1742 33.9746 49.4749 34.5762 49.6182C35.2064 49.79 35.7507 49.8617 36.209 49.833C36.8392 49.8044 37.4121 49.6182 37.9277 49.2744C38.472 48.9307 38.9447 48.501 39.3457 47.9854C39.7468 47.4697 40.0475 46.9111 40.2481 46.3096C40.4772 45.708 40.5918 45.1351 40.5918 44.5908C40.5918 44.2184 40.5059 43.846 40.334 43.4736C40.1908 43.1012 39.9759 42.7718 39.6895 42.4854C39.403 42.1989 39.0449 41.9697 38.6152 41.7979C38.2142 41.626 37.7702 41.5544 37.2832 41.583C36.7962 41.6117 36.3666 41.7262 35.9942 41.9268C35.6504 42.1273 35.3639 42.3708 35.1348 42.6572C34.9056 42.9723 34.7337 43.3018 34.6192 43.6455C34.5332 43.9893 34.5046 44.29 34.5332 44.5479C34.5905 45.1208 34.791 45.5934 35.1348 45.9658C35.4785 46.3382 35.8939 46.4958 36.3809 46.4385C36.61 46.4098 36.7962 46.3382 36.9395 46.2236C37.1113 46.109 37.2689 45.9801 37.4121 45.8369C37.1257 45.7223 36.8822 45.5648 36.6817 45.3643C36.5098 45.1924 36.4525 44.8916 36.5098 44.4619C36.5384 44.2041 36.6387 43.9893 36.8106 43.8174C37.0111 43.6742 37.2259 43.5882 37.4551 43.5596C37.7129 43.5309 37.9421 43.5739 38.1426 43.6885C38.3431 43.8031 38.472 44.0179 38.5293 44.333C38.558 44.6481 38.5436 44.9919 38.4863 45.3643C38.4291 45.7653 38.3001 46.1234 38.0996 46.4385C37.8991 46.7822 37.6126 47.0544 37.2402 47.2549C36.8679 47.484 36.3809 47.5986 35.7793 47.5986C35.1777 47.5986 34.6908 47.4411 34.3184 47.126C33.9746 46.8109 33.7168 46.4242 33.5449 45.9658C33.3731 45.5075 33.2728 45.0205 33.2442 44.5049C33.2442 44.0179 33.3014 43.6025 33.416 43.2588C33.6452 42.514 34.1179 41.8122 34.834 41.1533C35.5501 40.5231 36.5527 40.2367 37.8418 40.2939C38.4434 40.3512 38.9876 40.5088 39.4746 40.7666C39.9616 41.0244 40.377 41.3538 40.7207 41.7549C41.0645 42.1846 41.3366 42.6429 41.5371 43.1299C41.7376 43.6169 41.8666 44.0895 41.9238 44.5479ZM47.4668 12.5791C48.6699 12.5505 49.8587 12.7939 51.0332 13.3096C52.2077 13.8252 53.2676 14.5986 54.2129 15.6299C55.1582 16.6611 55.9173 17.9215 56.4902 19.4111C57.0918 20.8721 57.3926 22.5479 57.3926 24.4385C57.3926 26.3291 57.1491 28.0049 56.6621 29.4658C56.2038 30.8981 55.5736 32.1156 54.7715 33.1182C53.9981 34.1208 53.0957 34.8942 52.0645 35.4385C51.0619 35.9541 50.002 36.2549 48.8848 36.3408C47.6244 36.4268 46.3926 36.2262 45.1895 35.7393C43.9863 35.2236 42.8978 34.4645 41.9238 33.4619C40.9785 32.4307 40.2051 31.1702 39.6035 29.6807C39.002 28.1624 38.6869 26.4294 38.6582 24.4814C38.6009 22.4762 38.8444 20.7432 39.3887 19.2822C39.9616 17.7926 40.6777 16.5609 41.5371 15.5869C42.3965 14.613 43.3561 13.8825 44.416 13.3955C45.4759 12.9085 46.4929 12.6364 47.4668 12.5791ZM49.2715 33.5049C49.8731 33.4476 50.5176 33.1898 51.2051 32.7314C51.8926 32.2731 52.4942 31.5999 53.0098 30.7119C53.5254 29.7952 53.8978 28.6781 54.127 27.3604C54.3848 26.014 54.3705 24.4385 54.084 22.6338C53.7975 20.8291 53.3679 19.3682 52.7949 18.251C52.222 17.1338 51.5918 16.2744 50.9043 15.6729C50.2455 15.0426 49.5723 14.6416 48.8848 14.4697C48.1973 14.2692 47.5957 14.1833 47.0801 14.2119C46.2494 14.2692 45.5475 14.5557 44.9746 15.0713C44.4017 15.5583 43.9147 16.2028 43.5137 17.0049C43.1413 17.7783 42.8548 18.6663 42.6543 19.6689C42.4824 20.6715 42.3822 21.7171 42.3535 22.8057C42.2962 24.1807 42.3965 25.5557 42.6543 26.9307C42.9121 28.3057 43.3561 29.5374 43.9863 30.626C44.5879 31.6859 45.347 32.4593 46.2637 32.9463C47.1804 33.4333 48.183 33.6195 49.2715 33.5049ZM63.9668 12.4932C63.1074 12.5505 62.4199 12.3786 61.9043 11.9775C61.4173 11.5479 61.1738 11.0179 61.1738 10.3877C61.1738 9.72884 61.4173 9.15592 61.9043 8.66895C62.4199 8.18197 63.0931 7.90983 63.9238 7.85254C64.7832 7.79525 65.4564 7.98145 65.9434 8.41113C66.4304 8.81217 66.6738 9.34212 66.6738 10.001C66.6738 10.6312 66.4304 11.1898 65.9434 11.6768C65.485 12.1637 64.8262 12.4359 63.9668 12.4932ZM57.9082 15.2002C58.4238 15.2288 59.14 15.2432 60.0567 15.2432C61.002 15.2432 62.0475 15.2145 63.1934 15.1572C64.3392 15.0713 65.528 14.9424 66.7598 14.7705C68.0202 14.57 69.209 14.2835 70.3262 13.9111L70.6699 14.6416C70.0684 15.014 69.4955 15.4007 68.9512 15.8018C68.4069 16.2028 67.9343 16.7184 67.5332 17.3486C67.1608 17.9788 66.8887 18.7809 66.7168 19.7549C66.5449 20.7002 66.5593 21.932 66.7598 23.4502C66.9317 24.9684 67.1322 26.415 67.3613 27.79C67.5905 29.165 67.834 30.4971 68.0918 31.7861C68.3496 33.0465 68.5931 34.2783 68.8223 35.4814C69.0801 36.6846 69.3236 37.8877 69.5527 39.0908C69.7246 39.8929 69.8249 40.7809 69.8535 41.7549C69.8822 42.7288 69.8249 43.7028 69.6817 44.6768C69.5671 45.6507 69.3666 46.596 69.0801 47.5127C68.7936 48.4294 68.3926 49.2314 67.877 49.9189C67.3613 50.6351 66.7168 51.208 65.9434 51.6377C65.1986 52.0674 64.3249 52.2679 63.3223 52.2393C61.8041 52.2106 60.5293 51.9814 59.4981 51.5518C58.4668 51.1507 57.6361 50.6351 57.0059 50.0049C56.3757 49.4033 55.9173 48.7158 55.6309 47.9424C55.3444 47.1976 55.1869 46.4814 55.1582 45.7939C55.1296 45.1064 55.2298 44.3187 55.459 43.4307C55.6882 42.5426 56.0462 41.6976 56.5332 40.8955C56.9916 40.0934 57.5788 39.4059 58.2949 38.833C59.0111 38.2887 59.8275 37.988 60.7442 37.9307C61.6608 37.902 62.377 38.0166 62.8926 38.2744C63.4369 38.5322 63.8379 38.876 64.0957 39.3057C64.3822 39.7354 64.5541 40.208 64.6113 40.7236C64.6686 41.2393 64.6973 41.7262 64.6973 42.1846C64.6973 42.6715 64.6257 43.2158 64.4824 43.8174C64.3392 44.4189 64.11 44.9775 63.7949 45.4932C63.4798 46.0088 63.0501 46.4098 62.5059 46.6963C61.9902 47.0114 61.3314 47.083 60.5293 46.9111C59.7559 46.7679 59.2259 46.3955 58.9395 45.7939C58.653 45.1924 58.5671 44.5622 58.6817 43.9033C58.7962 43.2158 59.0684 42.6143 59.4981 42.0986C59.9564 41.583 60.558 41.3252 61.3027 41.3252C61.7611 41.3252 62.0905 41.4541 62.291 41.7119C62.5202 41.9984 62.6061 42.2992 62.5488 42.6143C62.5202 42.9294 62.4056 43.1729 62.2051 43.3447C62.0046 43.5452 61.7897 43.6455 61.5606 43.6455C61.1309 43.6169 60.8874 43.4593 60.8301 43.1729C60.7728 42.8864 60.8444 42.5999 61.0449 42.3135C60.7871 42.3135 60.515 42.4997 60.2285 42.8721C59.9421 43.2731 59.8132 43.7601 59.8418 44.333C59.8705 44.7913 60.0423 45.1781 60.3574 45.4932C60.6725 45.8369 61.0449 45.9945 61.4746 45.9658C61.6751 45.9658 61.9043 45.8942 62.1621 45.751C62.4199 45.6077 62.6634 45.3929 62.8926 45.1064C63.1218 44.82 63.3223 44.4619 63.4942 44.0322C63.666 43.6025 63.7663 43.1012 63.7949 42.5283C63.8809 41.3252 63.6374 40.4372 63.0645 39.8643C62.5202 39.2913 61.8757 38.9906 61.1309 38.9619C60.6725 38.9619 60.1712 39.1051 59.627 39.3916C59.0827 39.6781 58.5957 40.0934 58.166 40.6377C57.7077 41.2106 57.3496 41.8838 57.0918 42.6572C56.834 43.4593 56.7767 44.3473 56.9199 45.3213C56.9772 45.8369 57.1491 46.4098 57.4356 47.04C57.722 47.6702 58.1087 48.2432 58.5957 48.7588C59.0827 49.2744 59.6699 49.6755 60.3574 49.9619C61.0736 50.277 61.8613 50.363 62.7207 50.2197C63.7233 50.0479 64.4968 49.5895 65.041 48.8447C65.5853 48.0999 65.9434 47.1403 66.1152 45.9658C66.3158 44.7913 66.3587 43.4593 66.2442 41.9697C66.1582 40.4801 65.9863 38.9189 65.7285 37.2861C65.1843 34.0205 64.683 30.9697 64.2246 28.1338C63.7949 25.2692 63.3366 22.8916 62.8496 21.001C62.6205 20.0557 62.2767 19.2965 61.8184 18.7236C61.3887 18.1507 60.916 17.6924 60.4004 17.3486C59.9134 17.0049 59.4264 16.7471 58.9395 16.5752C58.4811 16.3747 58.1087 16.1885 57.8223 16.0166L57.9082 15.2002ZM72.4746 24.8682C72.5606 23.1781 72.9186 21.6025 73.5488 20.1416C74.2077 18.6807 75.0527 17.4346 76.084 16.4033C77.1152 15.3434 78.2754 14.5413 79.5645 13.9971C80.8822 13.4528 82.2429 13.2666 83.6465 13.4385C85.0501 13.6104 86.1244 14.04 86.8692 14.7275C87.6426 15.415 88.1869 16.1885 88.502 17.0479C88.8171 17.8786 88.9889 18.7093 89.0176 19.54C89.0462 20.3708 89.0462 21.0153 89.0176 21.4736C88.9889 21.9033 88.9317 22.376 88.8457 22.8916C88.7884 23.4072 88.7168 23.9229 88.6309 24.4385C88.5736 24.9255 88.5449 25.3981 88.5449 25.8564C88.5449 26.2861 88.5879 26.6442 88.6738 26.9307C87.9577 26.7015 87.127 26.458 86.1817 26.2002C85.2363 25.9137 84.2051 25.6989 83.0879 25.5557C81.9994 25.4124 80.8535 25.3695 79.6504 25.4268C78.4759 25.4554 77.3014 25.6559 76.127 26.0283C76.0983 27.1169 76.1699 28.2054 76.3418 29.2939C76.5423 30.3538 76.8574 31.3708 77.2871 32.3447C77.6595 33.1755 78.0892 33.9059 78.5762 34.5361C79.0632 35.1663 79.5788 35.6533 80.1231 35.9971C80.696 36.3122 81.2689 36.484 81.8418 36.5127C82.4434 36.5413 83.0449 36.3695 83.6465 35.9971C84.1335 35.6533 84.5059 35.238 84.7637 34.751C84.9929 34.3499 85.0788 33.863 85.0215 33.29C84.9929 32.7171 84.6921 32.0583 84.1192 31.3135L89.4902 31.0557C89.2897 31.6286 88.9889 32.3447 88.5879 33.2041C88.2155 34.0635 87.6999 34.8942 87.041 35.6963C86.3822 36.4984 85.5658 37.1715 84.5918 37.7158C83.6179 38.2601 82.4434 38.5036 81.0684 38.4463C79.6934 38.3604 78.4473 37.9163 77.3301 37.1143C76.2416 36.3408 75.3249 35.3239 74.5801 34.0635C73.8353 32.8031 73.2767 31.3851 72.9043 29.8096C72.5319 28.2054 72.3887 26.5583 72.4746 24.8682ZM83.1309 14.5557C82.3288 14.4697 81.541 14.6702 80.7676 15.1572C80.0228 15.6442 79.3353 16.346 78.7051 17.2627C78.1035 18.1507 77.5879 19.2106 77.1582 20.4424C76.7285 21.6742 76.4277 22.9632 76.2559 24.3096C77.8887 24.109 79.4069 24.0088 80.8106 24.0088C82.2142 23.9801 83.5176 24.0661 84.7207 24.2666C85.0358 23.6077 85.3223 22.7627 85.5801 21.7314C85.8379 20.6715 85.9525 19.6403 85.9238 18.6377C85.8952 17.6064 85.666 16.7041 85.2363 15.9307C84.8353 15.1572 84.1335 14.6989 83.1309 14.5557ZM126.529 47.3838C125.527 47.3838 124.538 47.2262 123.564 46.9111C122.591 46.596 121.745 46.0661 121.029 45.3213C120.313 44.6051 119.783 43.6312 119.439 42.3994C119.096 41.1963 119.053 39.6924 119.311 37.8877C119.511 36.5127 119.669 35.1663 119.783 33.8486C119.926 32.5023 119.969 31.2705 119.912 30.1533C119.855 29.0075 119.654 28.0049 119.311 27.1455C118.967 26.2575 118.408 25.57 117.635 25.083C116.919 24.596 115.988 24.3096 114.842 24.2236C113.696 24.1377 112.307 24.3382 110.674 24.8252C110.731 26.057 110.803 27.2171 110.889 28.3057C111.003 29.3942 111.132 30.3682 111.275 31.2275C111.361 32.0869 111.519 32.8317 111.748 33.4619C111.92 34.0062 112.163 34.4932 112.479 34.9229C112.794 35.3525 113.195 35.5101 113.682 35.3955L113.381 36.4697C112.808 36.2692 112.149 36.126 111.404 36.04C110.688 35.9541 109.915 35.9398 109.084 35.9971C108.253 36.0544 107.394 36.1833 106.506 36.3838C105.646 36.5843 104.816 36.8851 104.014 37.2861L103.799 36.5557C104.229 36.2406 104.615 35.9541 104.959 35.6963C105.303 35.4385 105.604 35.109 105.861 34.708C106.148 34.307 106.391 33.7913 106.592 33.1611C106.792 32.5309 106.964 31.6859 107.107 30.626C107.251 29.5661 107.423 28.1911 107.623 26.501C107.852 24.7822 108.053 22.9346 108.225 20.958C108.396 18.9814 108.511 16.9476 108.568 14.8564C108.626 12.7653 108.568 10.8174 108.396 9.0127C108.225 7.66634 107.967 6.44889 107.623 5.36035C107.48 4.90202 107.294 4.45801 107.064 4.02832C106.864 3.56999 106.62 3.16895 106.334 2.8252C106.048 2.4528 105.718 2.15202 105.346 1.92285C105.002 1.69368 104.615 1.56478 104.186 1.53613V0.891602C104.73 0.977539 105.346 1.0778 106.033 1.19238C106.749 1.27832 107.551 1.33561 108.439 1.36426C109.356 1.3929 110.373 1.34993 111.49 1.23535C112.636 1.09212 113.911 0.819987 115.314 0.418945V1.27832C114.799 1.56478 114.326 1.86556 113.896 2.18066C113.467 2.46712 113.066 2.88249 112.693 3.42676C112.35 3.97103 112.049 4.68717 111.791 5.5752C111.533 6.46322 111.347 7.6377 111.232 9.09863C111.089 10.4736 110.932 12.0635 110.76 13.8682C110.617 15.6729 110.545 17.5348 110.545 19.4541C110.545 20.1416 110.545 20.8434 110.545 21.5596C110.545 22.2471 110.574 22.9346 110.631 23.6221C112.006 23.1351 113.238 22.5049 114.326 21.7314C115.415 20.9294 116.331 20.113 117.076 19.2822C117.821 18.4229 118.394 17.5921 118.795 16.79C119.196 15.988 119.396 15.3005 119.396 14.7275C119.339 14.2979 119.239 13.9111 119.096 13.5674C118.952 13.2809 118.738 13.0231 118.451 12.7939C118.165 12.5361 117.778 12.3929 117.291 12.3643L117.42 11.29C119.196 11.5192 120.9 11.6195 122.533 11.5908C124.166 11.5335 125.799 11.1468 127.432 10.4307L127.604 11.29C127.174 11.4906 126.787 11.6911 126.443 11.8916C126.1 12.0635 125.77 12.2783 125.455 12.5361C125.169 12.7939 124.882 13.1377 124.596 13.5674C124.309 13.9684 123.994 14.4984 123.65 15.1572C123.393 15.7015 123.049 16.3317 122.619 17.0479C122.189 17.764 121.674 18.4801 121.072 19.1963C120.499 19.8838 119.826 20.5426 119.053 21.1729C118.308 21.7744 117.492 22.2614 116.604 22.6338C118.895 22.5765 120.686 23.1781 121.975 24.4385C123.264 25.6702 123.994 27.7184 124.166 30.583C124.223 32.0439 124.094 33.5192 123.779 35.0088C123.464 36.4697 123.192 37.8447 122.963 39.1338C122.734 40.4515 122.648 41.626 122.705 42.6572C122.762 43.7171 123.192 44.5479 123.994 45.1494C124.768 45.751 125.527 46.109 126.271 46.2236C127.045 46.3669 127.761 46.3096 128.42 46.0518C129.079 45.8226 129.652 45.4215 130.139 44.8486C130.654 44.2757 131.055 43.6025 131.342 42.8291C131.6 42.0557 131.714 41.3825 131.686 40.8096C131.657 40.2653 131.528 39.807 131.299 39.4346C131.07 39.0908 130.769 38.833 130.396 38.6611C130.053 38.4893 129.68 38.4033 129.279 38.4033C128.477 38.4033 127.761 38.7041 127.131 39.3057C126.501 39.9072 126.157 40.695 126.1 41.6689C126.071 42.0127 126.114 42.2992 126.229 42.5283C126.343 42.7575 126.486 42.9294 126.658 43.0439C126.859 43.1872 127.059 43.2874 127.26 43.3447C127.489 43.402 127.704 43.402 127.904 43.3447C128.277 43.2874 128.649 43.0726 129.021 42.7002C129.423 42.3278 129.609 41.8838 129.58 41.3682C129.408 41.4827 129.193 41.583 128.936 41.6689C128.678 41.7835 128.434 41.8408 128.205 41.8408C128.005 41.8408 127.818 41.7692 127.646 41.626C127.503 41.5114 127.432 41.2822 127.432 40.9385C127.432 40.5374 127.575 40.2223 127.861 39.9932C128.176 39.7926 128.52 39.6924 128.893 39.6924C129.265 39.6924 129.609 39.807 129.924 40.0361C130.239 40.2939 130.396 40.6663 130.396 41.1533C130.425 42.0986 130.11 42.8864 129.451 43.5166C128.821 44.1755 128.076 44.5049 127.217 44.5049C126.587 44.5049 126.085 44.3187 125.713 43.9463C125.369 43.6025 125.126 43.1585 124.982 42.6143C124.868 42.0986 124.868 41.5257 124.982 40.8955C125.126 40.2653 125.383 39.6781 125.756 39.1338C126.128 38.6182 126.615 38.1742 127.217 37.8018C127.847 37.458 128.592 37.2861 129.451 37.2861C130.053 37.2861 130.554 37.4007 130.955 37.6299C131.356 37.859 131.671 38.1455 131.9 38.4893C132.158 38.8617 132.344 39.2627 132.459 39.6924C132.574 40.1221 132.631 40.5518 132.631 40.9814C132.66 41.8122 132.545 42.5999 132.287 43.3447C132.029 44.1182 131.643 44.8057 131.127 45.4072C130.611 46.0088 129.967 46.4814 129.193 46.8252C128.42 47.1976 127.532 47.3838 126.529 47.3838ZM143.029 34.5791C142.857 35.1807 142.6 35.8252 142.256 36.5127C141.941 37.2002 141.511 37.8447 140.967 38.4463C140.423 39.0479 139.764 39.5492 138.99 39.9502C138.245 40.3799 137.386 40.6234 136.412 40.6807C135.725 40.738 135.066 40.6807 134.436 40.5088C133.834 40.3656 133.275 40.1507 132.76 39.8643C132.273 39.5778 131.843 39.2484 131.471 38.876C131.098 38.5036 130.812 38.1312 130.611 37.7588C130.268 37.014 130.081 36.2692 130.053 35.5244C130.024 34.751 130.167 34.0778 130.482 33.5049C130.941 32.7601 131.428 32.2874 131.943 32.0869C132.488 31.8864 133.003 31.7575 133.49 31.7002C133.949 31.6429 134.421 31.6715 134.908 31.7861C135.395 31.9007 135.825 32.0869 136.197 32.3447C136.57 32.6025 136.87 32.932 137.1 33.333C137.329 33.7054 137.429 34.1351 137.4 34.6221C137.372 35.0231 137.257 35.3955 137.057 35.7393C136.885 36.0544 136.656 36.3265 136.369 36.5557C136.083 36.8135 135.782 36.9997 135.467 37.1143C135.152 37.2575 134.865 37.3148 134.607 37.2861C134.206 37.2288 133.791 37.0856 133.361 36.8564C132.932 36.6559 132.688 36.3408 132.631 35.9111C132.574 35.4814 132.617 35.0947 132.76 34.751C132.932 34.3786 133.189 34.1208 133.533 33.9775C134.049 33.777 134.45 33.7054 134.736 33.7627C135.051 33.7913 135.266 33.8916 135.381 34.0635C135.524 34.2354 135.61 34.4215 135.639 34.6221C135.667 34.8226 135.667 34.9801 135.639 35.0947C135.553 35.3812 135.41 35.5817 135.209 35.6963C135.037 35.8109 134.808 35.8538 134.521 35.8252C134.235 35.7679 133.877 35.5674 133.447 35.2236C133.361 35.5387 133.376 35.7965 133.49 35.9971C133.605 36.1976 133.748 36.3408 133.92 36.4268C134.12 36.5413 134.378 36.613 134.693 36.6416C135.295 36.6989 135.768 36.5127 136.111 36.083C136.455 35.6247 136.598 35.1234 136.541 34.5791C136.512 34.0348 136.255 33.5479 135.768 33.1182C135.281 32.6885 134.521 32.5023 133.49 32.5596C132.86 32.6169 132.373 32.8174 132.029 33.1611C131.686 33.5049 131.456 33.9202 131.342 34.4072C131.227 34.8656 131.227 35.3525 131.342 35.8682C131.485 36.3838 131.714 36.8278 132.029 37.2002C132.373 37.6012 132.76 37.9163 133.189 38.1455C133.619 38.3747 134.063 38.5322 134.521 38.6182C134.98 38.7041 135.438 38.7184 135.896 38.6611C136.355 38.6325 136.785 38.5322 137.186 38.3604C137.644 38.1598 138.102 37.8018 138.561 37.2861C139.019 36.7705 139.363 36.1546 139.592 35.4385C139.821 34.6937 139.864 33.8773 139.721 32.9893C139.606 32.0726 139.191 31.1416 138.475 30.1963C138.102 29.6807 137.429 29.0791 136.455 28.3916C135.481 27.6755 134.436 26.9163 133.318 26.1143C132.201 25.2835 131.127 24.4242 130.096 23.5361C129.093 22.6481 128.363 21.7314 127.904 20.7861C127.475 19.8695 127.245 18.8096 127.217 17.6064C127.188 16.4033 127.46 15.2432 128.033 14.126C128.606 13.0088 129.537 12.0062 130.826 11.1182C132.144 10.2301 133.906 9.6429 136.111 9.35645C137.687 9.15592 139.119 9.27051 140.408 9.7002C141.726 10.1299 142.814 10.7601 143.674 11.5908C144.533 12.4215 145.106 13.4242 145.393 14.5986C145.708 15.7445 145.65 16.9476 145.221 18.208C145.106 18.609 144.906 19.0244 144.619 19.4541C144.361 19.8838 144.018 20.2848 143.588 20.6572C143.187 21.0296 142.7 21.3304 142.127 21.5596C141.554 21.7601 140.924 21.8317 140.236 21.7744C139.721 21.7458 139.176 21.6169 138.604 21.3877C138.031 21.1299 137.501 20.8148 137.014 20.4424C136.527 20.0413 136.097 19.5973 135.725 19.1104C135.352 18.6234 135.123 18.1077 135.037 17.5635C134.808 16.3604 134.994 15.3864 135.596 14.6416C136.226 13.8968 137.186 13.4671 138.475 13.3525C139.048 13.3239 139.577 13.4242 140.064 13.6533C140.551 13.8538 140.967 14.126 141.311 14.4697C141.654 14.8135 141.912 15.2145 142.084 15.6729C142.256 16.1025 142.313 16.5036 142.256 16.876C142.084 18.165 141.368 18.8955 140.107 19.0674C139.649 19.1247 139.148 19.0531 138.604 18.8525C138.088 18.652 137.716 18.2653 137.486 17.6924C137.343 17.2913 137.314 16.833 137.4 16.3174C137.486 15.7731 137.773 15.3721 138.26 15.1143C138.489 14.9997 138.732 14.9567 138.99 14.9854C139.277 15.014 139.52 15.0999 139.721 15.2432C139.921 15.3577 140.064 15.5296 140.15 15.7588C140.236 15.988 140.236 16.2601 140.15 16.5752C140.064 16.7757 139.936 16.9333 139.764 17.0479C139.62 17.1338 139.42 17.1911 139.162 17.2197C138.904 17.2197 138.561 17.1195 138.131 16.9189C138.16 17.2913 138.26 17.5635 138.432 17.7354C138.632 17.9072 138.847 18.0218 139.076 18.0791C139.334 18.165 139.606 18.208 139.893 18.208C140.408 18.1507 140.795 18.0075 141.053 17.7783C141.339 17.5205 141.511 17.234 141.568 16.9189C141.626 16.5752 141.568 16.2171 141.396 15.8447C141.225 15.4723 140.938 15.1143 140.537 14.7705C139.964 14.3408 139.291 14.1403 138.518 14.1689C137.744 14.1689 137.071 14.484 136.498 15.1143C135.753 16.0309 135.553 16.9333 135.896 17.8213C136.269 18.7093 136.999 19.4398 138.088 20.0127C138.26 20.0986 138.46 20.1989 138.689 20.3135C138.947 20.4281 139.234 20.4997 139.549 20.5283C139.893 20.5283 140.265 20.471 140.666 20.3564C141.067 20.2419 141.525 20.0127 142.041 19.6689C142.814 19.1533 143.273 18.4658 143.416 17.6064C143.559 16.7471 143.488 15.8877 143.201 15.0283C142.943 14.1689 142.485 13.3955 141.826 12.708C141.196 12.0205 140.466 11.5908 139.635 11.4189C138.718 11.2471 137.887 11.2041 137.143 11.29C136.426 11.3473 135.782 11.4906 135.209 11.7197C134.636 11.9202 134.12 12.1781 133.662 12.4932C133.204 12.7796 132.803 13.0661 132.459 13.3525C132.316 13.4958 132.101 13.7536 131.814 14.126C131.528 14.4984 131.285 14.971 131.084 15.5439C130.883 16.0882 130.783 16.7327 130.783 17.4775C130.812 18.1937 131.07 18.9671 131.557 19.7979C132.015 20.5999 132.602 21.3018 133.318 21.9033C134.063 22.4762 134.837 23.0205 135.639 23.5361C136.469 24.0231 137.286 24.5101 138.088 24.9971C138.89 25.4554 139.606 25.9567 140.236 26.501C140.924 27.0739 141.468 27.7327 141.869 28.4775C142.299 29.1937 142.614 29.9385 142.814 30.7119C143.044 31.4567 143.158 32.1729 143.158 32.8604C143.187 33.5479 143.144 34.1208 143.029 34.5791ZM146.725 36.2979C147.383 36.0687 147.928 35.7679 148.357 35.3955C148.787 35.0231 149.117 34.6507 149.346 34.2783C149.632 33.8486 149.818 33.4046 149.904 32.9463C150.535 30.0244 150.85 27.2458 150.85 24.6104C150.85 21.9463 150.649 19.6689 150.248 17.7783C150.133 17.1768 149.919 16.6182 149.604 16.1025C149.346 15.6729 148.988 15.2718 148.529 14.8994C148.071 14.4984 147.484 14.2406 146.768 14.126L146.725 13.4385C147.298 13.4958 147.827 13.5387 148.314 13.5674C148.83 13.5674 149.274 13.5674 149.646 13.5674H150.85C151.193 13.596 151.537 13.6104 151.881 13.6104C152.196 13.639 152.511 13.6533 152.826 13.6533C153.17 13.6533 153.499 13.682 153.814 13.7393C153.729 14.7705 153.657 15.8304 153.6 16.9189C153.542 17.9788 153.499 18.9385 153.471 19.7979C153.413 20.8005 153.385 21.7744 153.385 22.7197C153.327 23.7796 153.285 24.9398 153.256 26.2002C153.227 27.432 153.242 28.6064 153.299 29.7236C153.356 30.8408 153.456 31.8291 153.6 32.6885C153.743 33.5192 153.972 34.0635 154.287 34.3213C154.459 34.4359 154.688 34.5505 154.975 34.665C155.204 34.7796 155.505 34.8942 155.877 35.0088C156.278 35.1234 156.765 35.238 157.338 35.3525L157.381 36.083C156.808 36.0544 156.249 36.0544 155.705 36.083C155.189 36.083 154.731 36.083 154.33 36.083C153.843 36.1117 153.385 36.126 152.955 36.126C152.354 36.1546 151.709 36.2119 151.021 36.2979C150.449 36.3551 149.804 36.4268 149.088 36.5127C148.372 36.5986 147.684 36.6989 147.025 36.8135L146.725 36.2979ZM151.15 10.5596C150.262 10.6169 149.575 10.4163 149.088 9.95801C148.601 9.47103 148.329 8.92676 148.271 8.3252C148.214 7.72363 148.372 7.16504 148.744 6.64941C149.145 6.10514 149.775 5.77572 150.635 5.66113C151.523 5.54655 152.225 5.73275 152.74 6.21973C153.285 6.70671 153.6 7.2653 153.686 7.89551C153.771 8.49707 153.614 9.08431 153.213 9.65723C152.812 10.2015 152.124 10.5023 151.15 10.5596ZM169.623 12.5327C172.498 12.5327 174.625 13.1634 176.003 14.4247C177.382 15.686 178.071 17.6954 178.071 20.4527V36.5127H175.255L174.507 33.1687H174.331C173.305 34.4594 172.219 35.4127 171.075 36.0287C169.931 36.6447 168.377 36.9527 166.411 36.9527C164.27 36.9527 162.495 36.3954 161.087 35.2807C159.679 34.1367 158.975 32.362 158.975 29.9567C158.975 27.61 159.899 25.806 161.747 24.5447C163.595 23.254 166.441 22.55 170.283 22.4327L174.287 22.3007V20.8927C174.287 18.9274 173.862 17.5634 173.011 16.8007C172.161 16.038 170.958 15.6567 169.403 15.6567C168.171 15.6567 166.998 15.8474 165.883 16.2287C164.769 16.5807 163.727 16.9914 162.759 17.4607L161.571 14.5567C162.598 13.9994 163.815 13.53 165.223 13.1487C166.631 12.738 168.098 12.5327 169.623 12.5327ZM174.243 24.9847L170.767 25.1167C167.834 25.234 165.795 25.7034 164.651 26.5247C163.537 27.346 162.979 28.5047 162.979 30.0007C162.979 31.3207 163.375 32.2887 164.167 32.9047C164.989 33.5207 166.03 33.8287 167.291 33.8287C169.257 33.8287 170.899 33.286 172.219 32.2007C173.569 31.086 174.243 29.3847 174.243 27.0967V24.9847ZM175.079 41.6167C175.079 42.9367 175.739 43.5967 177.059 43.5967C177.558 43.5967 177.969 43.5527 178.291 43.4647C178.643 43.406 178.937 43.362 179.171 43.3327V45.7967C178.761 45.914 178.335 46.002 177.895 46.0607C177.485 46.1487 177.001 46.1927 176.443 46.1927C174.889 46.1927 173.745 45.826 173.011 45.0927C172.278 44.3594 171.911 43.3474 171.911 42.0567C171.911 41.2354 172.117 40.414 172.527 39.5927C172.967 38.8007 173.495 38.082 174.111 37.4367C174.757 36.7914 175.373 36.2634 175.959 35.8527L178.071 36.5127C177.074 37.4514 176.326 38.302 175.827 39.0647C175.329 39.8567 175.079 40.7074 175.079 41.6167ZM200.579 36.5127H183.331V33.9607L196.003 15.9207H184.079V12.9287H200.271V15.8327L187.775 33.5207H200.579V36.5127ZM192.087 4.08469C192.674 4.08469 193.187 4.29003 193.627 4.70069C194.097 5.08203 194.331 5.69803 194.331 6.54869C194.331 7.39936 194.097 8.03003 193.627 8.44069C193.187 8.82203 192.674 9.0127 192.087 9.0127C191.442 9.0127 190.899 8.82203 190.459 8.44069C190.019 8.03003 189.799 7.39936 189.799 6.54869C189.799 5.69803 190.019 5.08203 190.459 4.70069C190.899 4.29003 191.442 4.08469 192.087 4.08469ZM224.154 47.3838C223.152 47.3838 222.163 47.2262 221.189 46.9111C220.216 46.596 219.37 46.0661 218.654 45.3213C217.938 44.6051 217.408 43.6312 217.064 42.3994C216.721 41.1963 216.678 39.6924 216.936 37.8877C217.136 36.5127 217.294 35.1663 217.408 33.8486C217.551 32.5023 217.594 31.2705 217.537 30.1533C217.48 29.0075 217.279 28.0049 216.936 27.1455C216.592 26.2575 216.033 25.57 215.26 25.083C214.544 24.596 213.613 24.3096 212.467 24.2236C211.321 24.1377 209.932 24.3382 208.299 24.8252C208.356 26.057 208.428 27.2171 208.514 28.3057C208.628 29.3942 208.757 30.3682 208.9 31.2275C208.986 32.0869 209.144 32.8317 209.373 33.4619C209.545 34.0062 209.788 34.4932 210.104 34.9229C210.419 35.3525 210.82 35.5101 211.307 35.3955L211.006 36.4697C210.433 36.2692 209.774 36.126 209.029 36.04C208.313 35.9541 207.54 35.9398 206.709 35.9971C205.878 36.0544 205.019 36.1833 204.131 36.3838C203.271 36.5843 202.441 36.8851 201.639 37.2861L201.424 36.5557C201.854 36.2406 202.24 35.9541 202.584 35.6963C202.928 35.4385 203.229 35.109 203.486 34.708C203.773 34.307 204.016 33.7913 204.217 33.1611C204.417 32.5309 204.589 31.6859 204.732 30.626C204.876 29.5661 205.048 28.1911 205.248 26.501C205.477 24.7822 205.678 22.9346 205.85 20.958C206.021 18.9814 206.136 16.9476 206.193 14.8564C206.251 12.7653 206.193 10.8174 206.021 9.0127C205.85 7.66634 205.592 6.44889 205.248 5.36035C205.105 4.90202 204.919 4.45801 204.689 4.02832C204.489 3.56999 204.245 3.16895 203.959 2.8252C203.673 2.4528 203.343 2.15202 202.971 1.92285C202.627 1.69368 202.24 1.56478 201.811 1.53613V0.891602C202.355 0.977539 202.971 1.0778 203.658 1.19238C204.374 1.27832 205.176 1.33561 206.064 1.36426C206.981 1.3929 207.998 1.34993 209.115 1.23535C210.261 1.09212 211.536 0.819987 212.939 0.418945V1.27832C212.424 1.56478 211.951 1.86556 211.521 2.18066C211.092 2.46712 210.691 2.88249 210.318 3.42676C209.975 3.97103 209.674 4.68717 209.416 5.5752C209.158 6.46322 208.972 7.6377 208.857 9.09863C208.714 10.4736 208.557 12.0635 208.385 13.8682C208.242 15.6729 208.17 17.5348 208.17 19.4541C208.17 20.1416 208.17 20.8434 208.17 21.5596C208.17 22.2471 208.199 22.9346 208.256 23.6221C209.631 23.1351 210.863 22.5049 211.951 21.7314C213.04 20.9294 213.956 20.113 214.701 19.2822C215.446 18.4229 216.019 17.5921 216.42 16.79C216.821 15.988 217.021 15.3005 217.021 14.7275C216.964 14.2979 216.864 13.9111 216.721 13.5674C216.577 13.2809 216.363 13.0231 216.076 12.7939C215.79 12.5361 215.403 12.3929 214.916 12.3643L215.045 11.29C216.821 11.5192 218.525 11.6195 220.158 11.5908C221.791 11.5335 223.424 11.1468 225.057 10.4307L225.229 11.29C224.799 11.4906 224.412 11.6911 224.068 11.8916C223.725 12.0635 223.395 12.2783 223.08 12.5361C222.794 12.7939 222.507 13.1377 222.221 13.5674C221.934 13.9684 221.619 14.4984 221.275 15.1572C221.018 15.7015 220.674 16.3317 220.244 17.0479C219.814 17.764 219.299 18.4801 218.697 19.1963C218.124 19.8838 217.451 20.5426 216.678 21.1729C215.933 21.7744 215.117 22.2614 214.229 22.6338C216.52 22.5765 218.311 23.1781 219.6 24.4385C220.889 25.6702 221.619 27.7184 221.791 30.583C221.848 32.0439 221.719 33.5192 221.404 35.0088C221.089 36.4697 220.817 37.8447 220.588 39.1338C220.359 40.4515 220.273 41.626 220.33 42.6572C220.387 43.7171 220.817 44.5479 221.619 45.1494C222.393 45.751 223.152 46.109 223.896 46.2236C224.67 46.3669 225.386 46.3096 226.045 46.0518C226.704 45.8226 227.277 45.4215 227.764 44.8486C228.279 44.2757 228.68 43.6025 228.967 42.8291C229.225 42.0557 229.339 41.3825 229.311 40.8096C229.282 40.2653 229.153 39.807 228.924 39.4346C228.695 39.0908 228.394 38.833 228.021 38.6611C227.678 38.4893 227.305 38.4033 226.904 38.4033C226.102 38.4033 225.386 38.7041 224.756 39.3057C224.126 39.9072 223.782 40.695 223.725 41.6689C223.696 42.0127 223.739 42.2992 223.854 42.5283C223.968 42.7575 224.111 42.9294 224.283 43.0439C224.484 43.1872 224.684 43.2874 224.885 43.3447C225.114 43.402 225.329 43.402 225.529 43.3447C225.902 43.2874 226.274 43.0726 226.646 42.7002C227.048 42.3278 227.234 41.8838 227.205 41.3682C227.033 41.4827 226.818 41.583 226.561 41.6689C226.303 41.7835 226.059 41.8408 225.83 41.8408C225.63 41.8408 225.443 41.7692 225.271 41.626C225.128 41.5114 225.057 41.2822 225.057 40.9385C225.057 40.5374 225.2 40.2223 225.486 39.9932C225.801 39.7926 226.145 39.6924 226.518 39.6924C226.89 39.6924 227.234 39.807 227.549 40.0361C227.864 40.2939 228.021 40.6663 228.021 41.1533C228.05 42.0986 227.735 42.8864 227.076 43.5166C226.446 44.1755 225.701 44.5049 224.842 44.5049C224.212 44.5049 223.71 44.3187 223.338 43.9463C222.994 43.6025 222.751 43.1585 222.607 42.6143C222.493 42.0986 222.493 41.5257 222.607 40.8955C222.751 40.2653 223.008 39.6781 223.381 39.1338C223.753 38.6182 224.24 38.1742 224.842 37.8018C225.472 37.458 226.217 37.2861 227.076 37.2861C227.678 37.2861 228.179 37.4007 228.58 37.6299C228.981 37.859 229.296 38.1455 229.525 38.4893C229.783 38.8617 229.969 39.2627 230.084 39.6924C230.199 40.1221 230.256 40.5518 230.256 40.9814C230.285 41.8122 230.17 42.5999 229.912 43.3447C229.654 44.1182 229.268 44.8057 228.752 45.4072C228.236 46.0088 227.592 46.4814 226.818 46.8252C226.045 47.1976 225.157 47.3838 224.154 47.3838ZM224.799 36.2979C225.458 36.0687 226.002 35.7679 226.432 35.3955C226.861 35.0231 227.191 34.6507 227.42 34.2783C227.706 33.8486 227.893 33.4046 227.979 32.9463C228.609 30.0244 228.924 27.2458 228.924 24.6104C228.924 21.9463 228.723 19.6689 228.322 17.7783C228.208 17.1768 227.993 16.6182 227.678 16.1025C227.42 15.6729 227.062 15.2718 226.604 14.8994C226.145 14.4984 225.558 14.2406 224.842 14.126L224.799 13.4385C225.372 13.4958 225.902 13.5387 226.389 13.5674C226.904 13.5674 227.348 13.5674 227.721 13.5674H228.924C229.268 13.596 229.611 13.6104 229.955 13.6104C230.27 13.639 230.585 13.6533 230.9 13.6533C231.244 13.6533 231.574 13.682 231.889 13.7393C231.803 14.7705 231.731 15.8304 231.674 16.9189C231.617 17.9788 231.574 18.9385 231.545 19.7979C231.488 20.8005 231.459 21.7744 231.459 22.7197C231.402 23.7796 231.359 24.9398 231.33 26.2002C231.301 27.432 231.316 28.6064 231.373 29.7236C231.43 30.8408 231.531 31.8291 231.674 32.6885C231.817 33.5192 232.046 34.0635 232.361 34.3213C232.533 34.4359 232.762 34.5505 233.049 34.665C233.278 34.7796 233.579 34.8942 233.951 35.0088C234.352 35.1234 234.839 35.238 235.412 35.3525L235.455 36.083C234.882 36.0544 234.324 36.0544 233.779 36.083C233.264 36.083 232.805 36.083 232.404 36.083C231.917 36.1117 231.459 36.126 231.029 36.126C230.428 36.1546 229.783 36.2119 229.096 36.2979C228.523 36.3551 227.878 36.4268 227.162 36.5127C226.446 36.5986 225.758 36.6989 225.1 36.8135L224.799 36.2979ZM229.225 10.5596C228.337 10.6169 227.649 10.4163 227.162 9.95801C226.675 9.47103 226.403 8.92676 226.346 8.3252C226.288 7.72363 226.446 7.16504 226.818 6.64941C227.219 6.10514 227.85 5.77572 228.709 5.66113C229.597 5.54655 230.299 5.73275 230.814 6.21973C231.359 6.70671 231.674 7.2653 231.76 7.89551C231.846 8.49707 231.688 9.08431 231.287 9.65723C230.886 10.2015 230.199 10.5023 229.225 10.5596Z" fill="white"/>
</svg>
