<svg width="684" height="151" viewBox="0 0 684 151" fill="none" xmlns="http://www.w3.org/2000/svg">
<path d="M120.25 128.375C120.417 130.208 120.125 132.208 119.375 134.375C118.708 136.625 117.542 138.708 115.875 140.625C114.292 142.625 112.208 144.25 109.625 145.5C107.042 146.833 103.958 147.5 100.375 147.5C96.875 147.417 93.4583 146.292 90.125 144.125C86.875 142.042 84.125 139.125 81.875 135.375C79.7083 131.625 78.25 127.167 77.5 122C76.75 116.833 77.0833 111.167 78.5 105C79.4167 100.917 80.5417 96.125 81.875 90.625C83.2917 85.0417 84.625 79.2917 85.875 73.375C87.2083 67.4583 88.2917 61.625 89.125 55.875C90.0417 50.125 90.4583 44.9583 90.375 40.375C90.2917 35.7083 89.5833 31.9167 88.25 29C87 26 84.8333 24.375 81.75 24.125C79.25 23.9583 76.9583 24.7083 74.875 26.375C72.875 27.9583 71.125 30 69.625 32.5C68.125 35 66.875 37.7083 65.875 40.625C64.9583 43.4583 64.3333 46 64 48.25C63.25 52.8333 62.6667 58.25 62.25 64.5C61.8333 70.6667 61.6667 76.7917 61.75 82.875C61.75 84.875 62.0833 86.5 62.75 87.75C63.4167 88.9167 64.2083 89.8333 65.125 90.5C66.0417 91.1667 67 91.6667 68 92C69 92.25 69.875 92.4167 70.625 92.5L70.375 94.5C65.375 95.1667 61.1667 95.875 57.75 96.625C54.4167 97.2917 51.6667 97.9583 49.5 98.625C47 99.375 44.9583 100.083 43.375 100.75L42.25 98.125C44.0833 97.2083 45.625 96.0833 46.875 94.75C48.2083 93.4167 49.25 91.7917 50 89.875C50.75 87.875 51.2917 85.5417 51.625 82.875C51.9583 80.2083 52.1667 77.0833 52.25 73.5C52.3333 71.0833 52.4167 68.25 52.5 65C52.5833 61.6667 52.5833 58.25 52.5 54.75C52.5 51.25 52.375 47.7917 52.125 44.375C51.875 40.9583 51.4167 37.9167 50.75 35.25C50.0833 32.5833 49.1667 30.4583 48 28.875C46.8333 27.2083 45.3333 26.375 43.5 26.375C41.5833 26.4583 39.875 27.2083 38.375 28.625C36.9583 30.0417 35.6667 31.875 34.5 34.125C33.3333 36.375 32.3333 38.875 31.5 41.625C30.6667 44.2917 29.9583 46.9167 29.375 49.5C28.875 52.0833 28.4583 54.4583 28.125 56.625C27.875 58.7083 27.7083 60.2917 27.625 61.375C27.5417 62.4583 27.4583 64.125 27.375 66.375C27.2917 68.5417 27.25 71.0417 27.25 73.875C27.3333 76.625 27.5417 79.5833 27.875 82.75C28.2917 85.8333 28.875 88.8333 29.625 91.75C30.4583 94.5833 31.5833 97.2083 33 99.625C34.4167 101.958 36.2083 103.75 38.375 105L38.25 108.25C36.5833 107.75 34.3333 107.375 31.5 107.125C28.75 106.958 25.8333 106.958 22.75 107.125C19.75 107.292 16.7917 107.625 13.875 108.125C11.0417 108.708 8.70833 109.5 6.875 110.5L5.375 107.25C7.375 106.167 9.04167 105.25 10.375 104.5C11.7917 103.667 12.9583 102.5 13.875 101C14.875 99.5 15.625 97.4167 16.125 94.75C16.625 92 16.9583 88.25 17.125 83.5C17.2917 78.6667 17.4583 74.5417 17.625 71.125C17.7917 67.7083 17.875 64.625 17.875 61.875C17.9583 59.125 18 56.5417 18 54.125C18.0833 51.7083 18.0833 49.0417 18 46.125C17.9167 43.2917 17.625 40.3333 17.125 37.25C16.7083 34.1667 15.9167 31.25 14.75 28.5C13.5833 25.6667 11.9167 23.1667 9.75 21C7.58333 18.8333 4.75 17.1667 1.25 16L0.75 13.5C2.75 13.6667 5.125 13.8333 7.875 14C10.5417 14.1667 13.1667 14.25 15.75 14.25C18.4167 14.25 20.75 14.1667 22.75 14C24.8333 13.75 26.2083 13.2917 26.875 12.625C27.2083 13.2083 27.4583 14.3333 27.625 16C27.875 17.5833 28.0417 19.4583 28.125 21.625C28.2083 23.7083 28.25 25.9583 28.25 28.375C28.25 30.7917 28.25 33.125 28.25 35.375C29.4167 31.9583 30.75 29.0417 32.25 26.625C33.8333 24.125 35.4583 22.125 37.125 20.625C38.7917 19.0417 40.4167 17.875 42 17.125C43.6667 16.375 45.2083 16 46.625 16C49.9583 16 52.9583 17.4167 55.625 20.25C58.2917 23.0833 60.1667 27.125 61.25 32.375C63.9167 25.5417 67.4583 20.25 71.875 16.5C76.375 12.6667 81.5417 11.1667 87.375 12C94.2083 13 98.8333 17.0417 101.25 24.125C103.75 31.2083 103.833 41.4583 101.5 54.875C100.333 61.5417 98.7083 68.25 96.625 75C94.625 81.75 92.6667 88.25 90.75 94.5C88.9167 100.667 87.4167 106.458 86.25 111.875C85.1667 117.375 84.9583 122.125 85.625 126.125C86.2083 129.792 87.25 132.792 88.75 135.125C90.25 137.458 91.875 139.25 93.625 140.5C95.375 141.833 97.125 142.708 98.875 143.125C100.708 143.625 102.292 143.833 103.625 143.75C105.458 143.667 107.125 143.125 108.625 142.125C110.208 141.125 111.583 139.875 112.75 138.375C113.917 136.875 114.792 135.25 115.375 133.5C116.042 131.75 116.375 130.083 116.375 128.5C116.375 127.417 116.125 126.333 115.625 125.25C115.208 124.167 114.583 123.208 113.75 122.375C112.917 121.542 111.875 120.875 110.625 120.375C109.458 119.875 108.167 119.667 106.75 119.75C105.333 119.833 104.083 120.167 103 120.75C102 121.333 101.167 122.042 100.5 122.875C99.8333 123.792 99.3333 124.75 99 125.75C98.75 126.75 98.6667 127.625 98.75 128.375C98.9167 130.042 99.5 131.417 100.5 132.5C101.5 133.583 102.708 134.042 104.125 133.875C104.792 133.792 105.333 133.583 105.75 133.25C106.25 132.917 106.708 132.542 107.125 132.125C106.292 131.792 105.583 131.333 105 130.75C104.5 130.25 104.333 129.375 104.5 128.125C104.583 127.375 104.875 126.75 105.375 126.25C105.958 125.833 106.583 125.583 107.25 125.5C108 125.417 108.667 125.542 109.25 125.875C109.833 126.208 110.208 126.833 110.375 127.75C110.458 128.667 110.417 129.667 110.25 130.75C110.083 131.917 109.708 132.958 109.125 133.875C108.542 134.875 107.708 135.667 106.625 136.25C105.542 136.917 104.125 137.25 102.375 137.25C100.625 137.25 99.2083 136.792 98.125 135.875C97.125 134.958 96.375 133.833 95.875 132.5C95.375 131.167 95.0833 129.75 95 128.25C95 126.833 95.1667 125.625 95.5 124.625C96.1667 122.458 97.5417 120.417 99.625 118.5C101.708 116.667 104.625 115.833 108.375 116C110.125 116.167 111.708 116.625 113.125 117.375C114.542 118.125 115.75 119.083 116.75 120.25C117.75 121.5 118.542 122.833 119.125 124.25C119.708 125.667 120.083 127.042 120.25 128.375ZM136.375 35.375C139.875 35.2917 143.333 36 146.75 37.5C150.167 39 153.25 41.25 156 44.25C158.75 47.25 160.958 50.9167 162.625 55.25C164.375 59.5 165.25 64.375 165.25 69.875C165.25 75.375 164.542 80.25 163.125 84.5C161.792 88.6667 159.958 92.2083 157.625 95.125C155.375 98.0417 152.75 100.292 149.75 101.875C146.833 103.375 143.75 104.25 140.5 104.5C136.833 104.75 133.25 104.167 129.75 102.75C126.25 101.25 123.083 99.0417 120.25 96.125C117.5 93.125 115.25 89.4583 113.5 85.125C111.75 80.7083 110.833 75.6667 110.75 70C110.583 64.1667 111.292 59.125 112.875 54.875C114.542 50.5417 116.625 46.9583 119.125 44.125C121.625 41.2917 124.417 39.1667 127.5 37.75C130.583 36.3333 133.542 35.5417 136.375 35.375ZM141.625 96.25C143.375 96.0833 145.25 95.3333 147.25 94C149.25 92.6667 151 90.7083 152.5 88.125C154 85.4583 155.083 82.2083 155.75 78.375C156.5 74.4583 156.458 69.875 155.625 64.625C154.792 59.375 153.542 55.125 151.875 51.875C150.208 48.625 148.375 46.125 146.375 44.375C144.458 42.5417 142.5 41.375 140.5 40.875C138.5 40.2917 136.75 40.0417 135.25 40.125C132.833 40.2917 130.792 41.125 129.125 42.625C127.458 44.0417 126.042 45.9167 124.875 48.25C123.792 50.5 122.958 53.0833 122.375 56C121.875 58.9167 121.583 61.9583 121.5 65.125C121.333 69.125 121.625 73.125 122.375 77.125C123.125 81.125 124.417 84.7083 126.25 87.875C128 90.9583 130.208 93.2083 132.875 94.625C135.542 96.0417 138.458 96.5833 141.625 96.25ZM184.375 35.125C181.875 35.2917 179.875 34.7917 178.375 33.625C176.958 32.375 176.25 30.8333 176.25 29C176.25 27.0833 176.958 25.4167 178.375 24C179.875 22.5833 181.833 21.7917 184.25 21.625C186.75 21.4583 188.708 22 190.125 23.25C191.542 24.4167 192.25 25.9583 192.25 27.875C192.25 29.7083 191.542 31.3333 190.125 32.75C188.792 34.1667 186.875 34.9583 184.375 35.125ZM166.75 43C168.25 43.0833 170.333 43.125 173 43.125C175.75 43.125 178.792 43.0417 182.125 42.875C185.458 42.625 188.917 42.25 192.5 41.75C196.167 41.1667 199.625 40.3333 202.875 39.25L203.875 41.375C202.125 42.4583 200.458 43.5833 198.875 44.75C197.292 45.9167 195.917 47.4167 194.75 49.25C193.667 51.0833 192.875 53.4167 192.375 56.25C191.875 59 191.917 62.5833 192.5 67C193 71.4167 193.583 75.625 194.25 79.625C194.917 83.625 195.625 87.5 196.375 91.25C197.125 94.9167 197.833 98.5 198.5 102C199.25 105.5 199.958 109 200.625 112.5C201.125 114.833 201.417 117.417 201.5 120.25C201.583 123.083 201.417 125.917 201 128.75C200.667 131.583 200.083 134.333 199.25 137C198.417 139.667 197.25 142 195.75 144C194.25 146.083 192.375 147.75 190.125 149C187.958 150.25 185.417 150.833 182.5 150.75C178.083 150.667 174.375 150 171.375 148.75C168.375 147.583 165.958 146.083 164.125 144.25C162.292 142.5 160.958 140.5 160.125 138.25C159.292 136.083 158.833 134 158.75 132C158.667 130 158.958 127.708 159.625 125.125C160.292 122.542 161.333 120.083 162.75 117.75C164.083 115.417 165.792 113.417 167.875 111.75C169.958 110.167 172.333 109.292 175 109.125C177.667 109.042 179.75 109.375 181.25 110.125C182.833 110.875 184 111.875 184.75 113.125C185.583 114.375 186.083 115.75 186.25 117.25C186.417 118.75 186.5 120.167 186.5 121.5C186.5 122.917 186.292 124.5 185.875 126.25C185.458 128 184.792 129.625 183.875 131.125C182.958 132.625 181.708 133.792 180.125 134.625C178.625 135.542 176.708 135.75 174.375 135.25C172.125 134.833 170.583 133.75 169.75 132C168.917 130.25 168.667 128.417 169 126.5C169.333 124.5 170.125 122.75 171.375 121.25C172.708 119.75 174.458 119 176.625 119C177.958 119 178.917 119.375 179.5 120.125C180.167 120.958 180.417 121.833 180.25 122.75C180.167 123.667 179.833 124.375 179.25 124.875C178.667 125.458 178.042 125.75 177.375 125.75C176.125 125.667 175.417 125.208 175.25 124.375C175.083 123.542 175.292 122.708 175.875 121.875C175.125 121.875 174.333 122.417 173.5 123.5C172.667 124.667 172.292 126.083 172.375 127.75C172.458 129.083 172.958 130.208 173.875 131.125C174.792 132.125 175.875 132.583 177.125 132.5C177.708 132.5 178.375 132.292 179.125 131.875C179.875 131.458 180.583 130.833 181.25 130C181.917 129.167 182.5 128.125 183 126.875C183.5 125.625 183.792 124.167 183.875 122.5C184.125 119 183.417 116.417 181.75 114.75C180.167 113.083 178.292 112.208 176.125 112.125C174.792 112.125 173.333 112.542 171.75 113.375C170.167 114.208 168.75 115.417 167.5 117C166.167 118.667 165.125 120.625 164.375 122.875C163.625 125.208 163.458 127.792 163.875 130.625C164.042 132.125 164.542 133.792 165.375 135.625C166.208 137.458 167.333 139.125 168.75 140.625C170.167 142.125 171.875 143.292 173.875 144.125C175.958 145.042 178.25 145.292 180.75 144.875C183.667 144.375 185.917 143.042 187.5 140.875C189.083 138.708 190.125 135.917 190.625 132.5C191.208 129.083 191.333 125.208 191 120.875C190.75 116.542 190.25 112 189.5 107.25C187.917 97.75 186.458 88.875 185.125 80.625C183.875 72.2917 182.542 65.375 181.125 59.875C180.458 57.125 179.458 54.9167 178.125 53.25C176.875 51.5833 175.5 50.25 174 49.25C172.583 48.25 171.167 47.5 169.75 47C168.417 46.4167 167.333 45.875 166.5 45.375L166.75 43ZM209.125 71.125C209.375 66.2083 210.417 61.625 212.25 57.375C214.167 53.125 216.625 49.5 219.625 46.5C222.625 43.4167 226 41.0833 229.75 39.5C233.583 37.9167 237.542 37.375 241.625 37.875C245.708 38.375 248.833 39.625 251 41.625C253.25 43.625 254.833 45.875 255.75 48.375C256.667 50.7917 257.167 53.2083 257.25 55.625C257.333 58.0417 257.333 59.9167 257.25 61.25C257.167 62.5 257 63.875 256.75 65.375C256.583 66.875 256.375 68.375 256.125 69.875C255.958 71.2917 255.875 72.6667 255.875 74C255.875 75.25 256 76.2917 256.25 77.125C254.167 76.4583 251.75 75.75 249 75C246.25 74.1667 243.25 73.5417 240 73.125C236.833 72.7083 233.5 72.5833 230 72.75C226.583 72.8333 223.167 73.4167 219.75 74.5C219.667 77.6667 219.875 80.8333 220.375 84C220.958 87.0833 221.875 90.0417 223.125 92.875C224.208 95.2917 225.458 97.4167 226.875 99.25C228.292 101.083 229.792 102.5 231.375 103.5C233.042 104.417 234.708 104.917 236.375 105C238.125 105.083 239.875 104.583 241.625 103.5C243.042 102.5 244.125 101.292 244.875 99.875C245.542 98.7083 245.792 97.2917 245.625 95.625C245.542 93.9583 244.667 92.0417 243 89.875L258.625 89.125C258.042 90.7917 257.167 92.875 256 95.375C254.917 97.875 253.417 100.292 251.5 102.625C249.583 104.958 247.208 106.917 244.375 108.5C241.542 110.083 238.125 110.792 234.125 110.625C230.125 110.375 226.5 109.083 223.25 106.75C220.083 104.5 217.417 101.542 215.25 97.875C213.083 94.2083 211.458 90.0833 210.375 85.5C209.292 80.8333 208.875 76.0417 209.125 71.125ZM240.125 41.125C237.792 40.875 235.5 41.4583 233.25 42.875C231.083 44.2917 229.083 46.3333 227.25 49C225.5 51.5833 224 54.6667 222.75 58.25C221.5 61.8333 220.625 65.5833 220.125 69.5C224.875 68.9167 229.292 68.625 233.375 68.625C237.458 68.5417 241.25 68.7917 244.75 69.375C245.667 67.4583 246.5 65 247.25 62C248 58.9167 248.333 55.9167 248.25 53C248.167 50 247.5 47.375 246.25 45.125C245.083 42.875 243.042 41.5417 240.125 41.125ZM366.375 136.625C363.458 136.625 360.583 136.167 357.75 135.25C354.917 134.333 352.458 132.792 350.375 130.625C348.292 128.542 346.75 125.708 345.75 122.125C344.75 118.625 344.625 114.25 345.375 109C345.958 105 346.417 101.083 346.75 97.25C347.167 93.3333 347.292 89.75 347.125 86.5C346.958 83.1667 346.375 80.25 345.375 77.75C344.375 75.1667 342.75 73.1667 340.5 71.75C338.417 70.3333 335.708 69.5 332.375 69.25C329.042 69 325 69.5833 320.25 71C320.417 74.5833 320.625 77.9583 320.875 81.125C321.208 84.2917 321.583 87.125 322 89.625C322.25 92.125 322.708 94.2917 323.375 96.125C323.875 97.7083 324.583 99.125 325.5 100.375C326.417 101.625 327.583 102.083 329 101.75L328.125 104.875C326.458 104.292 324.542 103.875 322.375 103.625C320.292 103.375 318.042 103.333 315.625 103.5C313.208 103.667 310.708 104.042 308.125 104.625C305.625 105.208 303.208 106.083 300.875 107.25L300.25 105.125C301.5 104.208 302.625 103.375 303.625 102.625C304.625 101.875 305.5 100.917 306.25 99.75C307.083 98.5833 307.792 97.0833 308.375 95.25C308.958 93.4167 309.458 90.9583 309.875 87.875C310.292 84.7917 310.792 80.7917 311.375 75.875C312.042 70.875 312.625 65.5 313.125 59.75C313.625 54 313.958 48.0833 314.125 42C314.292 35.9167 314.125 30.25 313.625 25C313.125 21.0833 312.375 17.5417 311.375 14.375C310.958 13.0417 310.417 11.75 309.75 10.5C309.167 9.16667 308.458 8 307.625 7C306.792 5.91667 305.833 5.04167 304.75 4.375C303.75 3.70833 302.625 3.33333 301.375 3.25V1.375C302.958 1.625 304.75 1.91667 306.75 2.25C308.833 2.5 311.167 2.66667 313.75 2.75C316.417 2.83333 319.375 2.70833 322.625 2.375C325.958 1.95833 329.667 1.16667 333.75 0V2.5C332.25 3.33333 330.875 4.20833 329.625 5.125C328.375 5.95833 327.208 7.16667 326.125 8.75C325.125 10.3333 324.25 12.4167 323.5 15C322.75 17.5833 322.208 21 321.875 25.25C321.458 29.25 321 33.875 320.5 39.125C320.083 44.375 319.875 49.7917 319.875 55.375C319.875 57.375 319.875 59.4167 319.875 61.5C319.875 63.5 319.958 65.5 320.125 67.5C324.125 66.0833 327.708 64.25 330.875 62C334.042 59.6667 336.708 57.2917 338.875 54.875C341.042 52.375 342.708 49.9583 343.875 47.625C345.042 45.2917 345.625 43.2917 345.625 41.625C345.458 40.375 345.167 39.25 344.75 38.25C344.333 37.4167 343.708 36.6667 342.875 36C342.042 35.25 340.917 34.8333 339.5 34.75L339.875 31.625C345.042 32.2917 350 32.5833 354.75 32.5C359.5 32.3333 364.25 31.2083 369 29.125L369.5 31.625C368.25 32.2083 367.125 32.7917 366.125 33.375C365.125 33.875 364.167 34.5 363.25 35.25C362.417 36 361.583 37 360.75 38.25C359.917 39.4167 359 40.9583 358 42.875C357.25 44.4583 356.25 46.2917 355 48.375C353.75 50.4583 352.25 52.5417 350.5 54.625C348.833 56.625 346.875 58.5417 344.625 60.375C342.458 62.125 340.083 63.5417 337.5 64.625C344.167 64.4583 349.375 66.2083 353.125 69.875C356.875 73.4583 359 79.4167 359.5 87.75C359.667 92 359.292 96.2917 358.375 100.625C357.458 104.875 356.667 108.875 356 112.625C355.333 116.458 355.083 119.875 355.25 122.875C355.417 125.958 356.667 128.375 359 130.125C361.25 131.875 363.458 132.917 365.625 133.25C367.875 133.667 369.958 133.5 371.875 132.75C373.792 132.083 375.458 130.917 376.875 129.25C378.375 127.583 379.542 125.625 380.375 123.375C381.125 121.125 381.458 119.167 381.375 117.5C381.292 115.917 380.917 114.583 380.25 113.5C379.583 112.5 378.708 111.75 377.625 111.25C376.625 110.75 375.542 110.5 374.375 110.5C372.042 110.5 369.958 111.375 368.125 113.125C366.292 114.875 365.292 117.167 365.125 120C365.042 121 365.167 121.833 365.5 122.5C365.833 123.167 366.25 123.667 366.75 124C367.333 124.417 367.917 124.708 368.5 124.875C369.167 125.042 369.792 125.042 370.375 124.875C371.458 124.708 372.542 124.083 373.625 123C374.792 121.917 375.333 120.625 375.25 119.125C374.75 119.458 374.125 119.75 373.375 120C372.625 120.333 371.917 120.5 371.25 120.5C370.667 120.5 370.125 120.292 369.625 119.875C369.208 119.542 369 118.875 369 117.875C369 116.708 369.417 115.792 370.25 115.125C371.167 114.542 372.167 114.25 373.25 114.25C374.333 114.25 375.333 114.583 376.25 115.25C377.167 116 377.625 117.083 377.625 118.5C377.708 121.25 376.792 123.542 374.875 125.375C373.042 127.292 370.875 128.25 368.375 128.25C366.542 128.25 365.083 127.708 364 126.625C363 125.625 362.292 124.333 361.875 122.75C361.542 121.25 361.542 119.583 361.875 117.75C362.292 115.917 363.042 114.208 364.125 112.625C365.208 111.125 366.625 109.833 368.375 108.75C370.208 107.75 372.375 107.25 374.875 107.25C376.625 107.25 378.083 107.583 379.25 108.25C380.417 108.917 381.333 109.75 382 110.75C382.75 111.833 383.292 113 383.625 114.25C383.958 115.5 384.125 116.75 384.125 118C384.208 120.417 383.875 122.708 383.125 124.875C382.375 127.125 381.25 129.125 379.75 130.875C378.25 132.625 376.375 134 374.125 135C371.875 136.083 369.292 136.625 366.375 136.625ZM414.375 99.375C413.875 101.125 413.125 103 412.125 105C411.208 107 409.958 108.875 408.375 110.625C406.792 112.375 404.875 113.833 402.625 115C400.458 116.25 397.958 116.958 395.125 117.125C393.125 117.292 391.208 117.125 389.375 116.625C387.625 116.208 386 115.583 384.5 114.75C383.083 113.917 381.833 112.958 380.75 111.875C379.667 110.792 378.833 109.708 378.25 108.625C377.25 106.458 376.708 104.292 376.625 102.125C376.542 99.875 376.958 97.9167 377.875 96.25C379.208 94.0833 380.625 92.7083 382.125 92.125C383.708 91.5417 385.208 91.1667 386.625 91C387.958 90.8333 389.333 90.9167 390.75 91.25C392.167 91.5833 393.417 92.125 394.5 92.875C395.583 93.625 396.458 94.5833 397.125 95.75C397.792 96.8333 398.083 98.0833 398 99.5C397.917 100.667 397.583 101.75 397 102.75C396.5 103.667 395.833 104.458 395 105.125C394.167 105.875 393.292 106.417 392.375 106.75C391.458 107.167 390.625 107.333 389.875 107.25C388.708 107.083 387.5 106.667 386.25 106C385 105.417 384.292 104.5 384.125 103.25C383.958 102 384.083 100.875 384.5 99.875C385 98.7917 385.75 98.0417 386.75 97.625C388.25 97.0417 389.417 96.8333 390.25 97C391.167 97.0833 391.792 97.375 392.125 97.875C392.542 98.375 392.792 98.9167 392.875 99.5C392.958 100.083 392.958 100.542 392.875 100.875C392.625 101.708 392.208 102.292 391.625 102.625C391.125 102.958 390.458 103.083 389.625 103C388.792 102.833 387.75 102.25 386.5 101.25C386.25 102.167 386.292 102.917 386.625 103.5C386.958 104.083 387.375 104.5 387.875 104.75C388.458 105.083 389.208 105.292 390.125 105.375C391.875 105.542 393.25 105 394.25 103.75C395.25 102.417 395.667 100.958 395.5 99.375C395.417 97.7917 394.667 96.375 393.25 95.125C391.833 93.875 389.625 93.3333 386.625 93.5C384.792 93.6667 383.375 94.25 382.375 95.25C381.375 96.25 380.708 97.4583 380.375 98.875C380.042 100.208 380.042 101.625 380.375 103.125C380.792 104.625 381.458 105.917 382.375 107C383.375 108.167 384.5 109.083 385.75 109.75C387 110.417 388.292 110.875 389.625 111.125C390.958 111.375 392.292 111.417 393.625 111.25C394.958 111.167 396.208 110.875 397.375 110.375C398.708 109.792 400.042 108.75 401.375 107.25C402.708 105.75 403.708 103.958 404.375 101.875C405.042 99.7083 405.167 97.3333 404.75 94.75C404.417 92.0833 403.208 89.375 401.125 86.625C400.042 85.125 398.083 83.375 395.25 81.375C392.417 79.2917 389.375 77.0833 386.125 74.75C382.875 72.3333 379.75 69.8333 376.75 67.25C373.833 64.6667 371.708 62 370.375 59.25C369.125 56.5833 368.458 53.5 368.375 50C368.292 46.5 369.083 43.125 370.75 39.875C372.417 36.625 375.125 33.7083 378.875 31.125C382.708 28.5417 387.833 26.8333 394.25 26C398.833 25.4167 403 25.75 406.75 27C410.583 28.25 413.75 30.0833 416.25 32.5C418.75 34.9167 420.417 37.8333 421.25 41.25C422.167 44.5833 422 48.0833 420.75 51.75C420.417 52.9167 419.833 54.125 419 55.375C418.25 56.625 417.25 57.7917 416 58.875C414.833 59.9583 413.417 60.8333 411.75 61.5C410.083 62.0833 408.25 62.2917 406.25 62.125C404.75 62.0417 403.167 61.6667 401.5 61C399.833 60.25 398.292 59.3333 396.875 58.25C395.458 57.0833 394.208 55.7917 393.125 54.375C392.042 52.9583 391.375 51.4583 391.125 49.875C390.458 46.375 391 43.5417 392.75 41.375C394.583 39.2083 397.375 37.9583 401.125 37.625C402.792 37.5417 404.333 37.8333 405.75 38.5C407.167 39.0833 408.375 39.875 409.375 40.875C410.375 41.875 411.125 43.0417 411.625 44.375C412.125 45.625 412.292 46.7917 412.125 47.875C411.625 51.625 409.542 53.75 405.875 54.25C404.542 54.4167 403.083 54.2083 401.5 53.625C400 53.0417 398.917 51.9167 398.25 50.25C397.833 49.0833 397.75 47.75 398 46.25C398.25 44.6667 399.083 43.5 400.5 42.75C401.167 42.4167 401.875 42.2917 402.625 42.375C403.458 42.4583 404.167 42.7083 404.75 43.125C405.333 43.4583 405.75 43.9583 406 44.625C406.25 45.2917 406.25 46.0833 406 47C405.75 47.5833 405.375 48.0417 404.875 48.375C404.458 48.625 403.875 48.7917 403.125 48.875C402.375 48.875 401.375 48.5833 400.125 48C400.208 49.0833 400.5 49.875 401 50.375C401.583 50.875 402.208 51.2083 402.875 51.375C403.625 51.625 404.417 51.75 405.25 51.75C406.75 51.5833 407.875 51.1667 408.625 50.5C409.458 49.75 409.958 48.9167 410.125 48C410.292 47 410.125 45.9583 409.625 44.875C409.125 43.7917 408.292 42.75 407.125 41.75C405.458 40.5 403.5 39.9167 401.25 40C399 40 397.042 40.9167 395.375 42.75C393.208 45.4167 392.625 48.0417 393.625 50.625C394.708 53.2083 396.833 55.3333 400 57C400.5 57.25 401.083 57.5417 401.75 57.875C402.5 58.2083 403.333 58.4167 404.25 58.5C405.25 58.5 406.333 58.3333 407.5 58C408.667 57.6667 410 57 411.5 56C413.75 54.5 415.083 52.5 415.5 50C415.917 47.5 415.708 45 414.875 42.5C414.125 40 412.792 37.75 410.875 35.75C409.042 33.75 406.917 32.5 404.5 32C401.833 31.5 399.417 31.375 397.25 31.625C395.167 31.7917 393.292 32.2083 391.625 32.875C389.958 33.4583 388.458 34.2083 387.125 35.125C385.792 35.9583 384.625 36.7917 383.625 37.625C383.208 38.0417 382.583 38.7917 381.75 39.875C380.917 40.9583 380.208 42.3333 379.625 44C379.042 45.5833 378.75 47.4583 378.75 49.625C378.833 51.7083 379.583 53.9583 381 56.375C382.333 58.7083 384.042 60.75 386.125 62.5C388.292 64.1667 390.542 65.75 392.875 67.25C395.292 68.6667 397.667 70.0833 400 71.5C402.333 72.8333 404.417 74.2917 406.25 75.875C408.25 77.5417 409.833 79.4583 411 81.625C412.25 83.7083 413.167 85.875 413.75 88.125C414.417 90.2917 414.75 92.375 414.75 94.375C414.833 96.375 414.708 98.0417 414.375 99.375ZM425.125 104.375C427.042 103.708 428.625 102.833 429.875 101.75C431.125 100.667 432.083 99.5833 432.75 98.5C433.583 97.25 434.125 95.9583 434.375 94.625C436.208 86.125 437.125 78.0417 437.125 70.375C437.125 62.625 436.542 56 435.375 50.5C435.042 48.75 434.417 47.125 433.5 45.625C432.75 44.375 431.708 43.2083 430.375 42.125C429.042 40.9583 427.333 40.2083 425.25 39.875L425.125 37.875C426.792 38.0417 428.333 38.1667 429.75 38.25C431.25 38.25 432.542 38.25 433.625 38.25H437.125C438.125 38.3333 439.125 38.375 440.125 38.375C441.042 38.4583 441.958 38.5 442.875 38.5C443.875 38.5 444.833 38.5833 445.75 38.75C445.5 41.75 445.292 44.8333 445.125 48C444.958 51.0833 444.833 53.875 444.75 56.375C444.583 59.2917 444.5 62.125 444.5 64.875C444.333 67.9583 444.208 71.3333 444.125 75C444.042 78.5833 444.083 82 444.25 85.25C444.417 88.5 444.708 91.375 445.125 93.875C445.542 96.2917 446.208 97.875 447.125 98.625C447.625 98.9583 448.292 99.2917 449.125 99.625C449.792 99.9583 450.667 100.292 451.75 100.625C452.917 100.958 454.333 101.292 456 101.625L456.125 103.75C454.458 103.667 452.833 103.667 451.25 103.75C449.75 103.75 448.417 103.75 447.25 103.75C445.833 103.833 444.5 103.875 443.25 103.875C441.5 103.958 439.625 104.125 437.625 104.375C435.958 104.542 434.083 104.75 432 105C429.917 105.25 427.917 105.542 426 105.875L425.125 104.375ZM438 29.5C435.417 29.6667 433.417 29.0833 432 27.75C430.583 26.3333 429.792 24.75 429.625 23C429.458 21.25 429.917 19.625 431 18.125C432.167 16.5417 434 15.5833 436.5 15.25C439.083 14.9167 441.125 15.4583 442.625 16.875C444.208 18.2917 445.125 19.9167 445.375 21.75C445.625 23.5 445.167 25.2083 444 26.875C442.833 28.4583 440.833 29.3333 438 29.5ZM491.739 35.24C500.102 35.24 506.288 37.0747 510.299 40.744C514.31 44.4133 516.315 50.2587 516.315 58.28V105H508.123L505.947 95.272H505.435C503.472 97.7467 501.424 99.8373 499.291 101.544C497.243 103.165 494.854 104.36 492.123 105.128C489.478 105.896 486.235 106.28 482.395 106.28C478.299 106.28 474.587 105.555 471.259 104.104C468.016 102.653 465.456 100.435 463.579 97.448C461.702 94.376 460.763 90.536 460.763 85.928C460.763 79.1013 463.451 73.8533 468.827 70.184C474.203 66.4293 482.48 64.3813 493.659 64.04L505.307 63.656V59.56C505.307 53.8427 504.07 49.8747 501.595 47.656C499.12 45.4373 495.622 44.328 491.099 44.328C487.515 44.328 484.102 44.8827 480.859 45.992C477.616 47.016 474.587 48.2107 471.771 49.576L468.315 41.128C471.302 39.5067 474.843 38.1413 478.939 37.032C483.035 35.8373 487.302 35.24 491.739 35.24ZM495.067 71.848C486.534 72.1893 480.603 73.5547 477.275 75.944C474.032 78.3333 472.411 81.704 472.411 86.056C472.411 89.896 473.563 92.712 475.867 94.504C478.256 96.296 481.286 97.192 484.955 97.192C490.758 97.192 495.579 95.6133 499.419 92.456C503.259 89.2133 505.179 84.264 505.179 77.608V71.464L495.067 71.848ZM507.611 119.848C507.611 121.725 508.123 123.133 509.147 124.072C510.171 125.096 511.579 125.608 513.371 125.608C514.822 125.608 516.016 125.48 516.955 125.224C517.979 125.053 518.832 124.925 519.515 124.84V132.008C518.32 132.349 517.126 132.605 515.931 132.776C514.736 133.032 513.286 133.16 511.579 133.16C508.592 133.16 506.118 132.691 504.155 131.752C502.192 130.813 500.742 129.405 499.803 127.528C498.864 125.736 498.395 123.603 498.395 121.128C498.395 118.653 498.992 116.264 500.187 113.96C501.467 111.656 503.003 109.565 504.795 107.688C506.672 105.811 508.464 104.275 510.171 103.08L516.315 105C513.414 107.731 511.238 110.205 509.787 112.424C508.336 114.728 507.611 117.203 507.611 119.848ZM581.793 105H531.617V97.576L568.481 45.096H533.793V36.392H580.897V44.84L544.545 96.296H581.793V105ZM556.833 10.664C558.54 10.664 560.033 11.2613 561.313 12.456C562.678 13.5653 563.361 15.3573 563.361 17.832C563.361 20.2213 562.678 22.0133 561.313 23.208C560.033 24.4027 558.54 25 556.833 25C554.956 25 553.377 24.4027 552.097 23.208C550.817 22.0133 550.177 20.2213 550.177 17.832C550.177 15.3573 550.817 13.5653 552.097 12.456C553.377 11.2613 554.956 10.664 556.833 10.664ZM650.375 136.625C647.458 136.625 644.583 136.167 641.75 135.25C638.917 134.333 636.458 132.792 634.375 130.625C632.292 128.542 630.75 125.708 629.75 122.125C628.75 118.625 628.625 114.25 629.375 109C629.958 105 630.417 101.083 630.75 97.25C631.167 93.3333 631.292 89.75 631.125 86.5C630.958 83.1667 630.375 80.25 629.375 77.75C628.375 75.1667 626.75 73.1667 624.5 71.75C622.417 70.3333 619.708 69.5 616.375 69.25C613.042 69 609 69.5833 604.25 71C604.417 74.5833 604.625 77.9583 604.875 81.125C605.208 84.2917 605.583 87.125 606 89.625C606.25 92.125 606.708 94.2917 607.375 96.125C607.875 97.7083 608.583 99.125 609.5 100.375C610.417 101.625 611.583 102.083 613 101.75L612.125 104.875C610.458 104.292 608.542 103.875 606.375 103.625C604.292 103.375 602.042 103.333 599.625 103.5C597.208 103.667 594.708 104.042 592.125 104.625C589.625 105.208 587.208 106.083 584.875 107.25L584.25 105.125C585.5 104.208 586.625 103.375 587.625 102.625C588.625 101.875 589.5 100.917 590.25 99.75C591.083 98.5833 591.792 97.0833 592.375 95.25C592.958 93.4167 593.458 90.9583 593.875 87.875C594.292 84.7917 594.792 80.7917 595.375 75.875C596.042 70.875 596.625 65.5 597.125 59.75C597.625 54 597.958 48.0833 598.125 42C598.292 35.9167 598.125 30.25 597.625 25C597.125 21.0833 596.375 17.5417 595.375 14.375C594.958 13.0417 594.417 11.75 593.75 10.5C593.167 9.16667 592.458 8 591.625 7C590.792 5.91667 589.833 5.04167 588.75 4.375C587.75 3.70833 586.625 3.33333 585.375 3.25V1.375C586.958 1.625 588.75 1.91667 590.75 2.25C592.833 2.5 595.167 2.66667 597.75 2.75C600.417 2.83333 603.375 2.70833 606.625 2.375C609.958 1.95833 613.667 1.16667 617.75 0V2.5C616.25 3.33333 614.875 4.20833 613.625 5.125C612.375 5.95833 611.208 7.16667 610.125 8.75C609.125 10.3333 608.25 12.4167 607.5 15C606.75 17.5833 606.208 21 605.875 25.25C605.458 29.25 605 33.875 604.5 39.125C604.083 44.375 603.875 49.7917 603.875 55.375C603.875 57.375 603.875 59.4167 603.875 61.5C603.875 63.5 603.958 65.5 604.125 67.5C608.125 66.0833 611.708 64.25 614.875 62C618.042 59.6667 620.708 57.2917 622.875 54.875C625.042 52.375 626.708 49.9583 627.875 47.625C629.042 45.2917 629.625 43.2917 629.625 41.625C629.458 40.375 629.167 39.25 628.75 38.25C628.333 37.4167 627.708 36.6667 626.875 36C626.042 35.25 624.917 34.8333 623.5 34.75L623.875 31.625C629.042 32.2917 634 32.5833 638.75 32.5C643.5 32.3333 648.25 31.2083 653 29.125L653.5 31.625C652.25 32.2083 651.125 32.7917 650.125 33.375C649.125 33.875 648.167 34.5 647.25 35.25C646.417 36 645.583 37 644.75 38.25C643.917 39.4167 643 40.9583 642 42.875C641.25 44.4583 640.25 46.2917 639 48.375C637.75 50.4583 636.25 52.5417 634.5 54.625C632.833 56.625 630.875 58.5417 628.625 60.375C626.458 62.125 624.083 63.5417 621.5 64.625C628.167 64.4583 633.375 66.2083 637.125 69.875C640.875 73.4583 643 79.4167 643.5 87.75C643.667 92 643.292 96.2917 642.375 100.625C641.458 104.875 640.667 108.875 640 112.625C639.333 116.458 639.083 119.875 639.25 122.875C639.417 125.958 640.667 128.375 643 130.125C645.25 131.875 647.458 132.917 649.625 133.25C651.875 133.667 653.958 133.5 655.875 132.75C657.792 132.083 659.458 130.917 660.875 129.25C662.375 127.583 663.542 125.625 664.375 123.375C665.125 121.125 665.458 119.167 665.375 117.5C665.292 115.917 664.917 114.583 664.25 113.5C663.583 112.5 662.708 111.75 661.625 111.25C660.625 110.75 659.542 110.5 658.375 110.5C656.042 110.5 653.958 111.375 652.125 113.125C650.292 114.875 649.292 117.167 649.125 120C649.042 121 649.167 121.833 649.5 122.5C649.833 123.167 650.25 123.667 650.75 124C651.333 124.417 651.917 124.708 652.5 124.875C653.167 125.042 653.792 125.042 654.375 124.875C655.458 124.708 656.542 124.083 657.625 123C658.792 121.917 659.333 120.625 659.25 119.125C658.75 119.458 658.125 119.75 657.375 120C656.625 120.333 655.917 120.5 655.25 120.5C654.667 120.5 654.125 120.292 653.625 119.875C653.208 119.542 653 118.875 653 117.875C653 116.708 653.417 115.792 654.25 115.125C655.167 114.542 656.167 114.25 657.25 114.25C658.333 114.25 659.333 114.583 660.25 115.25C661.167 116 661.625 117.083 661.625 118.5C661.708 121.25 660.792 123.542 658.875 125.375C657.042 127.292 654.875 128.25 652.375 128.25C650.542 128.25 649.083 127.708 648 126.625C647 125.625 646.292 124.333 645.875 122.75C645.542 121.25 645.542 119.583 645.875 117.75C646.292 115.917 647.042 114.208 648.125 112.625C649.208 111.125 650.625 109.833 652.375 108.75C654.208 107.75 656.375 107.25 658.875 107.25C660.625 107.25 662.083 107.583 663.25 108.25C664.417 108.917 665.333 109.75 666 110.75C666.75 111.833 667.292 113 667.625 114.25C667.958 115.5 668.125 116.75 668.125 118C668.208 120.417 667.875 122.708 667.125 124.875C666.375 127.125 665.25 129.125 663.75 130.875C662.25 132.625 660.375 134 658.125 135C655.875 136.083 653.292 136.625 650.375 136.625ZM652.25 104.375C654.167 103.708 655.75 102.833 657 101.75C658.25 100.667 659.208 99.5833 659.875 98.5C660.708 97.25 661.25 95.9583 661.5 94.625C663.333 86.125 664.25 78.0417 664.25 70.375C664.25 62.625 663.667 56 662.5 50.5C662.167 48.75 661.542 47.125 660.625 45.625C659.875 44.375 658.833 43.2083 657.5 42.125C656.167 40.9583 654.458 40.2083 652.375 39.875L652.25 37.875C653.917 38.0417 655.458 38.1667 656.875 38.25C658.375 38.25 659.667 38.25 660.75 38.25H664.25C665.25 38.3333 666.25 38.375 667.25 38.375C668.167 38.4583 669.083 38.5 670 38.5C671 38.5 671.958 38.5833 672.875 38.75C672.625 41.75 672.417 44.8333 672.25 48C672.083 51.0833 671.958 53.875 671.875 56.375C671.708 59.2917 671.625 62.125 671.625 64.875C671.458 67.9583 671.333 71.3333 671.25 75C671.167 78.5833 671.208 82 671.375 85.25C671.542 88.5 671.833 91.375 672.25 93.875C672.667 96.2917 673.333 97.875 674.25 98.625C674.75 98.9583 675.417 99.2917 676.25 99.625C676.917 99.9583 677.792 100.292 678.875 100.625C680.042 100.958 681.458 101.292 683.125 101.625L683.25 103.75C681.583 103.667 679.958 103.667 678.375 103.75C676.875 103.75 675.542 103.75 674.375 103.75C672.958 103.833 671.625 103.875 670.375 103.875C668.625 103.958 666.75 104.125 664.75 104.375C663.083 104.542 661.208 104.75 659.125 105C657.042 105.25 655.042 105.542 653.125 105.875L652.25 104.375ZM665.125 29.5C662.542 29.6667 660.542 29.0833 659.125 27.75C657.708 26.3333 656.917 24.75 656.75 23C656.583 21.25 657.042 19.625 658.125 18.125C659.292 16.5417 661.125 15.5833 663.625 15.25C666.208 14.9167 668.25 15.4583 669.75 16.875C671.333 18.2917 672.25 19.9167 672.5 21.75C672.75 23.5 672.292 25.2083 671.125 26.875C669.958 28.4583 667.958 29.3333 665.125 29.5Z" fill="white"/>
</svg>
